<svg xmlns="http://www.w3.org/2000/svg" width="7501" height="1550"><path fill="#FEFDFD" d="M6145.934 15.5c16.857 12.237 25.175 36.587 31.441 55.75l.7 2.121c5.48 16.665 9.93 33.553 13.925 50.629l.505 2.148c9.948 42.551 16.393 85.922 22.057 129.227l.516 3.928c3.367 25.84 3.367 25.84 3.922 37.697l2.786.906c3.491 1.188 6.75 2.652 10.089 4.219l3.492 1.633L6238 305c-1 7.429-1 7.429-2 11q-2.657-.718-5.312-1.437l-2.989-.81A121 121 0 0 1 6222 312l-1 7 1.863.367 2.45.508 2.425.492C6230 321 6230 321 6233 323l-1 5 7 2 .262-1.66c.99-5.59 2.415-10.992 4.113-16.402l.596-2.022c1.48-4.548 1.48-4.548 3.74-6.064 3.584.232 6.437 1.912 9.539 3.586l1.969 1.025c1.6.835 3.19 1.685 4.781 2.537-.531 5.972-1.846 10.946-4.062 16.5l-.854 2.203A756 756 0 0 1 6257 335l6 1 4-9c9.573-1.316 19-.894 28.625-.562l5.066.158q6.155.193 12.309.404l1.196-3.786c1.9-5.69 4.263-11.142 6.671-16.632l1.427-3.279q2.287-5.246 4.581-10.49l3.173-7.281q3.104-7.123 6.21-14.243 3.258-7.465 6.484-14.941c6.876-15.941 13.872-31.826 20.897-47.702a13033 13033 0 0 0 18.66-42.368q5.044-11.488 10.071-22.982A6107 6107 0 0 1 6430 59c1.102 3.305.985 3.742-.193 6.82l-.877 2.334-.989 2.541-1.014 2.674c-1.113 2.922-2.238 5.84-3.364 8.756q-1.177 3.075-2.35 6.151c-6.599 17.255-13.318 34.464-20.06 51.663-3.838 9.798-7.638 19.61-11.438 29.424A16112 16112 0 0 1 6344.2 285.59l-3.966 10.013-5.153 12.999-2.354 5.941-1.1 2.769-1.007 2.544-.88 2.217A116 116 0 0 0 6328 327c19.968.103 39.935.149 59.903.127 9.273-.009 18.545 0 27.818.055q12.13.072 24.262.028c4.278-.015 8.554-.012 12.831.032 4.038.042 8.073.036 12.11-.005q2.208-.01 4.414.032c12.07.222 18.692-3.782 27.662-11.269a222 222 0 0 1 4.425-3.156l1.892-1.344c9.728-6.886 19.578-13.579 29.495-20.187l2.561-1.707c92.955-61.843 92.955-61.843 129.627-58.606 5.514 1.167 9.608 3.445 13 8 6.034 12.349 2.033 26.14-2.02 38.473-2.1 6.032-4.507 11.916-7.042 17.777l-1.188 2.767c-5.22 11.67-11.599 22.786-17.75 33.983q17.164.07 34.328.104 7.976.014 15.951.047c23.52.1 46.857-.1 70.313-1.915 10.12-.701 20.27-.96 30.408-1.236l2.351-.07c12.322-.345 23.854.66 33.739 8.789 5.48 5.296 10.156 11.34 14.91 17.281q2.122 2.596 4.25 5.188a5848 5848 0 0 1 14.352 17.628q3.361 4.142 6.734 8.274c5.544 6.8 11.035 13.633 16.43 20.551 3.668 4.684 7.44 9.277 11.234 13.859a747 747 0 0 1 13.887 17.262c3.482 4.459 7.035 8.855 10.613 13.238a980 980 0 0 1 13.34 16.718c3.454 4.413 6.985 8.758 10.535 13.094 4.467 5.46 8.806 11 13.063 16.625 4.997 6.601 10.177 13.023 15.465 19.392 5.496 6.625 10.81 13.38 16.097 20.171q2.684 3.44 5.375 6.875l1.358 1.733c3.56 4.526 7.187 8.995 10.83 13.455a677 677 0 0 1 13.921 17.675c2.72 3.55 5.523 7.03 8.328 10.512a710 710 0 0 1 12.626 16.188c4.841 6.378 9.82 12.624 14.893 18.82 4.177 5.108 8.22 10.305 12.224 15.55 2.534 3.318 5.111 6.6 7.695 9.88 17.294 21.975 17.294 21.975 25.467 32.99 5.447 7.34 10.98 14.5 17.004 21.375 3.417 3.905 6.663 7.91 9.842 12.01A355 355 0 0 0 7148.5 727.5c4.269 4.984 8.349 10.088 12.375 15.27a333 333 0 0 0 9.625 11.73c4.188 4.894 8.204 9.895 12.157 14.98 4.353 5.577 8.85 11.03 13.36 16.482a888 888 0 0 1 10.874 13.401c2.784 3.481 5.605 6.932 8.422 10.387a899 899 0 0 1 12.124 15.188c4.684 6.005 9.514 11.88 14.371 17.745a656 656 0 0 1 12.008 15.008c3.649 4.67 7.404 9.245 11.184 13.809a777 777 0 0 1 14.172 17.618c3.403 4.356 6.88 8.647 10.39 12.917 7.062 8.59 14.092 17.203 20.938 25.965 5.508 7.05 11.147 13.988 16.803 20.92q4.384 5.379 8.76 10.768l1.624 1.997 1.536 1.89 1.453 1.774c1.19 1.483 2.321 3.012 3.445 4.546 2.065 2.314 2.946 2.531 5.879 3.105a365376 365376 0 0 0-.372-120.038l-.009-2.563q-.064-20.375-.124-40.751-.06-21.006-.132-42.013-.04-11.757-.072-23.514c-.124-45.855-.464-91.684-2.604-137.496l-.192-4.217c-2.014-44.26-4.08-88.548-7.557-132.72-.077-.988-.153-1.975-.23-2.992-.774-9.914-1.752-19.768-3.188-29.61l-.354-2.46C7332.681 418.5 7324.632 404.393 7312 394c-10.571-7.462-23.182-13.035-36.262-13.174l-3.104-.04-3.322-.032-6.992-.1a4854 4854 0 0 0-11-.13c-3.545-.04-7.089-.092-10.632-.145l-3.322-.026-3.104-.05-2.72-.031c-2.866-.307-4.974-.965-7.542-2.272-2.045-3.067-2.251-3.692-2.259-7.148l-.019-2.519.012-2.708-.005-2.79q-.003-2.92.01-5.84c.011-2.983 0-5.966-.012-8.948q0-2.835.007-5.672l-.012-2.708.02-2.519.004-2.213C7222 333 7222 333 7224 330c11.305-4.386 29.288-.533 41.254.07 32.646 1.63 65.275 2.133 97.958 2.119q4.435-.002 8.872 0c30.016-.002 59.943-.467 89.916-2.189q3.73-.21 7.46-.418 2.275-.127 4.548-.258c19.595-1.116 19.595-1.116 24.992 2.676 2.651 2.651 2.249 4.616 2.278 8.223l-.012 2.582.005 2.653q.003 2.781-.01 5.563c-.01 2.836 0 5.67.012 8.506q0 2.702-.007 5.403l.012 2.57-.02 2.406-.004 2.108c-.302 2.365-1.016 3.956-2.254 5.986-4.477 2.721-9.472 2.28-14.543 2.273q-2.847.03-5.693.063-4.457.034-8.913.045c-2.882.01-5.762.043-8.644.08l-2.646-.015c-8.396.132-16.447 2.565-22.561 8.554-12.408 15.273-14.94 36.71-16.477 55.691l-.367 4.36c-1.742 21.07-3.006 42.179-4.308 63.28l-.681 10.978A9323 9323 0 0 0 7406 675l-.12 2.637a10216 10216 0 0 0-.876 19.49c-1.396 31.207-2.325 62.435-3.067 93.663l-.065 2.754c-.975 41.09-1.172 82.167-1.177 123.267-.002 9.985-.018 19.971-.035 29.957q-.046 26.698-.073 53.397l-.004 3.18a116351 116351 0 0 0-.04 48.398l-.002 3.246q-.02 26.781-.071 53.564-.03 16.395-.028 32.791a8693 8693 0 0 1-.027 22.31c-.01 4.279-.015 8.558-.007 12.837q.01 5.877-.017 11.753-.006 2.118.004 4.236c.079 17.68.079 17.68-4.6 24.198-3.265 3.183-6.724 4.211-11.127 4.447-16.695-.782-30.873-8.65-42.668-20.125-2.333-2.604-4.517-5.271-6.668-8.027-2.624-3.346-5.366-6.568-8.145-9.785l-3.082-3.583-1.557-1.807q-3.778-4.394-7.548-8.798l-3-3.5-18-21-1.5-1.75-2.998-3.498q-3.766-4.396-7.537-8.787a2984 2984 0 0 1-15.82-18.57c-3.364-3.981-6.75-7.941-10.145-11.895a2930 2930 0 0 1-15.641-18.391q-3.427-4.057-6.859-8.109l-2.75-3.25-1.375-1.625-4.125-4.875-1.375-1.625-2.746-3.246q-3.47-4.103-6.95-8.2c-4.249-5.004-8.476-10.02-12.617-15.117-3.407-4.19-6.903-8.291-10.437-12.374-4.508-5.217-8.819-10.552-13.044-15.999-3.603-4.628-7.354-9.112-11.163-13.572-3.404-3.99-6.702-8.051-9.961-12.16-3.604-4.525-7.288-8.985-10.957-13.457l-4.5-5.5-2.25-2.75-15.75-19.25-2.27-2.773-4.304-5.266A5432 5432 0 0 0 7103 915.5a6606 6606 0 0 1-18.055-22.016A5559 5559 0 0 0 7071 876.5a6606 6606 0 0 1-18.055-22.016 4281 4281 0 0 0-11.905-14.501 3857 3857 0 0 1-20.427-24.995 4415 4415 0 0 0-4.894-6.02 2657 2657 0 0 1-15.969-19.78c-6.986-8.743-13.989-17.401-21.52-25.684-3.419-3.838-6.636-7.833-9.868-11.829-2.77-3.406-5.569-6.788-8.362-10.175a6015 6015 0 0 1-16-19.5l-2.09-2.55a6557 6557 0 0 1-18.22-22.37L6915.5 687l-4.875-6-4.875-6-4.864-5.987q-4.155-5.114-8.312-10.224c-5.164-6.348-10.316-12.703-15.418-19.101-2.869-3.576-5.763-7.132-8.656-10.688a1983 1983 0 0 1-12.344-15.312c-2.869-3.576-5.763-7.132-8.656-10.688a1983 1983 0 0 1-12.344-15.312c-2.869-3.576-5.763-7.132-8.656-10.688a1983 1983 0 0 1-12.344-15.312c-2.869-3.576-5.763-7.132-8.656-10.688-3.516-4.32-7.027-8.644-10.5-13a3486 3486 0 0 0-10.687-13.312l-1.659-2.069-1.603-1.982-1.417-1.76c-2.091-2.402-4.382-4.625-6.634-6.877l-14 6-1 193 25 5c6.58 1.509 13.142 3.041 19.688 4.688l2.552.638c75.013 18.882 75.013 18.882 90.698 41.611 2.618 4.607 3.765 8.796 2.617 14.133-4.068 12.298-16.11 19.063-26.995 24.793-27.1 13.593-57.281 20.949-86.685 27.7l-2.24.515c-7.514 1.72-14.939 3.296-22.635 3.922l.197 3.083a920 920 0 0 1 1.343 29.548q.158 5.174.324 10.347l.265 8.383c1.063 33.53 2.324 67.048 3.864 100.56q.198 4.335.393 8.672.308 6.797.629 13.594.117 2.494.23 4.987.156 3.399.322 6.798l.181 3.843c.276 3.674.276 3.674 1.252 7.185 2.456 1.608 2.456 1.608 5.613 2.89l1.785.794c1.966.869 3.94 1.717 5.914 2.566q2.074.91 4.146 1.826 4.43 1.952 8.868 3.883c7.173 3.126 14.317 6.32 21.465 9.503a3936 3936 0 0 0 6.835 3.031c8.494 3.761 16.954 7.583 25.374 11.507-3.341 1.114-3.819.955-6.948-.24-.795-.3-1.59-.599-2.41-.906l-2.619-1.018-2.746-1.042c-2.971-1.13-5.937-2.275-8.902-3.419l-6.106-2.332A3824 3824 0 0 1 6768 1038l.46 2.884c.66 4.643.92 9.295 1.188 13.975l.36 5.825q.277 4.52.539 9.041c2.373 42.862 2.373 42.862 24.453 78.275 14.241 11.262 31.938 10.572 49.125 10.563 3.2.003 6.4.013 9.6.04q2.964.026 5.927.007c5.429.042 9.308.35 13.348 4.39.103 1.37.138 2.746.145 4.12l.02 2.65.003 2.882.01 2.941q.007 3.086.007 6.171c.002 3.157.02 6.312.04 9.468q.005 2.992.005 5.983l.022 2.876-.01 2.659.005 2.346C6873 1207 6873 1207 6871 1209c-2.78.259-2.78.259-6.434.266l-2.052.008c-2.317.004-4.634-.01-6.952-.024l-2.504-.005c-14.434-.036-28.837-.539-43.259-1.105-25.646-.996-51.26-1.39-76.924-1.39h-2.626c-28.787.01-57.503.607-86.249 2.25l1.11 1.946c39.845 69.994 39.845 69.994 35.265 95.992-1.224 4.418-3.017 6.928-6.375 10.062-12.524 6.345-26.726 2.998-39.495-1.131-8.05-2.792-15.794-6.26-23.505-9.869l-2.635-1.226c-16.058-7.551-31.242-16.53-46.365-25.774l-2.596-1.581c-21.04-12.873-41.365-27.049-61.404-41.419l-2.24-1.6a3545 3545 0 0 1-7.01-5.025l-2.075-1.486-2.066-1.49-2.135-1.471c-2.474-1.928-2.474-1.928-4.639-4.413-7.467-7.61-14.827-8.516-25.254-8.65-5.126-.046-10.247.025-15.371.121-3.917.063-7.834.068-11.751.08-7.399.031-14.796.113-22.194.214-8.43.112-16.861.167-25.292.217-17.325.104-34.649.28-51.973.503 13.549 34.687 13.549 34.687 27.245 69.316 9.611 24.154 19.044 48.375 28.412 72.623 3.544 9.17 7.1 18.336 10.656 27.501l3.54 9.131q5.477 14.13 10.965 28.255l5.086 13.092q1.192 3.068 2.385 6.136 3.304 8.49 6.572 16.991 1.203 3.12 2.414 6.234c1.29 3.319 2.567 6.642 3.842 9.967l1.223 3.124 1.1 2.893.988 2.557c.572 2.18.572 2.18-.428 5.18-10.423-22.572-20.558-45.258-30.514-68.04a6712 6712 0 0 0-11.792-26.76 18644 18644 0 0 1-25.345-57.568q-3.915-8.924-7.845-17.839a5948 5948 0 0 1-26.172-60.332l-1.094-2.559-1.08-2.526c-5.336-12.48-10.75-24.927-16.158-37.376q-10.67-.214-21.34-.31-4.96-.046-9.918-.143c-17.64-.343-33.487 1.087-50.5 5.908-2.242.545-2.242.545-5.242.545q-.258 3.124-.5 6.25l-.281 3.516c-.626 10.622.189 20.655 1.781 31.171q.567 3.826 1.125 7.653l.508 3.37c.329 2.721.438 5.304.367 8.04-2.23-2.23-2.436-3.13-3.07-6.133l-.528-2.441-.527-2.551-.55-2.574q-.671-3.15-1.325-6.301c-1.549 1.549-1.371 3.185-1.63 5.337l-.346 2.834-.372 3.13-.821 6.699-.44 3.605c-26.759 218.536-26.759 218.536-69.391 254.395-5.069 3.492-10.023 3.83-16 3-8.897-3.681-14.64-10.944-19.562-19l-1.03-1.665c-7.13-12.18-11.876-25.733-16.283-39.085l-.774-2.336c-25.795-78.297-34.902-162.702-43.503-244.324l-.264-2.476c-.352-3.4-.584-6.692-.584-10.114l-2.027-.297c-4.51-.702-8.924-1.392-13.307-2.691-13.88-4.033-27.847-3.478-42.183-3.287-3.447.042-6.894.06-10.34.08q-10.072.066-20.143.195l-12.292 28.322c-7.257 16.715-7.257 16.715-14.497 33.436-7.836 18.124-15.765 36.206-23.712 54.281q-3.996 9.09-7.983 18.184a18562 18562 0 0 1-24.205 54.965 8236 8236 0 0 0-13.123 29.792l-1.19 2.716-1.178 2.693c-7.125 16.274-14.31 32.51-21.82 48.611-1.102-3.305-.985-3.742.193-6.82l.877-2.334.989-2.541 1.014-2.674c1.113-2.922 2.238-5.84 3.364-8.756q1.177-3.075 2.35-6.151c6.599-17.255 13.318-34.464 20.06-51.663 3.837-9.796 7.636-19.608 11.436-29.419a21858 21858 0 0 1 37.78-96.83l1.32-3.36A35979 35979 0 0 1 5945 1213c-17.96-.305-35.919-.534-53.88-.674a2524 2524 0 0 1-25.023-.307q-10.916-.197-21.833-.242a564 564 0 0 1-11.54-.151c-21.35-.78-21.35-.78-39.568 9.26a193 193 0 0 0-3.38 3.402c-3.17 3.057-6.799 5.506-10.401 8.024l-2.513 1.812A4906 4906 0 0 1 5770 1239l-2.568 1.823c-87.946 62.238-87.946 62.238-137.432 77.177l-2.375.75c-8.048 2.195-19.507 3.104-27.312-.25-4.852-3.08-7.482-7.374-8.942-12.867-7.875-54.543 52.877-123.91 82.629-165.633.526-.74 1.052-1.48 1.593-2.244 8.312-11.69 16.957-23.11 25.681-34.496 2.139-2.8 4.248-5.62 6.351-8.447 5.455-7.298 11.072-14.47 16.682-21.647q2.292-2.933 4.58-5.87c6.92-8.86 13.998-17.59 21.113-26.296l1.45-1.776A6875 6875 0 0 1 5759 1030c-1.409-3.843-3.207-7.133-5.387-10.594l-2.073-3.33-1.1-1.763c-6.653-10.696-12.876-21.544-18.627-32.75l-1.814-3.528C5719 956.375 5719 956.375 5719 953l-1.717.708c-22.344 9.2-44.823 18.058-67.3 26.93q-8.395 3.315-16.788 6.64c-16.026 6.343-32.057 12.665-48.195 18.722l.311 1.793c.73 4.945 1.086 7.968-1.936 12.207l-1.969 2.8q-1.2 1.604-2.406 3.2l-1.402 1.892c-9.75 13.133-20.058 25.845-30.66 38.295l-1.278 1.507c-9.09 10.58-18.785 20.597-28.661 30.438a2243 2243 0 0 0-5.284 5.29c-5.736 5.74-11.505 11.347-17.715 16.578l-2.922 2.563c-36.495 31.454-78.349 56.665-123.078 74.437l-2.822 1.125c-42.495 16.71-89.604 25.898-135.3 26.078l-3.656.021c-3.886.018-7.773.024-11.66.026l-2.012.002c-22.965.014-45.713-.725-68.55-3.252l-2.036-.22c-85.526-9.28-165.552-40.866-231.003-97.253-2.694-2.3-5.438-4.512-8.211-6.715-16.86-13.767-32.397-29.624-45.75-46.812l-1.333-1.703c-13.558-17.396-25.014-36.011-35.667-55.297l-1.283-2.288C4788.486 956.646 4771.698 894.17 4764 833l-.5-3.954c-10.45-86.878 3.543-178.3 40.5-261.046l1.245-2.781c12.635-28.01 28.486-55.303 47.432-79.515 2.05-2.64 4.024-5.33 6.01-8.017a324 324 0 0 1 19.977-24.105 204 204 0 0 0 3.772-4.26c4.856-5.667 10.04-10.984 15.314-16.258 1.489-1.49 2.97-2.989 4.45-4.488 6.273-6.31 12.824-12.038 19.8-17.576a727 727 0 0 0 3.871-3.23c81.466-67.846 186.867-94.166 315.129-92.77l3.859.25c33.815 2.278 67.277 7.461 100.141 15.75l3.58.897c28.56 7.264 56.71 16.608 83.42 29.103l2.755 1.273c15.475 7.165 15.475 7.165 22.608 11.098l2.037 1.123a440 440 0 0 1 5.276 3.01c3.934 1.77 7.044 2.155 11.324 2.496 2.736-4.088 4.185-8.291 5.559-12.969l1.42-4.668q1.098-3.651 2.184-7.307a1138 1138 0 0 1 2.146-7.087c.21-.724.42-1.448.638-2.194 1.33-4.333 2.818-7.566 6.053-10.775 4.144-1.678 8.902-1.184 13.313-1.187l2.513-.038c5.11-.012 9.374.42 14.174 2.225 3.776 4.657 4.081 9.879 4.39 15.688l.415 7.203c1.092 17.81 3.035 35.515 5.027 53.244q.445 3.975.885 7.949c3.84 34.67 7.975 69.302 12.283 103.916l3.61 1.395c50.487 19.52 100.86 39.317 151.095 59.48l2.658 1.065q2.74 1.101 5.473 2.224l2.729 1.113 2.44 1.004c1.955.832 1.955.832 3.995.719l1.095-2.313c10.05-21.178 20.094-42.34 33.425-61.701l1.472-2.213 1.324-1.924c.917-1.874.917-1.874-.025-3.872a58 58 0 0 0-3.943-5.375l-1.587-1.93c-.56-.676-1.12-1.351-1.699-2.047a4476 4476 0 0 1-5.346-6.518 601 601 0 0 1-7.341-9.232l-1.356-1.733-2.69-3.442q-2.642-3.375-5.297-6.741a4620 4620 0 0 1-5.528-7.042l-3.125-3.979c-8.409-10.703-16.59-21.55-24.62-32.538q-2.656-3.62-5.33-7.224c-7.053-9.52-13.996-19.107-20.78-28.821-1.814-2.59-3.638-5.174-5.462-7.757-17.097-24.3-32.866-49.449-47.064-75.553a336 336 0 0 0-3.17-5.623c-10.594-18.9-25.972-48.189-19.8-70.422 2.143-5.057 5.493-8.712 10.534-10.937 17.478-5.247 37.579 4.036 53.313 10.937l2.166.937c13.115 5.725 25.509 12.819 37.834 20.063l2.15 1.26a691 691 0 0 1 35.088 22.094q3.686 2.473 7.381 4.935c7.738 5.17 15.43 10.398 23.026 15.774l1.886 1.287c3.494 2.418 6.739 4.821 9.761 7.814 13.161 12.249 29.739 10.402 46.529 10.053 4.27-.076 8.54-.082 12.812-.097 8.061-.037 16.12-.135 24.18-.256 9.188-.135 18.375-.2 27.563-.26 18.876-.125 37.75-.336 56.624-.604l-10.885-27.2a8655 8655 0 0 1-35.998-91.43 12268 12268 0 0 0-14.15-36.394c-8.987-23-17.942-46.014-26.837-69.051a7300 7300 0 0 0-3.35-8.649 3608 3608 0 0 1-5.095-13.217q-.927-2.415-1.865-4.825c-.85-2.187-1.688-4.378-2.523-6.57l-1.427-3.705C5840 62 5840 62 5841 59c9.631 20.788 19.116 41.625 28.236 62.642 3.792 8.735 7.623 17.452 11.452 26.17l1.14 2.6c5.476 12.473 10.972 24.936 16.48 37.393 26.448 59.808 26.448 59.808 38.117 87.164q4.99 11.7 10.063 23.363l2.25 5.175q1.637 3.768 3.284 7.535 1.506 3.448 3.005 6.9l.916 2.084C5958 324.773 5958 324.773 5958 327l1.72-.051q8.856-.261 17.714-.486 3.305-.087 6.61-.187c3.168-.094 6.335-.174 9.503-.253l2.986-.097 2.79-.061 2.45-.068c2.538.231 4.086.832 6.227 2.203 1.495 2.915 2 4.708 2 8l6-2c-.182-.666-.364-1.333-.55-2.02L6010 312a912 912 0 0 1 6.75-4l1.922-1.156c3.468-2.023 5.221-2.844 9.328-2.844l8 24h7l-1-6 8-1 1-8-12 3c-3-7.625-3-7.625-3-11q2.685-1.256 5.375-2.5l3.023-1.406C6047 300 6047 300 6049 300l-.367-2.583q-.675-4.766-1.342-9.532-.29-2.059-.582-4.118-.42-2.967-.834-5.935l-.508-3.602A58 58 0 0 1 6045 266c2.437 2.437 2.59 3.881 3.29 7.227l.663 3.125.672 3.273.695 3.297q.85 4.037 1.68 8.078h1l.243-1.977c28.331-229.786 28.331-229.786 72.144-272.87 6.408-4.578 13.834-4.436 20.547-.653M5826.14 341.266c-4.05.946-8.002 1.383-12.141 1.734v3c1.995 1.695 1.995 1.695 4.5 3.188l2.531 1.605L5823 352l1-2c7.208-2.948 15.304-4.347 23-3 2.27 1.567 2.27 1.567 4.59 3.494 8.28 5.478 17.404 4.396 26.96 4.225q2.982-.015 5.964-.023c5.205-.021 10.408-.085 15.612-.157 4.25-.052 8.498-.074 12.748-.094a3132 3132 0 0 0 26.358-.22l2.432-.023c4.212-.064 8.187-.38 12.336-1.202v-1a876 876 0 0 0-43.238-2.746l-4.469-.175c-6.097-.237-12.194-.468-18.291-.68q-5.697-.202-11.392-.436a584 584 0 0 0-4.283-.151 599 599 0 0 1-5.93-.228l-3.39-.123c-3.353-.514-5.24-1.537-8.007-3.461-9.891-6.726-17.564-5.572-28.86-2.734m593.079 3.28c-5.592 4.004-12.434 3.37-19.048 3.528a1492 1492 0 0 0-4.417.166c-3.882.146-7.764.265-11.648.377-6.123.182-12.245.408-18.368.627q-2.25.08-4.501.157c-14.114.48-28.165 1.4-42.238 2.599v1c5.363.894 10.53 1.154 15.961 1.161l2.634.015q4.282.021 8.565.027l5.98.017q6.255.015 12.51.02c5.34.006 10.678.03 16.016.058 4.114.019 8.227.024 12.34.026q2.955.004 5.906.024c2.752.017 5.504.015 8.256.008l2.452.028c6.17-.045 10.187-1.556 15.005-5.572 7.126-3.826 14.663-2.112 22.125.063 4.497 1.214 4.497 1.214 8.848.023 2.03-1.51 3.76-2.974 5.402-4.898v-1l-2.781-.367c-11.242-1.535-11.242-1.535-15.469-2.758-8.804-2.054-16.576-1.697-23.53 4.671M5040 424l-2.582 2.188c-13.41 11.697-25.933 24.426-36.418 38.812l-2.43 3.238c-52.925 71.39-71.812 163.957-68.57 310.762l.287 2.328c4.57 36.632 12.24 72.571 23.713 107.672l1.01 3.116c16.625 50.773 41.65 99.588 76.99 139.884l1.742 2.043c8.382 9.779 17.132 19.414 26.86 27.867 2.547 2.22 4.997 4.528 7.46 6.84 50.676 46.036 113.704 68.455 181.75 68.5l2.788.002c74.912-.087 150.573-21.31 212.4-64.252l3.285-2.262c11.983-8.342 23.336-17.488 34.09-27.363l1.64-1.505c2.343-2.19 4.196-4.187 5.985-6.87a365 365 0 0 0-17.871 6.336l-2.51.958a8484 8484 0 0 0-8.056 3.081l-5.59 2.135q-7.103 2.714-14.205 5.431-6.546 2.504-13.092 5.004-11.84 4.524-23.676 9.055c9.97-5.104 20.065-9.799 30.313-14.312l4.63-2.05a7738 7738 0 0 1 26.24-11.54l2.806-1.23q6.775-2.97 13.555-5.928l4.972-2.174c.74-.323 1.482-.645 2.246-.977 10.797-4.565 10.797-4.565 19.363-12.351l1.36-1.659c4.762-5.894 9.196-12.056 13.568-18.242 7.616-10.619 7.616-10.619 13.412-12.217 3.963 1.063 6.254 3.695 9.097 6.555a643 643 0 0 0 3.38 3.305l1.49 1.491c1.846 1.564 3.26 2.56 5.568 3.329 2.48-.556 2.48-.556 5.09-1.84l3.23-1.435 3.618-1.663a1538 1538 0 0 1 3.908-1.744q3.292-1.462 6.577-2.936c9.797-4.394 19.654-8.648 29.506-12.916q5.096-2.208 10.19-4.422c18.24-7.919 36.51-15.763 54.798-23.57l2.995-1.28q2.758-1.178 5.517-2.353l2.46-1.051 2.126-.907c2.028-.902 4.008-1.876 5.985-2.883a318 318 0 0 0-5.2-16.414c-5.136-14.84-9.572-29.657-13.2-44.938-1.588-6.68-3.293-13.178-5.6-19.648-14.509-1.953-28.59-.977-43 1q-2.203.29-4.406.578c-3.533.462-7.063.942-10.594 1.422l23-5c-2.37-2.37-3.202-2.361-6.45-2.743l-2.835-.347-3.113-.355-6.689-.812-3.593-.427c-217.747-26-217.747-26-252.941-67.214-3.264-4.68-4.97-9.364-4.379-15.102 2.866-10.442 11.215-16.233 20.098-21.469 67.944-38.3 159.454-45.392 235.34-54.843l2.022-.253c12.191-1.518 24.385-3.012 36.603-4.296l3.93-.413q3.715-.385 7.431-.76l3.33-.342 2.934-.294c2.333-.209 2.333-.209 4.312-1.33a119 119 0 0 0 1.996-7.687l1.178-4.952.623-2.65c3.468-14.68 7.34-29.118 12.203-43.399l.718-2.112c3.679-10.768 3.679-10.768 5.423-14.906 1.034-2.354 1.034-2.354.859-5.294-15.413-6.99-30.873-13.854-46.437-20.5l-2.24-.956-8.923-3.809c-17.837-7.614-35.607-15.386-53.384-23.138l-12.403-5.406c-.804-.35-1.61-.7-2.438-1.062q-7.03-3.065-14.055-6.139a7176 7176 0 0 0-8.455-3.69q-1.964-.856-3.925-1.717a2039 2039 0 0 0-5.353-2.337l-3.025-1.322c-2.25-1.045-2.25-1.045-4.362-.924.587 9.688 1.572 19.245 2.848 28.867l.533 4.12c.65 5.026 1.309 10.05 1.969 15.075q.844 6.418 1.671 12.837.388 2.975.785 5.948c2.157 16.708 2.157 16.708-.806 21.153-3.908 1.754-8.04 2.91-12.125 4.188l-3.383 1.115c-11.5 3.655-11.5 3.655-17.492 2.697-3.866-3.388-5.348-7.893-7.062-12.625q-.92-2.433-1.844-4.863l-1.012-2.675c-13.694-35.909-30.391-69.673-52.358-101.302-1.733-2.548-3.375-5.14-5.013-7.75-8.128-12.498-16.554-18.182-30.711-22.785q3.433 1.293 6.875 2.563l1.973.748c1.697.62 3.424 1.16 5.152 1.689l2-1-1.723-1.906c-3.656-4.054-7.308-8.11-10.902-12.219l-1.7-1.941a365 365 0 0 1-3.382-3.961 94.3 94.3 0 0 0-11.082-11.075c-2.508-2.153-4.915-4.398-7.336-6.648-6.35-5.782-13.042-11.054-19.875-16.25l-1.78-1.363c-17.297-13.187-35.722-24.03-55.22-33.637l-2.141-1.058c-28.254-13.715-59.752-20.844-90.859-23.942l-2.106-.214c-4.627-.443-9.25-.661-13.894-.786-1.39-.04-1.39-.04-2.807-.083-63.69-1.601-126.401 15.027-175.193 57.083m1575.006-38.973-1.444 2.223-3.19 4.71-1.673 2.508c-2.801 4.175-5.688 8.29-8.574 12.407l-1.776 2.54c-9.507 13.565-19.457 26.794-29.522 39.949a1215 1215 0 0 0-10.553 13.981c-5.517 7.426-11.258 14.634-17.122 21.788A592 592 0 0 0 6532.5 496c-6.055 7.757-12.275 15.38-18.5 23 1.756 5.152 4.67 9.575 7.5 14.188 9.505 15.694 18.1 31.705 26.195 48.17 1.755 3.554 3.53 7.098 5.305 10.642a2908 2908 0 0 0 49.124-19.242c17.927-7.209 35.871-14.371 53.876-21.383l2.492-.97c8.621-3.357 17.25-6.693 25.883-10.018q2.212-.854 4.426-1.707 4.088-1.575 8.18-3.141l3.582-1.379 3.128-1.199c2.232-.757 2.232-.757 3.309-1.961.14-2.604.213-5.18.238-7.785l.03-2.423c.174-17.925.04-35.278-4.268-52.792l-.633-2.622c-7.245-28.947-23.16-57.426-48.867-73.69-9.41-5.51-18.692-9.784-29.5-11.688l-2.512-.527c-3.446.73-4.562 2.74-6.482 5.554M6758 499v12l4.875-1.375 2.742-.773c2.529-.712 2.529-.712 4.383-2.852a125 125 0 0 0-2.625-3.5l-1.477-1.969c-2.27-2.159-2.27-2.159-7.898-1.531m-60.863 45.375-2.443 1.078q-2.625 1.16-5.25 2.324c-4.687 2.08-9.38 4.146-14.073 6.215l-2.903 1.281a3727 3727 0 0 1-27.218 11.852l-13.659 5.894q-7.037 3.036-14.071 6.079l-2.379 1.028q-5.842 2.524-11.68 5.06c-6.724 2.917-13.452 5.822-20.216 8.647-2.834 1.185-5.664 2.38-8.494 3.577a510 510 0 0 1-3.974 1.649 514 514 0 0 0-5.418 2.27l-3.079 1.277c-2.367 1.177-2.367 1.177-3.228 3.217-.07 2.911.708 4.955 1.757 7.673l1.253 3.338c.68 1.784.68 1.784 1.376 3.604 7.166 19.398 12.633 39.272 17.016 59.484.456 2.04.993 4.062 1.546 6.078 10.356 5.178 26.415 1.23 37.313-.437q3.75-.55 7.502-1.09 2.309-.336 4.614-.685c2.891-.434 5.642-.788 8.571-.788l-27 6v1l2.21.277q10.518 1.318 21.034 2.645 5.4.682 10.803 1.358 6.268.785 12.535 1.58l2.084.263a1234 1234 0 0 1 33.07 4.67c1.035.16 2.069.318 3.134.481l2.724.426c2.663.382 2.663.382 6.406.3V541c-3.527 0-6.68 1.956-9.863 3.375m.274 300.248-2.858.418-3.135.463q-3.405.495-6.809.986l-3.662.53a2165 2165 0 0 1-70.51 8.98l-2.099.233Q6595.672 857.637 6583 859c-1.795 5.2-3.42 10.353-4.656 15.719l-.894 3.777-.468 1.976c-3.986 16.752-9.19 32.967-14.872 49.212-1.144 3.418-2.145 6.844-3.11 10.316 9.373 4.914 19 9.1 28.737 13.23 3.723 1.579 7.443 3.167 11.163 4.754q2.87 1.226 5.74 2.448c9.029 3.849 18.041 7.732 27.047 11.63l2.244.971a9319 9319 0 0 1 29.293 12.733q6.37 2.779 12.738 5.564c8.315 3.635 16.647 7.213 25.038 10.67 1.073-11.59 1.405-23.188 1.754-34.816l.197-6.422q.207-6.738.406-13.478.201-6.763.416-13.527c.95-29.928 1.44-59.813 1.227-89.757-2.644 0-4.982.238-7.59.623M6553 953l-1.31 2.744c-18.454 38.594-18.454 38.594-28.702 54.526l-2.119 3.312a503 503 0 0 1-4.22 6.451l-1.915 2.96-1.743 2.635c-1.259 2.3-1.259 2.3-.341 4.459 1.348 1.91 2.716 3.74 4.221 5.53l1.723 2.067 1.843 2.191a836 836 0 0 1 17.232 21.419c1.825 2.34 3.662 4.669 5.499 6.998a1740 1740 0 0 1 15.327 19.742q1.644 2.148 3.291 4.291c8.722 11.356 17.289 22.799 25.615 34.447a1270 1270 0 0 0 5.013 6.927l1.724 2.373q1.596 2.197 3.199 4.39l1.495 2.061 1.58 2.093c1.588 2.384 1.588 2.384 3.022 5.557 1.864 3.729 3.38 6.113 6.566 8.827 5.775 1.813 11.968 1.387 17.944 1.125 2.852-.124 5.695-.164 8.55-.187 13.416-.23 24.59-1.834 34.944-11.126 6.44-7.068 11.082-13.87 14.562-22.812l1.242-3.156c12.874-35.504 12.526-74.605 13.758-111.844l-3.387-1.3c-21.196-8.142-42.355-16.369-63.433-24.81l-2.306-.923q-11.376-4.555-22.745-9.132c-18.63-7.5-37.32-14.798-56.129-21.835m-722 239v1h123l1-3c-24.03-.672-48.061-1.296-72.098-1.68-4.453-.072-8.905-.152-13.357-.25q-6.64-.143-13.28-.236-2.49-.04-4.976-.102c-2.29-.056-4.578-.086-6.867-.11l-3.92-.072c-4.12.53-6.292 1.87-9.502 4.45m589.532-3.924a14701 14701 0 0 0-11.869.167 26313 26313 0 0 0-15.778.228c-25.632.372-51.259.85-76.885 1.529l1 3h123c-4.233-5.295-4.233-5.295-8.428-5.324-3.69.241-7.34.374-11.04.4"/><path fill="#FFF" d="M1989.78 330.07c44.911 1.8 89.826 2.133 134.768 2.118h6.47c46.352.008 92.66-.425 138.982-2.188l3.697-.14q6.927-.263 13.854-.536c24.471-.97 24.471-.97 31.449 2.676 2.563 3.844 2.288 7.009 2.266 11.465l.005 2.514q.003 2.632-.01 5.263c-.01 2.682 0 5.363.012 8.045q0 2.558-.007 5.115l.012 2.428c-.033 3.927-.11 6.856-2.278 10.17-6.644 4.068-15.103 3.425-22.582 3.406l-5.918.05c-3.437.028-6.875.035-10.313.044-4.095.01-8.191.025-12.287.06q-3.811.033-7.623.025c-11.68.1-22.98 1.828-32.277 9.415-12.095 13.372-12.176 32.916-12.996 49.918l-.12 2.375c-1.287 25.547-1.975 51.123-2.753 76.69q-.225 7.375-.456 14.751l-.066 2.1-.066 2.096A22619 22619 0 0 0 2210 589l-.091 3.117a2718 2718 0 0 0-1.15 76.48c-.005 4.699-.03 9.397-.057 14.096-.019 3.685-.024 7.37-.026 11.056a883 883 0 0 1-.024 5.208 731 731 0 0 0-.008 7.188l-.028 2.109c.041 4.906.732 8.591 3.384 12.746 8.23 3.842 16.682 3.415 25.573 3.367l5.074.01c4.633.009 9.266-.001 13.899-.014 5.002-.011 10.004-.005 15.006 0 9.795.005 19.589-.005 29.383-.02 11.41-.018 22.819-.02 34.228-.02q30.541-.005 61.083-.042a59518 59518 0 0 1 70.282-.043h3.663l3.653-.001q28.245-.007 56.49-.028l20.46-.01q16.231-.006 32.463-.027 7.415-.011 14.829-.012 6.794-.002 13.586-.016 2.453-.003 4.904-.002c16.889.85 16.889.85 32.424-4.142 3.204-6.55 3.438-12.342 3.398-19.55l.013-3.586q.006-5.014-.025-10.028-.015-3.261-.022-6.521c-.176-68.462-2.41-136.99-4.835-205.405q-.135-3.83-.267-7.661c-.511-14.649-1.06-29.288-2.242-43.901l-.228-2.836c-1.036-11.668-2.916-24.34-10.792-33.512-5.826-4.836-10.916-6.111-18.402-6.174l-3.934-.04-2.096-.016q-3.261-.026-6.522-.065-9.27-.105-18.54-.182-5.676-.049-11.354-.12a845 845 0 0 0-4.311-.037 910 910 0 0 1-6.051-.063l-3.47-.031c-3.72-.305-6.832-.93-10.32-2.272-1.973-2.6-2.253-4.852-2.275-8.063l-.029-2.386.003-2.551-.013-2.645q-.008-2.763-.002-5.527c.003-2.818-.02-5.635-.045-8.453q-.004-2.687-.002-5.375l-.028-2.55c.027-3.5.058-5.826 1.726-8.95 9.213-8.301 41.397-1.86 52.997-1.43 41.319 1.517 82.618 2.134 123.965 2.119q5.545-.002 11.092 0c40.238-.002 80.404-.603 120.611-2.189l10.84-.421 6.615-.261c24.752-.976 24.752-.976 31.545 1.682 3.07 2.919 3.94 4.552 4.502 8.793q.028 2.198-.006 4.394l.005 2.365a424 424 0 0 1-.034 4.931 449 449 0 0 0-.008 7.525q-.01 2.402-.025 4.804l.008 2.261c-.08 4.477-.705 7.353-3.442 10.927-6.366 4.547-16.604 3.15-23.984 3.176q-3.855.035-7.711.072c-4.027.036-8.053.066-12.08.078-3.903.015-7.806.056-11.71.1l-3.605-.006c-9.789.142-19.202 1.886-26.484 8.908-7.332 8.597-8.456 20.876-8.975 31.76l-.121 2.452c-.552 12.166-.672 24.345-.835 36.52q-.046 3.404-.094 6.804c-.156 11.11-.296 22.22-.43 33.33l-.1 8.239c-.93 76.222-1.066 152.442-1.059 228.67v15.247c-.012 66.583.194 133.157.978 199.737.214 18.145.345 36.29.444 54.437l.063 10.696c.065 11.06.13 22.122.18 33.183q.042 9.548.106 19.094.034 4.917.05 9.832c-1.3 37.157-1.3 37.157 14.144 69.48 8.407 6.894 19.04 9.286 29.7 9.349l3.832.03 2.025.011q3.16.02 6.32.053c5.984.062 11.97.116 17.955.15 3.67.02 7.34.056 11.01.1q2.092.021 4.183.026c1.95.005 3.9.03 5.85.055l3.357.025c3.398.445 5.257 1.353 7.991 3.392 2.484 3.726 2.306 6.643 2.3 10.957l.014 2.365q.008 2.478.002 4.956c-.003 2.515.02 5.03.045 7.544q.004 2.412.002 4.823l.028 2.263c-.042 4.771-.815 8.065-3.391 12.092-10.96 7.307-39.29 2.03-52.159 1.547-40.143-1.5-80.234-1.862-120.402-1.804q-8.808.01-17.617-.004c-42.293-.059-84.511.49-126.78 1.919-15.781.52-31.567.727-47.355.9l-2.16.062c-3.572-.036-5.475-.586-8.47-2.57-2.838-4.208-2.745-7.433-2.65-12.402v-2.714q.007-2.832.051-5.663a514 514 0 0 0 .034-8.677q.015-2.754.04-5.508v-2.623l.048-2.438.026-2.141c.516-2.465 1.437-3.34 3.394-4.884 3.519-1.173 6.697-1.152 10.358-1.158l2.263-.015q2.433-.016 4.866-.026 3.86-.019 7.72-.053c7.318-.062 14.636-.116 21.954-.15 4.477-.02 8.954-.056 13.432-.1q2.55-.021 5.102-.026c9.769-.02 18.307-.064 27.055-5.035 10.896-11.804 10.77-29.77 11.375-44.91l.238-5.312c.76-17.332 1.223-34.67 1.582-52.015q.085-4.062.174-8.124c1.612-74.649 2.97-149.346 3.185-224.013q.013-3.34.037-6.68c.026-3.955.027-7.909.022-11.863l.028-3.36c-.033-5.455-.228-9.486-3.391-14.16-1.96-1.505-1.96-1.505-4.25-2.313l-2.203-.925c-5.528-1.653-11.08-1.888-16.818-1.893l-2.124-.007q-3.514-.006-7.027-.002l-5.097-.01q-6.997-.01-13.993-.01c-5.032-.002-10.065-.01-15.097-.016q-16.5-.02-33-.024l-20.604-.012q-28.524-.019-57.05-.026h-7.382l-11.129-.003q-29.807-.008-59.614-.045-30.605-.035-61.208-.037-17.182.001-34.366-.025-14.627-.023-29.255-.012-7.462.008-14.926-.011-6.833-.019-13.667 0a762 762 0 0 1-4.94-.01c-11.943-.091-11.943-.091-23.25 3.381-3.311 5.09-3.428 9.978-3.372 15.852l-.011 2.634c-.008 2.903.006 5.806.02 8.71q0 3.133-.004 6.267c-.002 5.693.017 11.385.04 17.078q.021 5.397.03 10.796c.106 55.766 1.06 111.517 2.226 167.27l.21 10.071q.443 21.318.923 42.634l.062 2.723c.548 24.386.548 24.386 1.333 48.766l.092 2.808c.5 12.227 2.67 24.25 11.451 33.391 9.185 8.018 21.419 8.44 33.023 8.441q2.99.03 5.979.062c2.758.025 5.517.038 8.276.05q7.28.031 14.56.101 3.865.038 7.73.044l3.531.03 3.096.014c4.105.378 6.88 1.333 9.805 4.258.225 3.038.328 5.983.336 9.023l.02 2.72q.015 2.853.015 5.705c.004 2.909.04 5.816.078 8.724q.009 2.77.012 5.539l.043 2.636c-.045 6.046-.045 6.046-2.408 9.171-11.237 7.944-40.708 2.546-54.098 2.035l-3.467-.132-3.573-.136c-37.392-1.42-74.757-1.596-112.172-1.542q-8.781.01-17.562-.004c-41.33-.058-82.577.462-123.882 1.93-48.534 1.672-48.534 1.672-54.342-2.669-1.705-3.41-1.185-7.305-1.203-11.059l-.017-2.727q-.014-2.858-.02-5.717c-.01-2.92-.041-5.838-.073-8.757q-.009-2.774-.015-5.549l-.038-2.651.01-2.467-.011-2.17c.486-2.521 1.334-3.364 3.367-4.903 3.618-1.415 7.45-1.139 11.288-1.158l2.204-.015q2.366-.016 4.73-.026 3.754-.02 7.507-.053a5422 5422 0 0 1 21.341-.15c4.356-.02 8.71-.056 13.066-.1q2.48-.021 4.96-.026c11.381-.024 21.384-.114 30.119-8.398 8.705-10.114 10.75-24.744 11.083-37.61l.058-2.166q.092-3.515.173-7.03l.126-4.992c.396-16.053.65-32.107.85-48.163l.094-7.442c.167-13.098.318-26.197.463-39.296l.034-2.991c.913-82.044 1.154-164.086 1.154-246.134v-2.245c0-74.776-.125-149.548-1.188-224.318l-.033-2.328A9142 9142 0 0 0 2049 466l-.063-3.07q-.17-8.317-.367-16.633-.057-2.364-.11-4.728c-.4-28.466-.4-28.466-13.366-52.917-7.368-5.814-15.682-7.752-24.869-7.826l-2.002-.02q-2.143-.021-4.286-.036-3.4-.026-6.8-.065-9.664-.105-19.328-.182-5.922-.049-11.844-.12a921 921 0 0 0-4.493-.037c-18.428-.107-18.428-.107-23.41-3.804-2.549-3.748-2.24-7.776-2.265-12.117l-.017-2.238a1311 1311 0 0 1-.02-4.685c-.01-2.381-.041-4.762-.073-7.143l-.015-4.559-.038-2.147c.025-5.378 1.46-8.352 4.803-12.423 9.536-7.628 37.984-1.64 49.343-1.18M3713 418l3.025 2.511c8.68 7.274 16.802 15.004 24.781 23.035 2.015 2.025 4.04 4.04 6.067 6.054 7.172 7.164 13.855 14.427 20.127 22.4q1.383 1.636 2.793 3.25C3829.189 543.463 3862.531 633.42 3873 736l.286 3.53c3.855 53.426-.21 107.72-14.286 159.47l-.866 3.208c-16.303 59.586-45.74 112.437-85.134 159.792l-1.499 1.804c-11.161 13.368-23.154 25.923-35.439 38.258l-2.365 2.38A263 263 0 0 1 3719 1118q-1.624 1.425-3.246 2.852c-64.341 56.131-143.774 88.664-228.004 99.398l-3.577.458c-22.43 2.675-44.844 3.674-67.423 3.604l-3.766-.005c-18.853-.046-37.299-.644-55.984-3.307l-3.778-.504c-64.783-8.722-126.896-29.228-185.222-58.496l-3.213-1.61c-22.04-11.116-42.763-23.599-61.787-39.39l-2.918-2.355c-8.064-6.62-15.505-13.854-22.894-21.207l-1.479-1.463c-6.7-6.645-12.828-13.594-18.709-20.975a294 294 0 0 0-2.61-3.066c-63.204-73.7-96.298-175.263-99.109-326.329 7.564-97.558 46.933-189.459 127.453-291.093a208 208 0 0 0 3.704-4.195c4.767-5.562 9.861-10.77 15.05-15.935q2.17-2.165 4.33-4.337c5.224-5.228 10.55-10.26 16.182-15.045l2.957-2.598c25.804-22.274 54.703-40.07 85.043-55.402l2.273-1.153C3297.786 312.878 3402.338 306.33 3713 418m-356-47-2.2.375c-46.883 8.196-86.986 34.018-120.8 66.625l-1.774 1.708c-7.617 7.372-14.73 14.895-21.226 23.292l-2.418 3.043c-6.328 8.015-12.092 16.349-17.582 24.957l-1.12 1.755c-7.37 11.67-13.653 23.937-19.88 36.245l-1.235 2.42c-31.934 63.05-46.023 137.243-45.952 207.518l.001 3.352c.073 49.484 5.491 98.58 17.186 146.71l.772 3.183c6.864 27.82 16.508 54.686 28.228 80.817l1.146 2.585c13.959 31.287 32.916 60.168 54.854 86.415l2.531 3.098c11.333 13.702 23.922 27.082 38 37.988 2.745 2.128 5.343 4.392 7.969 6.664 12.467 10.397 26.343 19.328 40.5 27.25l2.465 1.386c57.853 32.176 121.159 38.742 184.804 20.687 13.335-4.008 26.223-8.957 38.731-15.073l2.125-1.034c15.353-7.561 29.836-16.866 42.875-27.966q1.608-1.333 3.219-2.664c12.425-10.364 23.876-21.511 33.781-34.336l3.05-3.863c10.936-13.952 20.426-28.595 28.875-44.172a360 360 0 0 1 3.177-5.656c37.574-66.941 52.098-149.901 35.252-376.406-8.555-30.393-19.736-59.908-34.33-87.928a725 725 0 0 1-3.282-6.432c-16.595-32.494-38.18-61.667-62.742-88.543l-2.77-3.086c-7.014-7.772-14.394-14.974-22.23-21.914l-1.68-1.496C3508.293 387.927 3434.07 357.526 3357 371M533 291c9.217 6.174 12.074 18.398 15.16 28.516l1.746 5.568q.934 2.993 1.86 5.988c2.288 7.385 4.62 14.755 6.949 22.127l.752 2.385c6.38 20.216 13.009 40.35 19.658 60.479l.92 2.788a30624 30624 0 0 0 14.884 44.95c16.441 49.663 16.441 49.663 33.259 99.199 10.634 30.876 20.685 61.954 30.812 93l.703 2.154c8.534 26.17 17.032 52.348 24.922 78.721 11.59 38.718 24.296 77.074 37.058 115.418l2.762 8.308c8.159 24.542 16.545 48.996 25.104 73.4 2.333 6.654 4.64 13.315 6.931 19.983 30.092 113.546 30.092 113.546 103.594 197.52 10.995 4.814 21.54 6.936 33.516 6.902l3.477.033c4.857.046 9.714.057 14.57.072 3.568.016 7.135.049 10.703.083l3.32-.01 3.098.031 2.71.006c3.126.468 5.006 1.499 7.532 3.379 1.182 3.547 1.18 6.79 1.203 10.484l.017 2.224q.014 2.33.02 4.66c.01 2.36.04 4.718.072 7.077q.01 2.27.016 4.54l.038 2.115c-.026 5.814-1.086 10.526-5.205 14.815-11.813 5.932-36.41 1.107-49.305.626-41.637-1.538-83.227-1.855-124.89-1.798q-9.293.01-18.585-.004c-41.823-.055-83.564.358-125.36 1.919-49.28 1.794-49.28 1.794-53.909-2.068-3.544-4.346-3.287-7.79-3.315-13.211l-.017-2.593q-.014-2.717-.02-5.435c-.01-2.774-.041-5.548-.072-8.322q-.01-2.637-.016-5.275l-.038-2.52c.023-5.802.023-5.802 1.7-7.915 2.923-2.315 5.64-2.448 9.222-2.477l2.794-.03 3.021-.023 6.37-.086c3.336-.04 6.673-.078 10.01-.104 21.14.341 21.14.341 40.249-7.599 6.09-6.42 6.996-13.437 7-22-.328-2.768-.705-5.47-1.18-8.21l-.406-2.374c-1.623-9.08-3.937-17.956-6.351-26.853l-.761-2.831c-8.107-30.097-17.233-59.914-26.302-89.732l-.647-2.129c-8.05-26.462-16.172-52.902-24.54-79.266l-1.269-3.998q-2.978-9.39-5.986-18.77l-2.128-6.677-.97-2.996-.898-2.828-.773-2.407c-1.147-4.257-1.924-8.606-2.789-12.929l-285 1-18 53-6.625 19.25c-39.988 102.457-39.988 102.457-51.312 199.5 6.325 10.301 17.135 14.904 28.502 17.637 5.56.993 11.075 1.037 16.713 1.024 2.141-.005 4.282.01 6.423.028 5.307.043 10.615.054 15.923.066q6.767.017 13.535.075c2.098.013 4.195.01 6.293.005 6.573.051 11.775.117 17.548 3.415q.111 8.621.165 17.242.022 2.933.061 5.864c.037 2.812.054 5.624.067 8.437.015.871.03 1.742.047 2.64.001 4.759-.204 7.97-3.34 11.817-13.382 6.69-42.7.834-57.283.285-32.971-1.243-65.91-1.601-98.904-1.542q-7.103.01-14.207-.004c-32.069-.055-64.053.362-96.088 1.925C8.924 1210.12 8.924 1210.12 4 1209c-4.18-3.844-3.919-9.084-4.145-14.437-.02-3.175-.04-6.35-.04-9.524-.002-2.034-.02-4.068-.04-6.101L-.23 1175l-.013-3.562c.266-3.76.941-6.901 2.243-10.438 3.22-2.147 4.09-2.253 7.8-2.271l2.957-.031 3.2-.007 6.752-.076q5.305-.042 10.61-.071c25.597-.164 46.55-3.522 66.013-21.716 25.544-27.077 37.64-63.145 51.49-96.954q1.776-4.335 3.56-8.666c13.145-31.962 25.96-64.05 38.618-96.208l2.628-6.672c10.575-26.856 21.07-53.74 31.369-80.703q1.59-4.16 3.184-8.317a4899 4899 0 0 0 28.992-77.591c4.553-12.51 9.14-25.006 13.827-37.467l.863-2.293q1.863-4.954 3.73-9.907c5.27-13.99 10.516-27.987 15.765-41.984l2.68-7.147a23436 23436 0 0 0 22.57-60.396 20854 20854 0 0 1 20.831-55.696 42081 42081 0 0 0 28.25-75.448c9.502-23.877 9.502-23.877 16.623-48.504l.471-2.047c3.353-14.323 3.353-14.323-.783-27.828q-1.275-1.755-2.562-3.5c-3.67-5.067-4.733-9.303-4.215-15.473 1.216-3.17 3.238-4.801 5.777-7.027 3.32-1.463 3.32-1.463 7.125-2.656l4.285-1.388 2.266-.717c39.35-12.517 88.69-32.132 117.668-62.602 5.451-5.387 10.702-9.432 18.656-8.637M426 460c-4.963 7.965-7.644 17.153-10.641 25.979a2684 2684 0 0 1-4.953 14.384l-1.071 3.095c-4.174 12.018-8.533 23.967-12.897 35.917l-5.118 14.023-1.31 3.588a10804 10804 0 0 0-14.495 40.064l-5.591 15.517-1.368 3.796q-6.009 16.67-12.04 33.333c-13.752 37.992-27.489 75.99-41.107 114.03l-2.517 7.02a7730 7730 0 0 0-3.51 9.805l-.988 2.75c-3.983 11.174-7.64 22.437-11.394 33.699h255l-13-42c-6.225-20.248-6.225-20.248-9.006-29.35l-.645-2.11-.662-2.165-.689-2.256c-10.072-32.956-19.984-65.959-29.865-98.972-6.324-21.13-12.658-42.259-18.994-63.386q-2.677-8.926-5.352-17.854c-3.628-12.108-7.26-24.214-10.905-36.318a7068 7068 0 0 1-5.835-19.496q-1.903-6.376-3.82-12.749-.894-2.978-1.776-5.96C447.48 468.526 447.48 468.526 439 455c-5.84-.786-9.313.479-13 5M1498 291c9.195 5.63 11.89 16.977 14.875 26.75l1.038 3.318q1.052 3.366 2.095 6.734c1.432 4.615 2.898 9.22 4.367 13.823l.858 2.697c19.4 60.955 39.596 121.663 60.15 182.237l2.86 8.43.708 2.09c14.351 42.314 28.489 84.71 42.185 127.24q1.39 4.309 2.782 8.616c7.027 21.737 13.969 43.491 20.52 65.378 18.935 63.17 39.902 125.863 61.876 188.04 2.329 6.603 4.612 13.22 6.885 19.842 27.583 95.219 27.583 95.219 74.801 180.805l1.582 2.047c12.023 15.107 31.467 25.878 50.418 28.953 4.1.281 8.188.3 12.297.309l7.09.076q5.542.044 11.086.071c3.587.022 7.174.061 10.761.103h3.35l3.126.04 2.737.016c3.399.513 6.108 1.94 8.553 4.385.138 2.741.213 5.456.238 8.2l.025 2.508q.02 2.637.032 5.273c.017 2.678.061 5.355.105 8.033q.015 2.56.026 5.123l.053 2.415c-.02 5.278-.968 8.271-4.479 12.448-10.493 6.995-36.867 2.003-49.083 1.547-41.806-1.547-83.564-1.86-125.396-1.804q-9.357.01-18.713-.004c-41.986-.055-83.888.358-125.847 1.925-47.678 1.73-47.678 1.73-52.773-1.38-4.46-4.655-4.496-9.306-4.489-15.507l-.013-2.37a809 809 0 0 1-.002-4.945c.003-2.52-.02-5.038-.045-7.558q-.004-2.408-.002-4.814l-.028-2.276c.028-3.173.19-5.448 1.726-8.257 2.837-2.653 5.613-2.686 9.313-2.715l2.855-.03 3.087-.023 6.506-.086c3.41-.04 6.819-.078 10.228-.104 3.298-.028 6.594-.074 9.89-.122l3.033-.01c11.285-.193 21.399-1.991 29.503-10.28 5.38-7.622 5.282-16.662 3.867-25.605a367 367 0 0 0-1.668-8.332l-.666-3.169c-2.752-12.7-6.312-25.161-9.908-37.643l-1.107-3.874c-15.734-55.09-32.748-109.81-49.952-164.455l-1.141-3.629a10638 10638 0 0 0-5.402-17.124l-1.906-6.043-.887-2.791-.797-2.534-.697-2.202C1530 869 1530 869 1530 867h-285l-3 11a500 500 0 0 1-3.195 9.598l-.922 2.698a3976 3976 0 0 1-1.974 5.756q-1.592 4.639-3.177 9.28-3.361 9.836-6.732 19.668c-15.12 44.14-29.944 88.367-43.75 132.938l-.99 3.176c-3.487 11.211-6.76 22.448-9.627 33.835l-.748 2.963c-1.965 7.99-3.281 15.877-3.885 24.088l-.215 2.879c-.278 7.282 1.316 13.186 5.277 19.309 7.68 8.274 20.846 13.447 31.998 13.95l3.455.02 3.935.03 2.088.011q3.255.02 6.51.053a4078 4078 0 0 0 18.5.15c3.78.02 7.56.056 11.339.1q2.15.021 4.303.026c14.147.035 14.147.035 19.81 3.472 1.554 3.109 1.184 6.41 1.203 9.824l.017 2.363q.014 2.48.02 4.96c.01 2.513.04 5.026.072 7.539q.01 2.412.016 4.826l.038 2.257c-.025 5.884-1.046 10.91-5.366 15.231-15.695 1.643-32.404.138-48.136-.453l-3.512-.132-3.61-.136c-33.13-1.243-66.222-1.595-99.374-1.536q-7.168.01-14.335-.004c-32.213-.055-64.348.344-96.528 1.919-31.357 1.508-31.357 1.508-35.505.342-3.743-4.177-3.467-8.751-3.469-14.062l-.023-2.634q-.015-2.748-.009-5.496c.001-2.8-.04-5.595-.085-8.394a1805 1805 0 0 1-.008-5.351l-.05-2.526c.048-3.983.38-6.104 2.488-9.568 4.685-2.923 8.82-2.621 14.238-2.535l3.294-.017c3.48-.017 6.957-.001 10.437.02 26.19.128 46.957-2.034 67.187-20.437l1.848-1.602c6.375-5.878 11.266-13.286 16.152-20.398l1.18-1.717c8.394-12.477 13.968-26.497 19.82-40.283l.821-1.932c17.608-41.473 34.428-83.297 50.889-125.237a12935 12935 0 0 1 6.297-16.001c10.785-27.37 21.514-54.757 32.004-82.241a8499 8499 0 0 1 3.161-8.26 4901 4901 0 0 0 29-77.612c4.554-12.51 9.14-25.006 13.828-37.467l.866-2.301 3.74-9.936c5.206-13.817 10.388-27.643 15.572-41.468l2.659-7.087a30061 30061 0 0 0 24.482-65.499c7.18-19.276 14.392-38.539 21.62-57.797 12.324-32.84 12.324-32.84 24.61-65.696q1.173-3.143 2.349-6.283c3.725-9.96 7.411-19.931 10.965-29.953l.854-2.38c4.11-11.7 9.881-28.807 5.517-40.987-1.085-2.08-1.085-2.08-3.234-4.863-3.05-4.532-5.127-7.797-5.375-13.312l-.148-2.239c.77-3.609 2.882-5.987 5.523-8.449 3.2-1.516 3.2-1.516 6.828-2.605l1.992-.623q2.11-.659 4.229-1.295c3.762-1.136 7.5-2.35 11.236-3.567l2.273-.738c10.844-3.566 21.157-8.243 31.442-13.172l1.78-.85c25.353-12.133 51.223-24.801 71.962-44.103 10.914-9.894 10.914-9.894 18.258-9.047m-106 168c-5.453 8.84-8.577 18.812-11.888 28.588-1.627 4.795-3.283 9.58-4.936 14.365l-1.041 3.02c-3.65 10.567-7.444 21.081-11.26 31.59l-1.05 2.895q-2.737 7.542-5.478 15.082c-3.843 10.575-7.67 21.156-11.5 31.736l-5.393 14.9c-21.226 58.62-42.45 117.241-63.427 175.95q-1.502 4.203-3.008 8.405a5878 5878 0 0 0-4.416 12.375 2096 2096 0 0 1-1.564 4.377q-1.047 2.923-2.082 5.85l-1.157 3.246c-.946 2.643-.946 2.643-.8 5.621h254c-1.995-7.313-4.049-14.557-6.309-21.785l-1.978-6.368-1.056-3.39q-2.897-9.32-5.778-18.644l-.612-1.978A7992 7992 0 0 1 1488 721.437l-.6-1.982c-8.438-27.856-16.794-55.737-25.155-83.617l-4.225-14.084-5.336-17.793-1.077-3.588q-6.58-21.944-13.151-43.892-4.307-14.384-8.623-28.765-2.552-8.5-5.093-17.003-2.368-7.923-4.749-15.841-.865-2.884-1.726-5.77c-4.318-18.714-4.318-18.714-14.265-34.102-4.927-.857-8.626.349-12 4M4376 291c4.893 3.4 7.325 6.72 9.55 12.27l.89 2.127c2.797 6.861 4.992 13.876 7.07 20.982 1.243 4.237 2.529 8.462 3.814 12.687l.858 2.822c3.918 12.806 8.128 25.518 12.318 38.237l1.295 3.934q2.637 8.007 5.277 16.012a7777 7777 0 0 1 8.748 26.702c9.927 30.452 20.072 60.823 30.341 91.16 16.6 49.04 33.113 98.115 48.979 147.398q1.393 4.32 2.79 8.639c6.802 21.036 13.555 42.077 19.82 63.28 18.575 62.762 39.666 124.972 61.427 186.694 2.454 6.973 4.86 13.962 7.257 20.954 13.518 39.42 27.515 78.658 42.252 117.64q.974 2.577 1.943 5.155c3.438 9.137 7.094 18.142 11.086 27.053l1.116 2.496c11.52 25.345 29.872 45.84 55.83 56.653 9.394 3.11 18.037 4.539 27.929 4.511l3.477.033c4.857.046 9.714.057 14.57.072 3.568.016 7.135.049 10.703.083l3.32-.01 3.098.031 2.71.006c3.1.464 4.997 1.563 7.532 3.379 1.527 3.054 1.184 6.253 1.203 9.605l.017 2.296q.014 2.41.02 4.819c.01 2.44.04 4.88.073 7.321q.009 2.344.015 4.69l.038 2.19c-.026 5.897-1.024 10.64-5.205 14.994-11.813 5.932-36.41 1.107-49.305.626-41.637-1.538-83.227-1.855-124.89-1.798q-9.292.01-18.585-.004c-41.823-.055-83.564.358-125.36 1.919-49.28 1.794-49.28 1.794-53.909-2.068-3.544-4.346-3.287-7.79-3.315-13.211l-.017-2.593q-.014-2.717-.02-5.435c-.01-2.774-.041-5.548-.073-8.322q-.009-2.637-.015-5.275l-.038-2.52c.023-5.802.023-5.802 1.7-7.915 2.923-2.315 5.64-2.448 9.222-2.477l2.794-.03 3.021-.023 6.37-.086c3.336-.04 6.673-.078 10.01-.104 22.857.49 22.857.49 42.499-9.724 7.34-12.058 4.711-26.259 1.535-39.316a841 841 0 0 0-1.785-6.934l-.644-2.522c-6.705-26.239-14.577-52.167-22.356-78.103l-1.042-3.48c-9.168-30.608-18.6-61.134-28.083-91.645l-.75-2.412q-2.501-8.049-5.008-16.096l-.68-2.186a2230 2230 0 0 0-6.67-21.137l-1.009-3.132q-.904-2.804-1.823-5.603l-.786-2.43-.679-2.072C4408 870 4408 870 4408 867l-285 1-22 65-7.25 21.125c-40.694 91.67-40.694 91.67-46.687 185.563 5.63 9.278 15.056 14.148 25.309 16.931 6.65 1.599 13.088 1.807 19.906 1.792 2.141-.005 4.282.01 6.423.028 5.307.043 10.615.054 15.923.066q6.767.017 13.535.075c2.098.013 4.195.01 6.293.005 6.573.051 11.775.117 17.548 3.415q.185 8.834.275 17.67.038 3.005.102 6.008c.061 2.883.09 5.764.111 8.646l.078 2.706c.002 4.366-.153 6.386-2.735 10.04-10.619 7.24-37.45 1.93-49.9 1.459-35.534-1.33-71.007-1.85-106.563-1.786q-7.168.01-14.335-.004c-32.214-.055-64.347.352-96.528 1.925-33.93 1.62-33.93 1.62-37.271-1.103-1.893-3.93-1.682-7.69-1.668-11.998l-.015-2.78q-.01-2.904.003-5.81c.008-2.963-.02-5.924-.052-8.887q-.003-2.825.002-5.649l-.034-2.683c.04-3.601.185-6.095 1.87-9.312 4.38-2.374 8.815-1.984 13.715-1.946l3.312-.028c3.503-.03 7.005-.032 10.508-.03 27.395-.03 48.747-2.271 69.633-21.856 7.434-7.702 13.538-16.319 19.18-25.395l1.257-2.003c8.283-13.726 14.174-28.917 20.305-43.684l2.356-5.655A7616 7616 0 0 0 3993 1042l1.182-2.859C4016.12 986.035 4037.218 932.57 4058 879l1.177-3.034a6224 6224 0 0 0 42.1-111.634l1.063-2.904 1.068-2.916 2.154-5.887 1.09-2.976c7.102-19.392 14.38-38.717 21.679-58.036q13.003-34.423 25.794-68.926 3.255-8.779 6.512-17.558l.807-2.176a13247 13247 0 0 1 17.493-46.828l.73-1.945q3.69-9.832 7.384-19.665 7.91-21.06 15.81-42.124l6.976-18.59q3.089-8.235 6.167-16.475a1821 1821 0 0 1 4.22-11.167c3.22-8.486 6.003-16.778 7.713-25.721l.627-2.956c2.055-10.219 2.759-17.84-3.064-26.787-3.404-5.383-5.608-9.242-5.5-15.695 1.245-4.314 2.368-5.634 6.266-7.89 5.948-2.844 12.273-4.63 18.547-6.61 14.885-4.804 29.058-10.779 43.187-17.5l2.92-1.378c35.256-16.513 35.256-16.513 65.275-40.767 5.601-5.758 11.4-10.844 19.805-9.855m-107.898 170.385c-3.115 4.854-4.732 10.413-6.602 15.83l-1.97 5.603q-1.048 2.99-2.089 5.982c-2.21 6.349-4.446 12.688-6.68 19.029l-2.294 6.522c-4.728 13.438-9.58 26.83-14.467 40.212l-4.926 13.503-1.243 3.408c-5.04 13.83-10.03 27.678-15.019 41.526l-1.406 3.902-.7 1.943-4.133 11.47c-4.086 11.34-8.184 22.676-12.286 34.009A30685 30685 0 0 0 4167 740l-1.295 3.607q-4.046 11.27-8.081 22.543l-2.578 7.194q-1.814 5.055-3.62 10.113l-1.043 2.902c-3.626 10.164-6.968 20.395-10.383 30.641h255l-13-42a18527 18527 0 0 1-13.183-43.32 43470 43470 0 0 1-40.568-134.495l-5.228-17.422a20519 20519 0 0 1-16.461-55.051 20200 20200 0 0 0-4.334-14.552 4838 4838 0 0 1-3.343-11.26c-4.967-24.04-4.967-24.04-16.883-43.9-6.206-.965-10.089 1.6-13.898 6.385"/><path fill="#0F3043" d="m6333.858 326.853 2.198-.011q3.675-.015 7.35-.019l5.247-.02q7.147-.025 14.293-.036 4.46-.007 8.92-.018 13.942-.029 27.883-.041 16.12-.015 32.237-.077a7704 7704 0 0 1 24.885-.048c4.959-.002 9.918-.011 14.878-.036q6.995-.035 13.99-.018 2.573 0 5.144-.02c2.336-.017 4.67-.01 7.005.003l3.966-.007c3.146.495 3.146.495 5.07 2.296 1.632 3.335 1.444 6.617 1.369 10.246l-.013 2.337c-.017 2.456-.054 4.91-.093 7.366q-.022 2.502-.04 5.004-.052 6.123-.147 12.246c-14.893 2.625-31.352 1.975-44.938-5.313-2.744-1.988-3.09-2.762-4.375-6.125.42-4.775 2.172-6.045 5.313-9.562l-3.438-.586-4.562-.789-2.254-.383c-3.708-.645-7.35-1.368-10.992-2.324-7.542-1.844-13.831-1.706-20.754 2.082l-2.756 2.544c-5.65 4.046-12.784 3.395-19.459 3.565q-2.248.084-4.496.174c-3.94.151-7.881.275-11.823.393-3.959.122-7.916.268-11.874.414-4.48.164-8.959.327-13.439.468-16.277-.104-16.277-.104-32.153 2.442q17.446.106 34.893.155c5.4.016 10.801.037 16.202.071 5.213.033 10.426.05 15.64.059q2.98.008 5.963.032c2.787.022 5.573.025 8.36.024l2.484.032c6.21-.033 10.232-1.518 15.083-5.56 8.494-4.562 18.629-1.418 27.375 1.187l.262 1.977c.92 5.718 2.001 10.3 6.738 14.023 14.771 9.486 32.121 9.534 49 8v28c-18.318.16-36.556-.43-54.851-1.212q-6.064-.255-12.128-.504-11.433-.474-22.866-.956a52529 52529 0 0 0-41.072-1.714q-7.193-.299-14.384-.602l-13.038-.548q-2.817-.12-5.634-.236l-3.18-.134A198 198 0 0 0 6333 395c36.183 5.92 72.746 8.115 109.312 10.187l2.278.13c15.957.903 31.915 1.786 47.89 2.332l2.673.098 2.27.076c3.54.243 7.057.737 10.577 1.177v25c-7.28 1.456-13.104 2.388-20.313 2.437l-2.626.1c-4.5.038-6.435-.056-10.104-2.877C6473 431 6473 431 6472 428c-5.112-2.087-9.653-2.578-15-1l-3.063 2.125c-3.866 2.468-5.48 1.609-9.937.875-9.291-.334-18.592 0-27.875.437l-2.612.12-2.443.127-2.163.11c-2.128.161-2.128.161-4.907 1.206l3.608.212c4.422.265 8.842.554 13.262.85q2.868.187 5.738.355c2.752.161 5.501.346 8.251.536l2.59.136c3.848.288 5.948.45 9.075 2.836 1.48 2.08 2.117 3.562 2.476 6.075h2l.562-2.125c1.942-3.882 4.675-6.68 8.438-8.875 2.508-.41 2.508-.41 5 0 1.879 1.68 1.879 1.68 3.562 3.875 3 3.865 5.122 5.72 10.004 6.574 10.109.804 19.006.1 29.434-.449v53l-23 2c-7.621.807-7.621.807-15 4l38 1v18l-4.26.152q-7.926.287-15.851.593-3.411.129-6.822.25c-12.458.443-24.756.952-37.067 3.005 14.024 1.807 28.001 2.582 42.125 3.125l6.402.262c5.158.212 10.315.412 15.473.613v25c-20.233 5.058-51.012 9.508-70.367-1.559-2.95-2.603-4.953-5.862-6.992-9.199-1.857-2.537-2.726-3.15-5.641-4.242-2.425-.208-4.86-.309-7.293-.344l-2.138-.044c-2.252-.046-4.504-.08-6.757-.112-21.092-.297-21.092-.297-28.28-3.652-2.7-3.258-2.766-7.42-3.31-11.487-.531-3.9-.531-3.9-3.003-6.763L6372 515l-2.305-.828c-3.84-.245-6.528 1.31-9.82 3.078l-2.096 1.093A502 502 0 0 0 6351 522l-2.343 1.27c-24.505 13.379-46.26 30.851-63.657 52.73l-2.629 3.219C6249.43 619.845 6230.54 669.509 6219 720c3.713-2.121 6.975-4.52 10.312-7.188 24.472-18.398 54.972-22.08 84.794-18.145 29.956 5.092 57.635 23.724 75.206 48.27A257 257 0 0 1 6394 750l2.113 3.258c19.746 32.437 23.765 72.414 14.89 108.941-9.81 37.603-32.532 71.502-66.003 91.801-15.23 8.826-31.723 14.746-49 18l-2.848.54c-8.737 1.507-17.37 1.86-26.215 1.835l-2.187-.002c-34.137-.117-63.18-12.713-87.75-36.373l-1.918-1.727c-31.355-29.045-42.784-78.29-45.082-119.273-2.048-54.292 8.117-105.4 33-154l1.158-2.269c9.433-18.247 21.115-35.622 33.842-51.731l1.895-2.438c7.84-9.964 15.989-19.708 25.09-28.546 1.97-1.971 3.776-4.015 5.577-6.141 2.895-3.375 6.026-6.232 9.415-9.102 2.051-1.798 3.938-3.689 5.835-5.648 4.224-4.264 8.755-8.035 13.46-11.756a740 740 0 0 0 3.707-2.957c10.607-8.508 21.446-16.278 33.021-23.412l2.493-1.54A2164 2164 0 0 1 6314 508l-2.203-.629c-6.875-2.107-12.665-4.8-18.715-8.687-7.26-3.966-14.475-5.217-22.645-5.872l-5.05-.434-2.51-.216L6261 492c6.123-16.524 12.48-32.942 19-49.313q1.378-3.466 2.755-6.934 2.093-5.273 4.19-10.543c4.071-10.245 8.124-20.497 12.172-30.75 17.112-43.332 17.112-43.332 23.445-58.46l1.016-2.434c2.796-6.62 3.084-6.69 10.28-6.713"/><path fill="#F46D7A" d="M5840 59c3.205 3.76 4.995 8.055 6.992 12.523l1.158 2.56a3096 3096 0 0 1 3.725 8.292l2.604 5.783a2370 2370 0 0 1 15.537 35.305c4.654 10.814 9.406 21.584 14.172 32.35l4.914 11.105 1.237 2.796c6.134 13.871 12.221 27.764 18.312 41.655q3.915 8.922 7.845 17.838a5590 5590 0 0 1 25.277 58.24c4.472 10.472 8.969 20.93 13.588 31.339l1.084 2.464.923 2.078C5958 325 5958 325 5958 327l1.72-.051q8.856-.261 17.714-.486 3.305-.087 6.61-.187c3.168-.094 6.335-.174 9.503-.253l2.986-.097 2.79-.061 2.45-.068c2.605.237 4.077.705 6.227 2.203 1.095 2.012 1.095 2.012 1.944 4.53l.997 2.882 1.043 3.162 1.13 3.305c1.226 3.598 2.43 7.203 3.636 10.808q1.27 3.75 2.547 7.498a4996 4996 0 0 1 5.189 15.35 5607 5607 0 0 0 8.025 23.642q2.521 7.38 5.023 14.767c2.856 8.432 5.73 16.856 8.716 25.243l1.459 4.125q1.3 3.673 2.639 7.333l1.125 3.175.976 2.696c.638 2.875.433 4.688-.449 7.484-1.969 1.625-1.969 1.625-4.5 3l-2.75 1.543q-2.52 1.337-5.062 2.633c-10.251 5.326-17.415 12.558-22.688 22.824l-3.332-.29c-14.753-1.161-25.12.183-37.691 8.653-5.962 3.806-12.151 4.91-19.063 5.942-5.991 1.027-9.861 3.102-13.914 7.695-1.464 2.685-1.464 2.685-2 5l-1.906.043c-6.394.356-11.623 1.09-16.094 5.957-2.389 3.86-4.273 7.96-6.14 12.09-3.253 7.1-7.313 13.18-14.868 16.055-5.853 1.558-11.992.9-17.986.689-5.47-.109-9.297.02-14.006 3.166-7.103 6.938-8.336 15.62-9.735 25.152-1.214 7.432-4.417 12.848-10.312 17.504-12.942 8.905-29.743 8.803-44.853 8.625a838 838 0 0 0-7.989-.047c-10.074-.046-20.07-.411-30.111-1.234v-12q3.188.216 6.375.438c1.183.08 2.367.162 3.586.246 2.958.215 5.9.512 8.848.832 5.296.536 10.557.738 15.878.797l2.721.087c6.054.058 9.804-.561 14.592-4.4 1.68-3.298 1.68-3.298 2.563-7 1.177-4.326 1.795-6.451 5.234-9.39 3.212-1.614 5.333-2.181 8.89-2.36l2.825-.172c1.828-.057 3.658-.078 5.488-.078-6.734-2.245-12.67-3.317-19.312-.312-5.55 3.11-6.99 7.777-8.942 13.542C5815 591 5815 591 5813 593c-7.521 1.65-14.855.534-22.437-.312l-3.854-.397c-6.775-.727-13-1.8-19.709-3.291v-28l6.813.938c20.426 2.584 49.3 5.978 67.297-6.219 2.254-2.05 3.262-4.16 4.695-6.84 2.305-3.365 3.432-4.671 7.41-5.754 3.886-.264 7.71-.263 11.597-.125q3.948.043 7.895.063l3.781.03c7.823-.207 15.922-1.463 21.617-7.222 2.985-4.523 2.74-9.175 3.11-14.473.785-3.398.785-3.398 3.144-5.285A87 87 0 0 1 5913 513c-1.397.06-2.793.15-4.187.25l-2.356.14c-3.367.836-5.043 2.126-7.457 4.61-1.057 3.108-1.057 3.108-1.5 6.5-.592 3.795-.96 5.894-3.531 8.781-9.324 5.398-21.109 4.056-31.56 4.024-2.267-.002-4.533.026-6.8.058l-2.09-.03c-3.81.077-5.394.564-8.373 3.015-2.222 2.641-2.222 2.641-4.083 5.715-4.671 6.652-11.427 8.414-19.063 9.937-17.566 2.714-36.724 2.22-54-2-1-1-1-1-1.114-3.408l.016-3.158.01-3.409.025-3.587.014-3.6q.018-4.419.049-8.838l3.937-.168q7.364-.315 14.728-.632l6.324-.27c13.01-.554 26.012-1.167 39.011-1.93v-2c-31.994-1.631-31.994-1.631-64-3v-18h39v-2c-12.96-2.807-25.726-4.115-39-5v-53l22 1c8.689-.694 8.689-.694 15-5l1.938-2.687C5808 433 5808 433 5811.375 431.875c3.931.136 5.448.944 8.27 3.645A82 82 0 0 1 5825 442l1.313-2.937C5828 436 5828 436 5831 435a78 78 0 0 1 4.012-.389l2.427-.182 2.604-.183 2.678-.197q4.233-.31 8.467-.611l5.74-.42q7.035-.515 14.072-1.018c-2.616-.872-4.373-1.178-7.07-1.316l-2.443-.128-2.612-.118-2.69-.127c-11.106-.485-22.15-.856-33.185.689v-2c-6.115-2.505-10.51-3.622-17-2-2.966 1.932-4.862 3.822-7.035 6.613-4.202 3.383-7.483 3.022-12.715 2.825l-2.594-.018c-5.989-.114-10.554-1.064-16.656-2.42v-25c4.397-.628 8.4-1.146 12.781-1.325l3.34-.144 3.594-.144 5.792-.25q3.085-.134 6.172-.265c71.947-2.885 71.947-2.885 143.321-11.872q-10.97.367-21.937.75l-3.567.124c-18.35.643-36.694 1.375-55.039 2.15l-6.485.272q-14.613.613-29.224 1.246-6.201.269-12.402.528-2.88.123-5.762.25c-13.541.6-27.028.75-40.584.68v-28l12.063.25c13.3.098 26.953-.77 37.937-9.25 2.324-2.691 3.73-4.795 4.512-8.277.58-2.541 1.13-4.49 2.488-6.723 3.522-1.979 7.021-2.513 11-3l3.004-.41c5.864-.42 9.036.127 13.573 3.906 8.329 5.51 17.577 4.373 27.185 4.188q3.003-.02 6.006-.03c5.237-.027 10.472-.096 15.708-.173 5.356-.072 10.712-.104 16.069-.14A4520 4520 0 0 0 5948 353c-3.722-1-7.23-1.266-11.086-1.465l-2.162-.113q-2.335-.122-4.67-.237a2674 2674 0 0 1-7.463-.384c-9.728-.503-19.458-.917-29.193-1.27l-9.408-.356c-3.048-.111-6.097-.207-9.146-.302q-2.83-.105-5.657-.213l-2.606-.066c-4.702-.197-7.73-.681-11.609-3.594-6.681-4.543-11.026-5.616-19-5-3.23.629-6.402 1.398-9.594 2.2-5.415 1.272-10.9 2.034-16.406 2.8l2.5 2.063c2.5 2.937 2.5 2.937 3.188 6.437-.716 3.64-1.5 5.193-4.512 7.371-9.428 4.892-19.78 6.305-30.239 6.254l-2.392.012-2.33-.004-2.09-.004c-2.44-.148-4.74-.605-7.125-1.129q-.111-7.608-.165-15.216a822 822 0 0 0-.061-5.177 798 798 0 0 1-.067-7.439c-.015-.772-.03-1.544-.047-2.34-.002-5.294-.002-5.294 1.428-7.53 2.906-1.972 5.355-1.684 8.84-1.697l2.15-.02c2.38-.019 4.762-.016 7.143-.013l5.115-.031c4.634-.028 9.268-.037 13.902-.043 4.84-.01 9.681-.036 14.522-.06 9.169-.044 18.338-.072 27.507-.095 10.438-.027 20.875-.071 31.313-.117 21.473-.093 42.947-.164 64.42-.222l-10.885-27.2a8655 8655 0 0 1-35.998-91.43 12268 12268 0 0 0-14.15-36.394c-23.701-60.655-23.701-60.655-35.227-90.917q-.92-2.413-1.845-4.825-1.256-3.283-2.5-6.57l-1.411-3.705C5840 62 5840 62 5840 59"/><path fill="#F36774" d="m6333.858 326.853 2.198-.011q3.675-.015 7.35-.019l5.247-.02q7.147-.025 14.293-.036 4.46-.007 8.92-.018 13.942-.029 27.883-.041 16.12-.015 32.237-.077a7704 7704 0 0 1 24.885-.048c4.959-.002 9.918-.011 14.878-.036q6.995-.035 13.99-.018 2.573 0 5.144-.02c2.336-.017 4.67-.01 7.005.003l3.966-.007c3.146.495 3.146.495 5.07 2.296 1.632 3.335 1.444 6.617 1.369 10.246l-.013 2.337c-.017 2.456-.054 4.91-.093 7.366q-.022 2.502-.04 5.004-.052 6.123-.147 12.246c-14.893 2.625-31.352 1.975-44.938-5.313-2.744-1.988-3.09-2.762-4.375-6.125.42-4.775 2.172-6.045 5.313-9.562l-3.438-.586-4.562-.789-2.254-.383c-3.708-.645-7.35-1.368-10.992-2.324-7.542-1.844-13.831-1.706-20.754 2.082l-2.756 2.544c-5.65 4.046-12.784 3.395-19.459 3.565q-2.248.084-4.496.174c-3.94.151-7.881.275-11.823.393-3.959.122-7.916.268-11.874.414-4.48.164-8.959.327-13.439.468-16.277-.104-16.277-.104-32.153 2.442q17.446.106 34.893.155c5.4.016 10.801.037 16.202.071 5.213.033 10.426.05 15.64.059q2.98.008 5.963.032c2.787.022 5.573.025 8.36.024l2.484.032c6.21-.033 10.232-1.518 15.083-5.56 8.494-4.562 18.629-1.418 27.375 1.187l.262 1.977c.92 5.718 2.001 10.3 6.738 14.023 14.771 9.486 32.121 9.534 49 8v28c-18.318.16-36.556-.43-54.851-1.212q-6.064-.255-12.128-.504-11.433-.474-22.866-.956a52529 52529 0 0 0-41.072-1.714q-7.193-.299-14.384-.602l-13.038-.548q-2.817-.12-5.634-.236l-3.18-.134A198 198 0 0 0 6333 395c36.183 5.92 72.746 8.115 109.312 10.187l2.278.13c15.957.903 31.915 1.786 47.89 2.332l2.673.098 2.27.076c3.54.243 7.057.737 10.577 1.177v25c-7.28 1.456-13.104 2.388-20.313 2.437l-2.626.1c-4.5.038-6.435-.056-10.104-2.877C6473 431 6473 431 6472 428c-5.112-2.087-9.653-2.578-15-1l-3.063 2.125c-3.866 2.468-5.48 1.609-9.937.875-9.291-.334-18.592 0-27.875.437l-2.612.12-2.443.127-2.163.11c-2.128.161-2.128.161-4.907 1.206l3.608.212c4.422.265 8.842.554 13.262.85q2.868.187 5.738.355c2.752.161 5.501.346 8.251.536l2.59.136c3.848.288 5.948.45 9.075 2.836 1.48 2.08 2.117 3.562 2.476 6.075h2l.562-2.125c1.942-3.882 4.675-6.68 8.438-8.875 2.508-.41 2.508-.41 5 0 1.879 1.68 1.879 1.68 3.562 3.875 3 3.865 5.122 5.72 10.004 6.574 10.109.804 19.006.1 29.434-.449v53l-23 2c-7.621.807-7.621.807-15 4l38 1v18l-4.26.152q-7.926.287-15.851.593-3.411.129-6.822.25c-12.458.443-24.756.952-37.067 3.005 14.024 1.807 28.001 2.582 42.125 3.125l6.402.262c5.158.212 10.315.412 15.473.613v25c-20.233 5.058-51.012 9.508-70.367-1.559-2.95-2.603-4.953-5.862-6.992-9.199-1.857-2.537-2.726-3.15-5.641-4.242-2.425-.208-4.86-.309-7.293-.344l-2.138-.044c-2.252-.046-4.504-.08-6.757-.112-21.092-.297-21.092-.297-28.28-3.652-2.7-3.258-2.766-7.42-3.31-11.487-.32-2.24-.32-2.24-1.222-5.361-1.867-1.45-1.867-1.45-4-2-1.351-.976-2.69-1.97-4-3l1.5-2.063c1.841-3.605 1.864-5.932 1.5-9.937-.864-2.663-1.407-3.645-3.809-5.082-11.261-4.717-26.373 2.595-36.98 6.85-2.653 1.09-5.214 2.234-7.73 3.61-4.397 2.401-7.208 2.884-12.169 1.872-6.167-1.857-11.369-4.915-16.792-8.313-7.264-4.244-14.804-5.461-23.083-6.125l-5.05-.434-2.51-.216L6261 492c6.123-16.524 12.48-32.942 19-49.313q1.378-3.466 2.755-6.934 2.093-5.273 4.19-10.543c4.071-10.245 8.124-20.497 12.172-30.75 17.112-43.332 17.112-43.332 23.445-58.46l1.016-2.434c2.796-6.62 3.084-6.69 10.28-6.713"/><path fill="#0F3144" d="M6018 681c4.2 3.461 8.104 7.203 12 11l1.984 1.762c12.043 10.965 20.37 28.094 21.27 44.234 1.343 36.904-19.1 68.59-43.231 94.724-6.355 6.817-12.88 13.29-20.023 19.28l-1.624 1.363c-20.503 17.126-42.572 32.075-65.462 45.828a267 267 0 0 0-7.596 4.922L5911 907q22.324.247 44.648.363c6.912.036 13.824.085 20.735.165 6.679.078 13.357.118 20.036.136q3.81.02 7.618.076c18.81.27 30.773-1.05 44.744-14.568L6051 891a404 404 0 0 1 3.875-3.25c8.386-7.317 15.813-15.912 22.309-24.922C6079 861 6079 861 6081.39 859.988c3.716.017 5.152 1.549 7.922 3.95l2.675 2.277L6094 868c-.608 4.392-2.318 7.902-4.395 11.758q-1.066 2.02-2.128 4.043l-1.132 2.135c-15.41 29.146-28.82 59.246-37.17 91.22-.243.897-.486 1.795-.738 2.719l-.566 2.242c-1.18 2.55-2.438 3.5-4.871 4.883-2.473.398-2.473.398-5.062.375l-2.598.023c-2.34-.398-2.34-.398-4.09-1.52-2.314-3.478-2.125-7.68-2.527-11.75-.869-3.76-1.656-4.82-4.723-7.128a47 47 0 0 0-7.736-.499l-2.376-.016c-2.63-.013-5.258.002-7.888.017q-2.826-.006-5.652-.017a2245 2245 0 0 0-12.176-.001c-6.416.015-12.832.001-19.248-.016-12.462-.031-24.923-.033-37.385-.03-15.86 0-31.718-.01-47.577-.05q-9.57-.02-19.138-.002c-3.968.005-7.935-.003-11.903-.013q-2.76-.004-5.523.008c-2.512.01-5.023.003-7.535-.01l-2.211.024c-4.388-.046-7.15-.718-10.652-3.395-2.715-4.06-2.74-8.283-2-13 4.2-10.41 14.51-17.32 23.078-23.937 4.273-3.313 8.444-6.743 12.61-10.188l2.196-1.816 4.21-3.484c2.542-2.1 5.098-4.181 7.656-6.263 4.516-3.687 8.967-7.446 13.408-11.222a586 586 0 0 1 10.53-8.715c4.455-3.627 8.744-7.402 12.992-11.27a336 336 0 0 1 6.132-5.418c5.848-5.098 11.527-10.383 17.188-15.687l2.074-1.941c4.258-4.119 7.972-8.633 11.672-13.254a203 203 0 0 1 4.29-5.172c18.225-21.524 24.47-47.142 23.207-74.91-.836-9.38-5.609-17.37-11.243-24.723l-1.398-1.895c-6.802-8.623-17.909-14.808-28.602-17.105-22.221-1.902-39.465 4.417-56.51 18.699-10.423 9.104-17.586 20.815-22.287 33.742-1.35 2.87-2.785 4.524-5.203 6.559-4.92 1.64-9.87 1.601-15 1-3.25-2.062-3.25-2.062-5-5-.387-5.268.482-9.865 2-14.875l.671-2.224c6.272-19.869 17.492-36.532 31.329-51.901l1.98-2.234c37.691-40.182 106.793-49.813 151.02-15.766"/><path fill="#F6949D" d="M6375 928c1.758 3.134 2.515 5.987 3.148 9.516l.61 3.297.617 3.437c2.924 16.235 7.045 31.762 12.313 47.375l.796 2.374c6.669 19.816 14.22 38.761 24.516 57.001l1.156 2.05c7.495 13.147 15.891 25.277 26.313 36.27a190 190 0 0 1 6.218 6.93c3.093 3.58 6.413 6.89 9.81 10.184C6462 1108 6462 1108 6462 1109l-18.262.402-2.848.063a59540 59540 0 0 1-50.442 1.092 9592 9592 0 0 0-31.923.72c-28.74.71-57.474.825-86.221.845l-9.184.011c-23.726.028-47.41-.174-71.12-1.133v-1h9l-6.738-41.63-.368-2.275q-1.45-8.957-2.895-17.915-1.066-6.606-2.145-13.208c-1.549-9.522-3.025-19.04-4.28-28.605-1.775-13.468-4.114-26.842-6.416-40.228q-.878-5.12-1.75-10.24-1.698-9.951-3.408-19.899c3.572.765 4.932 1.69 7.375 4.438 18.522 19.21 46.523 31.385 73.1 32.739 17.58.295 34.359.173 51.525-4.177l2.308-.567c26.746-6.73 48.629-20.626 67.692-40.433"/><path fill="#FEFEFE" d="M6145.934 15.5c16.857 12.237 25.175 36.587 31.441 55.75l.7 2.121c5.48 16.665 9.93 33.553 13.925 50.629l.505 2.148c9.948 42.551 16.393 85.922 22.057 129.227l.516 3.928c3.367 25.84 3.367 25.84 3.922 37.697l-2.687-1.375c-21.395-10.495-49.813-7.092-73.021-7.016-5.293.017-10.585.007-15.878-.01-4.154-.012-8.308-.008-12.461 0q-2.924.004-5.846-.008c-13.467-.038-26.465 1.085-39.777 3.14-2.463.284-4.853.314-7.33.269v2l-13 6q-.86-6.057-1.709-12.115-.29-2.059-.582-4.118-.42-2.967-.834-5.935l-.508-3.602A58 58 0 0 1 6045 266c2.437 2.437 2.59 3.881 3.29 7.227l.663 3.125.672 3.273.695 3.297q.85 4.037 1.68 8.078h1l.243-1.977c28.331-229.786 28.331-229.786 72.144-272.87 6.408-4.578 13.834-4.436 20.547-.653"/><path fill="#F6949D" d="M5890 966q26.078-.177 52.155-.26c8.073-.025 16.145-.06 24.217-.117q10.553-.076 21.107-.093c3.726-.007 7.45-.022 11.176-.059 4.16-.04 8.317-.04 12.477-.039l3.742-.054c8.319.05 8.319.05 12.372 2.922 2.218 3.414 2.751 6.542 3.066 10.513l.221 2.1c.175 1.693.324 3.39.467 5.087 1.915.108 3.833.186 5.75.25l3.234.14c3.091-.146 3.091-.146 5.328-2.14 1.7-2.266 2.388-3.751 2.938-6.5l.75-3.75h1l.288 2.604c3.838 34.67 3.838 34.67 15.087 67.521 2.34 4.97 4.143 10.044 5.875 15.25l.783 2.344c2.142 6.551 3.127 12.508 3.283 19.426l.063 2.332q.096 3.668.184 7.335l.13 4.99c.108 4.066.207 8.132.307 12.198-13.155 1.167-26.272 1.135-39.469 1.114h-7.336q-7.855 0-15.71-.008-11.355-.011-22.712-.012-18.43-.004-36.862-.019-17.889-.014-35.778-.02h-2.233l-11.09-.005q-45.906-.016-91.81-.05l2.883-3.374 1.622-1.899c1.593-1.84 3.238-3.609 4.94-5.348 13.682-14.159 24.797-29.286 34.555-46.379l1.37-2.392c8.44-14.924 14.655-30.565 20.63-46.608 1.82-4.786 1.82-4.786 2.563-6.733 2.451-6.842 4.379-13.711 6.101-20.767l.687-2.781q.828-3.36 1.649-6.719"/><path fill="#F25967" d="m6145.811 1115.849 2.263.14c12.687.746 25.367 1.201 38.07 1.511l2.559.064q9.149.225 18.297.436l2.349.055a3984 3984 0 0 0 36.135.67c27.708.403 55.378.156 83.082-.452 7.67-.168 15.34-.31 23.012-.44q6.52-.115 13.04-.235l3.236-.06c13.336-.251 26.638-.719 39.957-1.431 61.91-3.294 61.91-3.294 76.743 8.978 6.274 5.85 10.88 12.598 15.21 19.944 2.137 3.409 4.645 6.514 7.166 9.643l1.372 1.707c.429.533.857 1.067 1.3 1.616C6526 1178.536 6526 1178.536 6526 1186c-4.363 1.056-8.652 1.201-13.117 1.281l-2.45.055q-4.047.087-8.093.164-2.907.06-5.813.123-6.165.13-12.33.252-7.556.15-15.112.312c-11.676.249-23.352.472-35.028.684q-7.118.129-14.234.27c-52.34 1.017-104.676.982-157.024.931q-17.853-.015-35.706-.022-36.547-.015-73.093-.05l-1.44-6.27c-.402-1.745-.402-1.745-.81-3.526a235 235 0 0 0-2.504-9.766l-.9-3.223-.909-3.215-.92-3.309c-1.528-5.652-1.528-5.652-3.602-11.112-1.143-3.22-1.174-5.926-1.18-9.34l-.008-3.89.012-2.006c.011-2.035 0-4.068-.012-6.103l.007-3.877.007-3.553c.286-3.103.72-4.682 4.07-4.961"/><path fill="#F57D88" d="m6099.383 287.839 2.666-.015q4.323-.021 8.646-.027l3.024-.009a7926 7926 0 0 1 15.878-.028q6.49-.007 12.98-.041c59.593-.308 59.593-.308 74.095 7.086l2.002 1.013c.685.35 1.37.698 2.076 1.057 5.687 2.872 11.392 5.614 17.25 8.125-.502 3.73-1.042 7.361-2 11q-2.657-.717-5.312-1.438l-2.989-.808A121 121 0 0 1 6222 312l-1 7 1.863.367 2.45.508 2.425.492C6230 321 6230 321 6233 323c-2.225 8.545-4.845 16.938-7.578 25.332l-1.345 4.154q-1.791 5.526-3.587 11.048l-3.718 11.46Q6212.392 388.5 6208 402l-.646 1.986q-5.815 17.881-11.65 35.756l-.752 2.301q-1.955 5.985-3.952 11.957c-13.27 1.076-13.27 1.076-17.168-1.348a76 76 0 0 1-3.086-3.699c-4.063-4.545-10.764-7.8-16.746-8.953-4.597-.246-9.194-.27-13.797-.295a369 369 0 0 1-4.494-.062c-11.254-.223-21.726.362-30.771 7.92l-2.16 1.753c-1.988 1.758-1.988 1.758-3.778 4.684a62 62 0 0 1-7.625.187l-2.14-.04c-1.746-.036-3.49-.09-5.235-.147l-2.027-6.082-.666-1.998q-1.925-5.775-3.848-11.548-4.25-12.768-8.528-25.528c-6.984-20.826-13.951-41.657-20.632-62.583q-.855-2.678-1.716-5.354-1.176-3.668-2.337-7.34l-.698-2.165c-1.047-3.342-1.548-5.854-1.548-9.402l8-1 1-8-12 3c-3-7.625-3-7.625-3-11 3.956-1.84 7.915-3.67 11.875-5.5l3.418-1.59 3.262-1.504 3.015-1.396C6060 294 6060 294 6062 294v-2q4.187-.724 8.375-1.438l2.348-.408c8.88-1.504 17.654-2.303 26.66-2.315"/><path fill="#F25967" d="M5850.197 1115.966c30.386-.324 60.775-.397 91.162-.463l8.104-.018 2.033-.005c10.977-.026 21.953-.083 32.93-.151q17.036-.104 34.074-.122c6.343-.008 12.686-.029 19.03-.083q8.893-.073 17.786-.047 3.26 0 6.519-.044a427 427 0 0 1 8.887-.002l2.606-.068c3.649.075 5.799.195 8.493 2.794 1.518 2.023 2.845 4.096 4.179 6.243a110 110 0 0 0 4.68 4.664c15.364 14.67 27.779 29.325 28.418 51.766l-.036 3.445-.027 3.492L6119 1190c-200.51.398-200.51.398-272.5-.938l-3.602-.066q-19.124-.353-38.247-.797-8.913-.207-17.827-.39-5.906-.124-11.813-.253-2.754-.06-5.507-.114-3.753-.076-7.506-.163l-2.203-.04c-4.018-.098-7.849-.477-11.795-1.239 1.456-5.131 3.73-9.228 6.562-13.688l1.353-2.14c3.93-6.117 8.322-11.678 13.085-17.172q1.354-1.626 2.703-3.258a282 282 0 0 1 17.234-18.867l1.9-1.901A117 117 0 0 1 5801 1120l1.155-1.579c2.906-2.238 6.086-1.895 9.612-1.92l2.421-.05a971 971 0 0 1 8.065-.115l5.79-.099c7.384-.12 14.77-.192 22.154-.271"/><path fill="#FDF2F3" d="m6272.875 726.688 3.105-.05c13.567-.008 26.055 4.882 36.051 14.202 7.552 8.285 12.762 17.814 16.969 28.16l.926 2.219c2.838 7.568 3.898 15.815 5.074 23.781l.301 2.001c.967 7.366.9 14.77.886 22.187l-.003 2.182c-.127 38.188-1.279 81.951-28.868 111.407-11.077 10.63-25.427 14.647-40.447 14.589-12.977-.29-24.183-5.687-33.556-14.553-14.85-15.687-20.723-37.135-24-57.938l-.643-3.879c-1.818-11.207-2.824-22.207-2.908-33.558l-.025-3.247a2621 2621 0 0 1-.032-6.767 850 850 0 0 0-.062-6.805c-.351-27.005 3.495-55.027 23.123-75.412L6231 743l1.86-1.926c11.079-10.677 25.055-14.433 40.015-14.386"/><path fill="#F6909A" d="M5840 59c3.205 3.76 4.995 8.055 6.992 12.523l1.158 2.56a3096 3096 0 0 1 3.725 8.292l2.604 5.783a2370 2370 0 0 1 15.537 35.305c4.654 10.814 9.406 21.584 14.172 32.35l4.914 11.105 1.237 2.796c6.134 13.871 12.221 27.764 18.312 41.655q3.915 8.922 7.845 17.838a5590 5590 0 0 1 25.277 58.24c4.472 10.472 8.969 20.93 13.588 31.339l1.084 2.464.923 2.078C5958 325 5958 325 5958 327l1.72-.051q8.856-.261 17.714-.486 3.305-.087 6.61-.187c3.168-.094 6.335-.174 9.503-.253l2.986-.097 2.79-.061 2.45-.068c2.605.237 4.077.705 6.227 2.203 1.095 2.012 1.095 2.012 1.944 4.53l.997 2.882 1.043 3.162 1.13 3.305c1.226 3.598 2.43 7.203 3.636 10.808q1.27 3.75 2.547 7.498a4996 4996 0 0 1 5.189 15.35 5607 5607 0 0 0 8.025 23.642q2.521 7.38 5.023 14.767c2.856 8.432 5.73 16.856 8.716 25.243l1.459 4.125q1.3 3.673 2.639 7.333l1.125 3.175.976 2.696c.638 2.875.433 4.688-.449 7.484-1.969 1.625-1.969 1.625-4.5 3l-2.75 1.543q-2.52 1.337-5.062 2.633c-10.251 5.326-17.415 12.558-22.688 22.824l-10-1 2-2-1.275-3.217q-3.051-7.704-6.1-15.408l-1.144-2.89a11137 11137 0 0 1-17.793-45.298c-6.379-16.329-12.814-32.633-19.366-48.894q-1.463-3.644-2.91-7.293l-.815-2.05q-.78-1.965-1.555-3.93A442 442 0 0 0 5956 357l-.793-2.152c-1.05-2.042-1.05-2.042-3.26-2.463l-2.588-.163-2.982-.212-3.295-.17-3.47-.222c-17.184-1.046-34.405-1.62-51.61-2.22q-5.697-.201-11.392-.435a584 584 0 0 0-4.283-.151 599 599 0 0 1-5.93-.228l-3.39-.123c-3.353-.514-5.24-1.537-8.007-3.461-6.681-4.543-11.026-5.616-19-5-3.23.629-6.402 1.398-9.594 2.2-5.415 1.272-10.9 2.034-16.406 2.8l2.5 2.063c2.5 2.937 2.5 2.937 3.188 6.437-.716 3.64-1.5 5.193-4.512 7.371-9.428 4.892-19.78 6.305-30.239 6.254l-2.392.012-2.33-.004-2.09-.004c-2.44-.148-4.74-.605-7.125-1.129q-.111-7.608-.165-15.216a822 822 0 0 0-.061-5.177 798 798 0 0 1-.067-7.439c-.015-.772-.03-1.544-.047-2.34-.002-5.294-.002-5.294 1.428-7.53 2.906-1.972 5.355-1.684 8.84-1.697l2.15-.02c2.38-.019 4.762-.016 7.143-.013l5.115-.031c4.634-.028 9.268-.037 13.902-.043 4.84-.01 9.681-.036 14.522-.06 9.169-.044 18.338-.072 27.507-.095 10.438-.027 20.875-.071 31.313-.117 21.473-.093 42.947-.164 64.42-.222l-10.885-27.2a8655 8655 0 0 1-35.998-91.43 12268 12268 0 0 0-14.15-36.394c-23.701-60.655-23.701-60.655-35.227-90.917q-.92-2.413-1.845-4.825-1.256-3.283-2.5-6.57l-1.411-3.705C5840 62 5840 62 5840 59"/><path fill="#F36C78" d="m6145.811 1115.849 2.263.14c12.542.738 25.079 1.204 37.637 1.519l2.518.064c19.664.496 39.33.743 58.997.96q6.943.079 13.885.161 13.444.158 26.889.307l10.81 27.627 3.563 9.109a3973 3973 0 0 0 6.233 15.853l1.267 3.21q1.203 3.046 2.413 6.09l1.081 2.744.959 2.416C6315 1188 6315 1188 6315 1190h-161l-3-13a335 335 0 0 0-1.754-6.562l-.9-3.223-.909-3.215-.92-3.309c-1.528-5.652-1.528-5.652-3.602-11.112-1.143-3.22-1.174-5.926-1.18-9.34l-.008-3.89.012-2.006c.011-2.035 0-4.068-.012-6.103l.007-3.877.007-3.553c.286-3.103.72-4.682 4.07-4.961"/><path fill="#F36471" d="M5847 1116a26773 26773 0 0 1 99.219-.44l2.107-.006c11.257-.035 22.514-.098 33.772-.171q17.326-.111 34.653-.136c6.488-.01 12.976-.035 19.464-.093 6.105-.054 12.21-.07 18.315-.059q3.363-.003 6.726-.049c3.06-.04 6.117-.03 9.177-.008l2.694-.07c3.71.071 5.958.158 8.711 2.789 1.518 2.022 2.836 4.092 4.162 6.243a110 110 0 0 0 4.68 4.664c15.356 14.663 24.742 26.867 28.32 48.336v13h-163c2.023-6.743 4.124-13.179 6.73-19.68l1.074-2.705q1.687-4.247 3.383-8.49 1.108-2.785 2.213-5.57c4.846-12.194 9.727-24.373 14.6-36.555h-137z"/><path fill="#F79CA5" d="M6173 936c3.572.765 4.932 1.69 7.375 4.438 13.336 13.831 30.852 22.065 48.625 28.562l-1 2c.866 2.446 1.8 4.78 2.832 7.156l.93 2.197q.995 2.349 2 4.693c1.77 4.136 3.514 8.283 5.258 12.43l1.055 2.507a606 606 0 0 1 7.925 19.892 2477 2477 0 0 0 12.125 31.25l.944 2.392q5.69 14.402 11.45 28.776l1.125 2.806q2.71 6.762 5.429 13.52l1.954 4.87.917 2.27c2.056 5.128 2.056 5.128 2.056 6.241q-14 .044-28 .063l-2.076.002c-20.657.023-41.286-.11-61.924-1.065v-1h9l-6.738-41.63-.368-2.275q-1.45-8.957-2.895-17.915-1.066-6.606-2.145-13.208c-1.549-9.522-3.025-19.04-4.28-28.605-1.775-13.468-4.114-26.842-6.416-40.228q-.878-5.12-1.75-10.24-1.698-9.951-3.408-19.899"/><path fill="#F25A68" d="M6155 1193h379v19l-208 1c13.555 34.685 13.555 34.685 27.245 69.316 9.611 24.154 19.044 48.375 28.412 72.623 3.544 9.17 7.1 18.336 10.656 27.501l3.54 9.131q5.476 14.13 10.965 28.255l5.086 13.092q1.192 3.068 2.385 6.136 3.304 8.49 6.572 16.991 1.203 3.12 2.414 6.234c1.29 3.319 2.567 6.642 3.842 9.967l1.223 3.124 1.1 2.893.988 2.557c.572 2.18.572 2.18-.428 5.18-10.423-22.572-20.558-45.258-30.514-68.04a6712 6712 0 0 0-11.792-26.76 18644 18644 0 0 1-25.345-57.568q-3.915-8.924-7.845-17.839c-8.395-19.06-16.704-38.153-24.877-57.308-6.483-15.188-13.06-30.331-19.627-45.485l-155-1zM5742 1193h378v19l-159 1c-14.92 34.37-14.92 34.37-29.812 68.75-6.84 15.788-13.764 31.538-20.69 47.29q-3.995 9.088-7.982 18.183a18562 18562 0 0 1-24.205 54.965 8236 8236 0 0 0-13.123 29.792l-1.19 2.716-1.178 2.693c-7.125 16.274-14.31 32.51-21.82 48.611-1.102-3.305-.985-3.742.193-6.82l.877-2.334.989-2.541 1.014-2.674c1.113-2.922 2.238-5.84 3.364-8.756q1.177-3.075 2.35-6.151c6.599-17.255 13.318-34.464 20.06-51.663 3.837-9.796 7.636-19.608 11.436-29.419a21858 21858 0 0 1 37.78-96.83l1.32-3.36c8.18-20.827 16.401-41.638 24.617-62.452l-203-1z"/><path fill="#F46E7A" d="m6176.25 1229.5 7.82.145q9.465.175 18.93.355.044 2.838.07 5.676l.04 3.192c-.333 9.494-4.544 17.069-10.797 24.003-5.786 5.237-12.818 7.34-20.13 9.645-7.278 2.317-12.798 4.906-17.183 11.484-1.704 4.314-2.276 8.017-2.379 12.64l-.103 3.743-.08 3.867q-.09 3.82-.192 7.64l-.072 3.408C6152 1318 6152 1318 6151 1320c-2.96.986-4.914 1.129-8 1.133l-2.937.004-3.063-.012-3.062.012-2.938-.004-2.687-.004C6126 1321 6126 1321 6123 1320c-.609-7.15-1.047-14.137-.875-21.312.048-7.134-1.152-12.399-4.812-18.5-4.73-4.475-10.045-6.152-16.185-7.941-7.042-2.058-12.79-3.972-18.128-9.247l-1.887-1.773c-5.763-5.92-8.917-12.553-9.266-20.863l.055-3.731.043-3.777.055-2.856q11.2-.217 22.4-.427l7.593-.146c24.777-.48 49.48-.4 74.257.073"/><path fill="#F25B69" d="M6000.826 325.861c3.212.14 4.544.396 7.174 2.139 1.095 2.012 1.095 2.012 1.944 4.53l.997 2.882 1.043 3.162 1.13 3.305c1.226 3.598 2.43 7.203 3.636 10.809q1.27 3.75 2.547 7.497a4996 4996 0 0 1 5.189 15.35 5607 5607 0 0 0 8.025 23.642q2.521 7.38 5.023 14.767c2.856 8.432 5.73 16.856 8.716 25.244l1.459 4.124q1.3 3.673 2.639 7.333l1.125 3.175.976 2.696c.638 2.875.433 4.688-.449 7.484-1.969 1.625-1.969 1.625-4.5 3l-2.738 1.531q-2.59 1.377-5.18 2.75c-4.592 2.466-8.34 5.018-12.074 8.68L6026 481c-3-1-3-1-4.24-3.354l-1.213-3.123-1.365-3.447-1.432-3.701c-.99-2.506-1.989-5.01-2.988-7.512l-1.452-3.642a189 189 0 0 0-4.747-10.658c-3.219-6.711-6.15-13.528-9.063-20.375a2027 2027 0 0 0-12.587-28.944c-6.272-14.127-12.41-28.308-18.477-42.525q-1.372-3.213-2.746-6.425a4504 4504 0 0 1-3.842-9.013l-1.182-2.757-1.068-2.522-.94-2.206C5958 329 5958 329 5958 327a38462 38462 0 0 1 21.81-.573l10.45-.275a826 826 0 0 1 4.616-.105c1.984-.044 3.967-.114 5.95-.186M6275.31 325.978l2.547.061 2.721.082 2.808.072q4.433.116 8.864.245l6.016.158q7.367.195 14.734.404c0 3.14-.488 4.406-1.8 7.191l-1.194 2.568-1.318 2.804a709 709 0 0 0-10.688 24.25c-4.773 11.388-9.71 22.699-14.687 34a6108 6108 0 0 0-18.814 43.131l-3.836 8.888c-4.2 9.732-8.43 19.45-12.663 29.168a226 226 0 0 1-8.437-5.25c-5.923-3.732-12.278-6.687-18.563-9.75.583-5.21 1.817-9.87 3.605-14.805l.824-2.326q.896-2.532 1.8-5.061a2997 2997 0 0 0 5.037-14.25l1.113-3.166c3.139-8.953 6.196-17.931 9.23-26.92l.729-2.156q3.262-9.66 6.51-19.326a4575 4575 0 0 1 7.938-23.436q1.2-3.51 2.385-7.026c1.063-3.144 2.148-6.28 3.24-9.415l.93-2.791.89-2.508.748-2.176C6267 327 6267 327 6268.841 326.263a43 43 0 0 1 6.469-.285"/><path fill="#F47783" d="M6365 514c5.637 2.451 5.637 2.451 7.172 4.773.973 2.617 1.102 4.817 1.203 7.602.417 4.966.979 7.979 4.625 11.625 7.41 3.94 14.676 5.107 23.008 5.14l3.988.06c2.072.028 4.142.05 6.214.05 2.016.004 4.032.04 6.048.078l3.63.028c3.112.644 3.112.644 5.444 3.022a90 90 0 0 1 3.094 5.24c4.37 6.614 13.864 8.692 21.199 10.194 16.342 2.762 31.968 2.052 48.375.188l9-1v28c-10.052 1.992-19.975 3.431-30.187 4.313l-3.256.304c-10.364.824-10.364.824-14.557-1.617-1.504-2.68-1.504-2.68-2.562-5.875-1.952-5.82-4.362-8.462-9.75-11.375-5.973-1.667-11.008-1.022-16.688 1.25l3.438-.187c5.96.02 11.38 1.293 15.937 5.25 1.518 2.744 2.254 4.995 3.063 8 1.207 4.434 2.446 6.57 6.562 8.937 4.059 1.353 7.81 1.19 12.063 1.188l2.68.001c6.818-.053 13.498-.586 20.255-1.477A84 84 0 0 1 6508 597v12q-9.518.112-19.037.165-3.225.022-6.45.061c-46.152.55-46.152.55-61.513-13.226-5.27-6.332-8.913-13.153-9.437-21.437-.453-6.462-2.259-10.83-6.41-15.754-5.82-3.34-12.715-2.32-19.276-2.297-7.725-.098-15.692-.608-21.626-6.144-4.094-4.814-6.651-10.936-9.273-16.644-2.097-4.448-4.302-7.443-7.978-10.724l1.545-.719q3.447-1.606 6.892-3.218l2.432-1.131 2.315-1.084 2.142-1c1.663-.733 1.663-.733 2.674-1.848"/><path fill="#F69099" d="M6430 59c1.102 3.305.985 3.742-.193 6.82l-.877 2.334-.989 2.541-1.014 2.674c-1.113 2.922-2.238 5.84-3.364 8.756q-1.177 3.075-2.35 6.151c-6.599 17.255-13.318 34.464-20.06 51.663-3.838 9.798-7.638 19.61-11.438 29.424-12.78 33-25.624 65.975-38.649 98.88a8332 8332 0 0 0-6.737 17.09q-2.564 6.515-5.13 13.028-1.245 3.16-2.485 6.32c-7.336 18.693-7.336 18.693-10.648 25.659-4.392 9.257-8.006 18.852-11.769 28.377a4394 4394 0 0 1-3.713 9.362q-3.674 9.238-7.334 18.483l-1.332 3.36a18194 18194 0 0 0-24.458 62.098A4975 4975 0 0 1 6262 491l6 1v1c-3.825.613-7.203.87-11 0-2.147-2.326-3.35-4.56-4.684-7.422-1.413-2.767-3.03-4.5-5.316-6.578l.756-1.708a5184 5184 0 0 0 18.815-43.13c5.886-13.64 11.848-27.247 17.832-40.844a3291 3291 0 0 0 15.662-36.137c3.086-7.24 6.237-14.446 9.527-21.595 1.316-2.9 2.441-5.707 3.287-8.781 1.667-5.66 4.081-10.964 6.434-16.368l1.607-3.72q2.112-4.886 4.233-9.766 2.04-4.703 4.074-9.408 3.251-7.514 6.511-15.023 3.162-7.283 6.305-14.57c7.11-16.473 14.334-32.892 21.594-49.298a13059 13059 0 0 0 18.663-42.374q5.042-11.488 10.07-22.982A6107 6107 0 0 1 6430 59"/><path fill="#F7A5AC" d="M6342.063 538.688q1.988 1.122 3.937 2.312l3.25 1.938c3.876 3.302 4.452 8.328 5.5 13.101 1.03 3.097 1.03 3.097 3.645 4.875 5.17 1.557 9.943 1.098 15.292.836 14.667-.341 14.667-.341 21.32 5.156L6397 569l1.867 1.906c4.572 5.687 5.376 12.35 6.504 19.34 1.143 6.82 2.724 12.043 8.379 16.379 26.49 16.189 64.706 10.415 94.25 9.375v15c-6.42 3.21-16.372.9-23-1-5.344-2.344-5.344-2.344-7-4-2.017-.209-4.042-.35-6.066-.465l-1.956-.114q-3.27-.185-6.54-.359l-4.62-.257c-15.815-.864-31.64-1.498-47.467-2.107-9.472-.37-18.916-.741-28.351-1.698-1.337-3.24-2.257-6.094-2.75-9.562-1.608-8.46-5.516-16.913-12.25-22.438l-2.191-1.93c-3.21-2.366-6.474-3.824-10.184-5.195l-2.123-.801c-4.722-1.687-9.106-2.508-14.127-2.949-9.225-.958-18.053-5-24.148-12.203-4.242-5.566-4.242-5.566-4.133-8.203 2.436-7.309 8.99-15.087 15.593-19.032 5.508-2.512 9.886-2.536 15.376 0"/><path fill="#F8A6AD" d="M5946.266 538.066c5.553 3.467 9.724 7.802 13.734 12.934l1.7 2.031c1.3 1.969 1.3 1.969 1.238 5.344-1.645 6.36-4.287 9.439-9.813 12.813A194 194 0 0 1 5948 574l-2.742 1.586c-4.141 1.797-8.057 2.291-12.508 2.851-12.1 1.747-22.524 4.882-30.54 14.77-5.327 7.703-7.579 14.845-8.78 24.098C5893 620 5893 620 5892 621c-2.09.209-4.188.35-6.285.465l-2.023.114q-3.377.185-6.755.359l-4.759.257c-15.982.85-31.973 1.493-47.965 2.107l-3.015.12q-2.776.109-5.553.21c-4.533.181-9.058.434-13.582.776-1.334.1-1.334.1-2.696.2-2.886.478-4.88 1.797-7.293 3.404-6.751 3.216-15.72 3.24-23.074 2.988l-2-1v-15l3.646.108q6.84.197 13.682.374 2.934.08 5.867.166c10.07.298 20.095.482 30.16-.039l2.252-.116c14.051-.854 32.364-2.54 42.393-13.493 3.32-5.372 4.201-10.932 4.938-17.125 1.116-8.876 4.36-13.865 11.12-19.55 7.689-5.245 14.173-4.517 23.176-4.12 6.475.286 6.475.286 12.43-1.877 2.654-2.645 3.163-3.986 3.711-7.64 1.723-7.637 6.324-10.556 12.625-14.625 4.848-1.717 8.606-2.19 13.266.003"/><path fill="#F2505E" d="m5776.966 326.64 2.161-.009c2.396-.004 4.79.012 7.186.028h5.144c4.661-.002 9.322.016 13.983.037 4.869.019 9.737.02 14.606.024 9.222.01 18.444.034 27.667.064 10.498.033 20.996.05 31.494.065 21.598.031 43.195.084 64.793.151l2.401 4.781 1.35 2.69a158 158 0 0 1 4.062 8.967l1.269 2.996C5954 349 5954 349 5954 352q-7.144-.274-14.29-.55-9-.348-18.003-.685-11.091-.413-22.179-.865-5.763-.236-11.526-.447-5.697-.209-11.392-.45a618 618 0 0 0-4.283-.16 591 591 0 0 1-5.93-.243l-3.39-.132c-3.35-.521-5.242-1.546-8.007-3.468-6.681-4.543-11.026-5.616-19-5-3.23.629-6.402 1.398-9.594 2.2-5.415 1.272-10.9 2.034-16.406 2.8l2.5 2.063c2.5 2.937 2.5 2.937 3.188 6.437-.716 3.64-1.5 5.193-4.512 7.371-9.428 4.892-19.78 6.305-30.238 6.254l-2.393.012-2.33-.004-2.09-.004c-2.44-.148-4.74-.605-7.125-1.129q-.111-7.608-.165-15.216a822 822 0 0 0-.061-5.177 798 798 0 0 1-.067-7.439c-.015-.772-.03-1.544-.047-2.34-.002-5.292-.002-5.292 1.426-7.533 2.92-1.975 5.383-1.663 8.88-1.656"/><path fill="#F5858F" d="M6051 1000h2l.38 1.965c3.06 15.676 6.4 30.439 13.288 44.937 1.757 4.086 3.178 8.255 4.582 12.473l.783 2.345c2.142 6.55 3.127 12.507 3.283 19.425l.063 2.332q.096 3.668.184 7.335l.13 4.99q.16 6.099.307 12.198c-14.616 1.398-29.272 1.111-43.937 1.063q-3.945-.008-7.89-.014-9.586-.017-19.173-.049c.578-4.269 1.6-7.86 3.293-11.816l1.412-3.319c.49-1.13.978-2.262 1.483-3.428l1.423-3.345c2.3-5.374 4.66-10.712 7.131-16.01 4.116-8.857 7.982-17.824 11.871-26.782q1.975-4.545 3.955-9.09c4.225-9.712 8.414-19.434 12.368-29.261 1.961-4.846 1.961-4.846 3.064-5.949"/><path fill="#F2515F" d="M6317 1193h217v19h-210c-7-17-7-17-7-19"/><path fill="#F2505F" d="M5742 1193h212c-2.134 6.403-4.493 12.733-7 19h-205z"/><path fill="#F79CA4" d="M6068 959h1l.212 2.041c1.332 12.568 2.756 24.798 6.238 36.975.6 2.161 1.139 4.333 1.671 6.511 2.01 8.14 4.328 16.011 7.316 23.848 6.11 16.14 10.162 32.139 12.651 49.238 2.315 15.04 8.13 26.937 17.346 38.852C6136.064 1144.46 6148 1175.26 6148 1211h-24l1-6.437c2.882-20.578 1.314-43.157-11.309-60.493-4.037-4.941-8.322-9.666-12.8-14.21-11.366-11.895-15.38-26.423-16.967-42.447-1.947-19.038-7.338-36.799-12.786-55.08-3.254-10.988-5.893-22.095-8.138-33.333l-.558-2.767a398 398 0 0 1-1.442-7.795l-.416-2.219c-1.188-7.465.265-13.91 4.416-20.219 1.07-2.309 2.03-4.646 3-7"/><path fill="#F36370" d="M6028 304c14.89 44.077 28.976 88.421 42.95 132.796l1.061 3.37q1.023 3.248 2.042 6.498a1372 1372 0 0 0 5.015 15.677l.994 3.057q.925 2.84 1.87 5.674l.827 2.548.73 2.208c.587 2.495.702 4.617.511 7.172-2.617 4.227-5.44 6.117-10 8h-2c-2.548-5.355-4.566-10.64-6.182-16.343-.755-2.452-1.633-4.765-2.62-7.132-2.53-6.249-4.7-12.61-6.874-18.99l-1.34-3.909a9123 9123 0 0 1-2.83-8.274 17531 17531 0 0 0-8.204-23.943q-5.971-17.418-12.057-34.795c-2.333-6.666-4.657-13.335-6.982-20.004q-1.456-4.17-2.915-8.341a4465 4465 0 0 1-5.035-14.496q-.952-2.748-1.914-5.492c-.878-2.508-1.745-5.019-2.61-7.531l-.799-2.256c-1.752-5.152-1.752-5.152-.638-8.494 2.8-1.824 2.8-1.824 6.313-3.687l3.488-1.887C6024 304 6024 304 6028 304"/><path fill="#F36774" d="M6247 304c4.233.48 7.555 2.122 11.313 4.063l3.238 1.66L6264 311c-.541 7.425-2.822 13.957-5.277 20.953q-.666 1.922-1.328 3.843-1.784 5.159-3.586 10.312c-1.256 3.603-2.504 7.21-3.752 10.817q-3.053 8.814-6.119 17.622a9288 9288 0 0 0-7.946 22.95c-24.244 70.25-24.244 70.25-32.992 93.503-4.973-1.479-7.512-3.114-11-7l-1-1c.483-5.96 1.793-11.452 3.477-17.176l.79-2.723c3.578-12.173 7.533-24.23 11.46-36.294q1.66-5.11 3.314-10.223l.674-2.082 3.379-10.43a8548 8548 0 0 0 11.418-35.54c4.858-15.216 9.722-30.43 14.63-45.63q.787-2.44 1.572-4.882 1.06-3.295 2.126-6.586l1.199-3.717C6246 305 6246 305 6247 304"/><path fill="#F36270" d="m6099.383 287.839 2.666-.015q4.323-.021 8.646-.027l3.024-.009a7926 7926 0 0 1 15.878-.028q6.49-.007 12.98-.041c59.593-.308 59.593-.308 74.095 7.086l2.002 1.013c.685.35 1.37.698 2.076 1.057 5.687 2.872 11.392 5.614 17.25 8.125-.502 3.73-1.042 7.361-2 11l-4.375-1.188-3.074-.828a329 329 0 0 1-7.446-2.156c-59.557-17.762-122.69-9.403-182.105 4.172a480 480 0 0 1-1.5-3.813l-.844-2.144C6036 308 6036 308 6036 305c3.956-1.84 7.915-3.67 11.875-5.5l3.418-1.59 3.262-1.504 3.015-1.396C6060 294 6060 294 6062 294v-2q4.187-.724 8.375-1.438l2.348-.408c8.88-1.504 17.654-2.303 26.66-2.315"/><path fill="#FAC7CC" d="M6203 959c3.625.583 6.402 1.572 9.625 3.313 5.295 2.743 10.736 4.768 16.375 6.687l-1 2c.866 2.446 1.8 4.78 2.832 7.156l.93 2.197q.995 2.349 2 4.693c1.77 4.136 3.514 8.283 5.258 12.43l1.055 2.507a606 606 0 0 1 7.925 19.892 2477 2477 0 0 0 12.125 31.25l.944 2.392q5.69 14.402 11.45 28.776l1.125 2.806q2.71 6.762 5.429 13.52l1.954 4.87.917 2.27c2.056 5.128 2.056 5.128 2.056 6.241h-16c-6.215-13.807-12.317-27.641-18.125-41.625-5.058-12.172-10.303-24.254-15.625-36.312a3241 3241 0 0 1-18.562-42.876l-1.075-2.532q-2.895-6.827-5.772-13.662-1.209-2.862-2.428-5.717l-1.393-3.288-1.197-2.807C6203 961 6203 961 6203 959"/><path fill="#FFF" d="M6310 1212h15c3.719 7.943 7.019 15.994 10.158 24.18 1.518 3.957 3.049 7.91 4.58 11.863l1.012 2.612c3.975 10.243 8.039 20.45 12.097 30.659 9.734 24.492 19.312 49.041 28.81 73.625 3.544 9.17 7.1 18.336 10.656 27.501l3.54 9.131q5.476 14.13 10.965 28.255l5.086 13.092q1.192 3.068 2.385 6.136 3.304 8.49 6.572 16.991 1.203 3.12 2.414 6.234c1.29 3.319 2.567 6.642 3.842 9.967l1.223 3.124 1.1 2.893.988 2.557c.572 2.18.572 2.18-.428 5.18-10.423-22.572-20.558-45.258-30.514-68.04a6712 6712 0 0 0-11.792-26.76 18644 18644 0 0 1-25.345-57.568q-3.915-8.924-7.845-17.839a5617 5617 0 0 1-27.266-62.895l-1.08-2.527a3094 3094 0 0 0-7.178-16.644l-.941-2.168q-2.163-4.974-4.333-9.943l-1.495-3.432-1.303-2.983C6310 1213 6310 1213 6310 1212M5949.379 1211.902q2.091.01 4.184.035l3.98.034 3.457.029a1673 1673 0 0 1-14.625 34.688l-2.12 4.89-4.26 9.824q-2.651 6.111-5.292 12.227c-7.995 18.502-16.092 36.96-24.204 55.41q-3.996 9.09-7.983 18.184a18562 18562 0 0 1-24.205 54.965 8236 8236 0 0 0-13.123 29.792l-1.19 2.716-1.178 2.693c-7.125 16.274-14.31 32.51-21.82 48.611-1.102-3.305-.985-3.742.193-6.82l.877-2.334.989-2.541 1.014-2.674c1.113-2.922 2.238-5.84 3.364-8.756q1.177-3.075 2.35-6.151c6.599-17.255 13.318-34.464 20.06-51.663 3.837-9.796 7.636-19.608 11.436-29.419 14.81-38.237 29.749-76.422 44.76-114.58q3.775-9.597 7.541-19.196 2.124-5.41 4.251-10.817l1.938-4.938a3949 3949 0 0 1 2.622-6.67l.766-1.964c2.157-5.457 2.157-5.457 6.218-5.575M6430 59c1.102 3.305.985 3.742-.193 6.82l-.877 2.334-.989 2.541-1.014 2.674c-1.113 2.922-2.238 5.84-3.364 8.756q-1.177 3.075-2.35 6.151c-6.599 17.255-13.318 34.464-20.06 51.663-3.838 9.798-7.638 19.61-11.438 29.424A16112 16112 0 0 1 6344.2 285.59l-3.966 10.013-5.153 12.999-2.354 5.941-1.1 2.769-1.007 2.544-.88 2.217A116 116 0 0 0 6328 327h-15c2.215-7.012 4.915-13.687 7.867-20.418l1.427-3.279q2.287-5.246 4.581-10.49l3.173-7.281q3.104-7.123 6.21-14.243 3.258-7.465 6.484-14.941c6.876-15.941 13.872-31.826 20.897-47.702a13033 13033 0 0 0 18.66-42.368q5.044-11.488 10.071-22.982A6107 6107 0 0 1 6430 59M5840 59c3.205 3.76 4.995 8.055 6.992 12.523l1.158 2.56a3096 3096 0 0 1 3.725 8.292l2.604 5.783a2370 2370 0 0 1 15.537 35.305c4.654 10.814 9.406 21.584 14.172 32.35l4.914 11.105 1.237 2.796c6.134 13.871 12.221 27.764 18.312 41.655q3.915 8.922 7.845 17.838a5590 5590 0 0 1 25.277 58.24c4.472 10.472 8.969 20.93 13.588 31.339l1.084 2.464.923 2.078C5958 325 5958 325 5958 327h-14a176 176 0 0 1-7.582-16.852l-1.002-2.542a4666 4666 0 0 1-3.229-8.231l-2.29-5.822q-2.335-5.938-4.666-11.877a5104 5104 0 0 0-6.016-15.238c-7.79-19.654-15.465-39.35-23.097-59.065a12302 12302 0 0 0-14.15-36.397c-23.702-60.655-23.702-60.655-35.228-90.917q-.92-2.413-1.845-4.825-1.256-3.283-2.5-6.57l-1.411-3.705C5840 62 5840 62 5840 59"/><path fill="#FAC1C6" d="M6049 974h1l3 26-2 1c-1.108 2.109-1.108 2.109-2.145 4.73l-1.282 3.078-1.386 3.38q-1.486 3.57-2.976 7.14l-.785 1.885c-2.964 7.107-6.039 14.165-9.114 21.225-3.634 8.353-7.24 16.717-10.75 25.124a473 473 0 0 1-8.046 18.165 704 704 0 0 0-5.328 11.835l-.917 2.06c-1.375 3.135-2.437 6.042-3.271 9.378h-17a2499 2499 0 0 1 16.563-42.437 8452 8452 0 0 0 16.374-41.126l1.07-2.702q1.036-2.621 2.07-5.243 1.005-2.536 2.02-5.066c1.67-4.178 3.237-8.358 4.646-12.633l.868-2.52a124 124 0 0 0 1.52-4.738c.761-2.175 1.39-3.762 2.869-5.535 2.352-.903 4.459-1.3 6.961-1.564 2.4-.273 2.4-.273 4.039-3.249.858-2.736 1.583-5.351 2-8.187"/><path fill="#F9ADB4" d="M6061 483q1.258 3.153 2.5 6.313l1.406 3.55C6066 496 6066 496 6066 499c-1.355 1.254-1.355 1.254-3.187 2.563-5.103 4.2-8.182 9.46-9.223 16.023-.288 8.136 2.302 15.096 7.41 21.414 5.493 4.846 5.493 4.846 12 8 1.515 3.734 2.41 7.637 3.382 11.544a277 277 0 0 0 1.54 5.76c1.939 7.644 2.474 12.552-.922 19.696-.421 1.346-.82 2.7-1.187 4.063L6075 591l-4 1c-3.722-7.168-6.95-14.461-10-21.937-2.765-6.754-5.601-13.451-8.647-20.083-2.742-6.04-5.348-12.14-7.978-18.23l-1.734-4.008q-2.325-5.37-4.641-10.742l-.837-1.906c-2.734-6.266-3.113-10.292-.913-16.782 3.214-6.084 6.59-9.29 12.75-12.312l1.832-.914c3.581-1.67 6.26-2.22 10.168-2.086"/><path fill="#FBD2D6" d="M5967 812c-4.595 7.722-9.235 15.088-15 22l-1.265 1.534c-9.115 11.023-18.834 21.49-29.747 30.767-4.071 3.48-8.014 7.108-11.988 10.699-1.359-4.077-.475-7.54.188-11.687a717 717 0 0 0 3.14-22.94q.534-4.37 1.058-8.742.37-3.087.747-6.174l.434-3.626C5915 821 5915 821 5916 819c1.967-.55 1.967-.55 4.58-.977l2.953-.495 3.213-.508 3.277-.537q3.438-.56 6.878-1.107c3.52-.56 7.037-1.138 10.554-1.718q3.333-.54 6.666-1.076l3.207-.527 2.963-.466 2.615-.419C5965 811 5965 811 5967 812"/><path fill="#F9AAB2" d="M6214 483c7.602.323 14.132 3.62 19.938 8.438 3.479 4.322 5.607 7.948 5.062 13.562-1.25 2.883-1.25 2.883-3 6.125-2.97 5.66-5.564 11.404-8 17.313-2.319 5.607-4.699 11.148-7.312 16.625-7.132 15.05-13.292 30.565-19.688 45.937-2-1-2-1-2.816-3.04l-.747-2.585-.753-2.54c-1.735-7.194-1.5-11.888.691-18.835q.706-2.31 1.398-4.625l.678-2.237c.674-2.394.674-2.394.916-5.974.633-3.164.633-3.164 2.742-5.203l2.641-1.586c6.635-4.263 11.962-8.599 14.25-16.375 1.151-8.942.454-16.63-5-24-2.223-2.288-4.429-4.084-7-6q1.215-3.47 2.438-6.937l.697-1.999c1.752-4.95 1.752-4.95 2.865-6.064"/><path fill="#F5848F" d="M5847 1116h233v1h-79l-2 6a276 276 0 0 1-2.477 5.848l-1.51 3.472-1.638 3.743-1.698 3.898q-1.358 3.123-2.72 6.246c-3.578 8.21-7.13 16.432-10.683 24.654l-4.26 9.856q-2.008 4.64-4.014 9.283h-14c1.936-6.715 4.13-13.196 6.73-19.68l1.074-2.705q1.687-4.247 3.383-8.49 1.108-2.785 2.213-5.57c4.846-12.194 9.727-24.373 14.6-36.555h-137z"/><path fill="#FEFEFE" d="M6137.262 300.938c27.9-.706 57.1 1.245 83.738 10.062v8l-1.73-.411c-20.862-4.899-41.828-8.052-63.27-8.589l-2.521-.066c-31.25-.692-62.986 2.014-93.493 8.935-3.716.82-6.346 1.244-9.986.131l2-7c28.144-6.194 56.424-10.272 85.262-11.062"/><path fill="#FBD0D3" d="m6149 457.75 2.563.484c2.802.88 4.339 1.7 6.437 3.766.24 2.603.24 2.603-.129 5.738l-.387 3.534L6157 475l-.44 3.607c-.399 3.177-.813 6.352-1.231 9.527-4.313 33.268-4.618 66.355-4.329 99.866h-7q-.427-23.679-.834-47.358-.188-10.995-.387-21.99-.174-9.585-.335-19.171-.085-5.074-.18-10.147-.103-5.67-.194-11.34l-.067-3.38c-.08-5.335.034-10.362.997-15.614l-3-1c3.286-1.065 5.63-.928 9-.25"/><path fill="#F6939C" d="m6015 502 2 20-10-.187c-15.007-.067-29.287 1.474-42 10.187-1.884 2.577-1.884 2.577-3 5-4.06-1.504-6.92-4.25-9-8-.681-3.027-.462-4.815 0-8 3.148-4.853 8.941-6.248 14.32-7.57 5.317-1.35 9.22-3.286 13.743-6.43 10.413-7.198 21.729-9.883 33.937-5"/><path fill="#FBE1E3" d="M6239 504h1c.443 8.502-.83 16.016-2.875 24.25l-.816 3.43c-1.04 4.334-2.076 8.612-3.47 12.847-1.013 4.192-1.117 8.172-1.267 12.47-.673 16.583-.673 16.583-5.635 21.94A524 524 0 0 1 6221 583a673 673 0 0 0-4.25 5.688c-2.797 3.184-3.948 4.219-8.207 4.714-3.267-.251-6.35-.681-9.543-1.402l1-2c4.1-8.452 7.868-16.999 11.438-25.687 4.45-10.809 9.13-21.506 13.874-32.188l1.044-2.355c10.45-23.577 10.45-23.577 12.644-25.77"/><path fill="#F5858E" d="M6287 1119c1.703 2.555 2.748 4.64 3.86 7.461l1.084 2.736 1.161 2.963 1.22 3.086q1.935 4.907 3.863 9.816l2.54 6.44q3.071 7.786 6.125 15.578a4112 4112 0 0 0 3.321 8.423l1.94 4.93c.295.746.591 1.492.897 2.26 1.989 5.08 1.989 5.08 1.989 7.307h-14c-21.814-49.965-21.814-49.965-30-70a597 597 0 0 1 7.875-.687l2.262-.221c2.168-.166 2.168-.166 5.863-.092"/><path fill="#FDE5E7" d="M6035 510c2.92 3.435 4.444 7.225 6.063 11.375 3.217 8.044 6.745 15.923 10.385 23.785a288 288 0 0 1 6.438 15.066c2.347 5.844 4.874 11.615 7.364 17.399l1.68 3.91q2.033 4.733 4.07 9.465c-2.844 1.55-5.418 2.436-8.59 3.07l-2.627.528-2.72.527c-.894.182-1.788.364-2.71.55-4.202.83-8.054 1.423-12.353 1.325l.184-2.152q.413-4.893.816-9.785l.29-3.385c.79-9.632.961-18.667-.415-28.24l-.38-2.697c-1.267-8.336-3.276-16.445-5.513-24.57-1.504-5.587-2.29-10.382-1.982-16.171"/><path fill="#FABEC3" d="M6196 503c5.711 1.779 10.866 4.566 14.11 9.785 2.043 4.508 2.228 8.227.867 12.977-2.654 6.08-6.847 10.07-12.852 12.8-4.87 1.66-9.202 2.13-14.125.438-3.306-2.603-5.49-5.09-7-9-.245-2.636-.381-5.116-.375-7.75l.005-2.167c.135-5.824 1.033-9.355 4.37-14.083 4.502-4.171 9.174-3.604 15-3"/><path fill="#FBD5D9" d="M6090 503c4.603 3.302 6.828 7.527 8 13 .815 7.387.62 13.917-4 20-3.093 2.911-5.767 3.213-9.875 3.375-6.886-.225-12.126-2.511-17.125-7.375-3.372-4.647-4.688-8.098-4.375-13.867 1.069-6.078 5.59-9.517 10.371-12.871 5.543-3.49 10.748-4.02 17.004-2.262"/><path fill="#F24D5C" d="M6025 272c2.23 1.27 2.23 1.27 4.188 2.813l1.98 1.519c3.398 3.093 5.168 6.042 6.52 10.418l.761 2.422L6039 291l-2.832 1.18a263 263 0 0 0-25.958 12.706l-2.323 1.27-2.056 1.15C6004 308 6004 308 6001 307c-1.075-1.918-1.075-1.918-2.043-4.402l-1.064-2.698-1.08-2.837-1.116-2.827c-2.697-6.92-2.697-6.92-2.697-9.236a953 953 0 0 1 14-8l3.39-1.902 3.11-1.66 2.781-1.504c3.388-1.164 5.292-.906 8.719.066M6257 272c2.699 1.116 5.284 2.405 7.875 3.75l2.133 1.086c4.83 2.486 9.47 5.149 13.992 8.164-.613 5.405-2.444 9.924-4.562 14.875l-.999 2.375q-1.212 2.879-2.439 5.75c-5.464-1.572-10.162-4.11-15.125-6.812-7.155-3.84-14.274-7.305-21.875-10.188 1.632-8.986 4.92-13.514 12.367-18.848 3.46-1.514 5.016-1.199 8.633-.152"/><path fill="#FAC2C7" d="M6068 959h1l.212 2.041c1.331 12.558 2.751 24.782 6.229 36.949.623 2.24 1.19 4.491 1.75 6.748 2.148 8.575 4.521 16.742 7.989 24.89l.82 2.372c-1 2-1 2-3 4-.936 3.427-1.733 6.855-2.5 10.322-.443 1.907-.966 3.795-1.5 5.678l-2 1c-4.988-17.244-9.935-34.472-13.562-52.062-.24-1.15-.478-2.3-.724-3.484-3.97-19.99-3.97-19.99.286-28.454l1.316-2.715A392 392 0 0 1 6068 959"/><path fill="#F58E97" d="M6285.527 502.652c3.775 2.057 7.33 4.422 10.91 6.797 3.18 1.925 5.94 2.826 9.563 3.551-3.585 3.006-7.253 5.43-11.312 7.75l-3.239 1.86L6289 524l-1-1c-6.673-1.125-13.247-1.117-20-1.062l-3.215.013q-3.892.02-7.785.049l2-20c9.105-3.035 17.674-3.364 26.527.652"/><path fill="#FBCDD1" d="m6130 458-.481 2.75c-.765 5.393-.742 10.806-.816 16.244l-.06 3.609q-.078 4.871-.148 9.742c-.05 3.4-.106 6.801-.16 10.202q-.153 9.646-.298 19.294-.166 10.987-.34 21.976-.358 22.59-.697 45.183h-4l.013-1.707c.273-36.267.164-71.883-5.424-107.787l-.339-2.222c-.304-1.985-.62-3.968-.936-5.951-.296-3.145-.31-5.347.686-8.333 4.334-2.993 7.817-3.311 13-3"/><path fill="#F8E7E9" d="M6344 676c1.445 2.695 2.402 5.17 3.07 8.152l.528 2.354.527 2.432c.182.798.364 1.597.55 2.42.87 3.942 1.571 7.577 1.325 11.642l-9-1-1 2-1.63-.61c-19.052-7.079-36.113-8.808-56.37-9.39v-1l3.406.344c20.967.992 39.817-9.134 58.594-17.344"/><path fill="#F9BEC4" d="M6107 473c5.5 9.131 4.416 24.341 5.005 34.867q.184 3.24.382 6.48c.385 6.562.656 13.08.613 19.653h-6l.07-3.437q.029-2.282.055-4.563l.05-2.254c.078-8.841-1.965-17.457-7.175-24.746-3.955-3.093-8.114-4.925-13-6 1.015-2.732 1.992-4.988 3.688-7.375 1.764-3.529 1.127-5.847.312-9.625l2.738-.148 3.574-.227 3.551-.21c3.294-.201 3.294-.201 6.137-2.415"/><path fill="#F9BBC1" d="m6166 474 1.798.48c2.973.702 5.907.87 8.952 1.082l3.547.254L6183 476l-.312 3.563c-.04 4.415 1.44 6.673 4.218 9.992C6188 491 6188 491 6188 493l-2.012.7c-7.453 2.752-12.402 5.966-15.988 13.3-3.536 9.124-3.66 17.458-2 27l-6-1c-.3-19.877 1.268-39.318 4-59"/><path fill="#FCEAEC" d="M5974 745q.793 2.183 1.563 4.375l.878 2.46C5977 754 5977 754 5976 756l-2.02-.053c-9.134-.129-18.09.673-27.167 1.553-17.83 1.717-17.83 1.717-25.813 1.5l1-11c11.282-1.049 22.557-2.061 33.875-2.625l2.388-.12c5.25-.243 10.481-.286 15.737-.255"/><path fill="#FDE7E9" d="M6161 562c9.151 1.525 15.692 5.715 21.531 12.918 3.455 4.897 5.29 9.19 6.469 15.082l-28-2z"/><path fill="#FDEDEF" d="M6114 561q.04 3.375.063 6.75l.035 3.797c-.12 5.495-.642 10.975-1.098 16.453l-27 2c1.519-9.113 5.582-16.343 13-22 11.51-7 11.51-7 15-7"/><path fill="#F24D5C" d="M5811 291c2.1 2.1 1.42 6.643 1.563 9.563L5813 309h-28c0-13.5 0-13.5 1-18 7.87-2.356 16.987-1.182 25 0M6488 291c1.207 3.62 1.108 6.925 1.063 10.688L6489 309h-28c1-13 1-13 3-18 17.322-2.665 17.322-2.665 24 0"/><path fill="#F69099" d="M6508 616v15c-6.434 3.217-16.358.883-23-1-4.245-1.762-7.51-4.023-11-7l10-3v-2h-12v-1q6.003-.216 12.006-.427l4.076-.146q2.945-.106 5.89-.208l3.571-.127c3.485-.093 6.971-.092 10.457-.092"/><path fill="#F9B5BB" d="M6082 503v9l-6.055 2.832c-2.25 1.163-2.25 1.163-3.945 4.168 0 4.265.71 5.697 3.688 8.813 3.321 2.193 5.389 2.907 9.312 3.187l1 8c-6.684.41-11.11-1.118-16.687-4.75-4.251-4.136-6.525-7.909-6.813-13.812.244-4.497 1.463-7.02 4.5-10.438 8.517-7.17 8.517-7.17 15-7"/><path fill="#F68F99" d="m5767 616 36 1v1h-16v2l10 3c-1.07 2.638-2.14 4.495-4.64 5.965-7.355 2.82-15.557 2.999-23.36 3.035l-2-1z"/><path fill="#F8E0E3" d="M5943 843c-1.313 2.902-2.719 4.967-4.977 7.207l-1.77 1.767-1.878 1.838-1.925 1.904c-3.73 3.665-7.507 7.237-11.497 10.62-2.527 2.153-4.988 4.377-7.453 6.601l-2.594 2.34L5909 877c-2.052-6.156-2.029-12.607.33-18.666 5.574-7.787 24.363-15.334 33.67-15.334"/><path fill="#F9BAC0" d="m6124 1114 26 1v1l-7 2 .035 2.063c.081 8.684-.42 17.28-1.035 25.937-3.082-3.728-5.118-7.908-7.312-12.187-2.935-5.655-5.955-11.071-9.692-16.247C6124 1116 6124 1116 6124 1114"/><path fill="#F46975" d="M6087 257h23c.098 9.277.098 9.277 0 12-1 1-1 1-3.041 1.114l-2.65-.016-2.862-.01-3.01-.026-3.021-.013q-3.708-.018-7.416-.049c-1-4-1-4-1-13"/><path fill="#FEFDFD" d="M6198.813 513.688c2.843 1.705 3.887 3.279 5.187 6.312 0 3.199-1.17 4.193-3.312 6.625-3.078 2.72-5.05 4.073-9.063 4.813-3.083-.514-5.126-1.64-7.445-3.743-1.936-2.782-1.94-5.292-1.692-8.601C6183 517 6183 517 6185 514.437c4.77-2.285 8.752-1.987 13.813-.75"/><path fill="#FEFEFE" d="M6087 513c3.063 2.063 3.063 2.063 5 5 .782 4.377.516 6.218-1.937 9.938-3.567 2.402-5.619 2.8-9.84 2.546-3.944-.859-5.568-2.431-8.223-5.484-1.187-3-1.187-3-1-6 4.721-5.742 8.765-7.085 16-6"/><path fill="#F36672" d="M6165 257h22v13h-22z"/><path fill="#FCE3E5" d="M6113 544v7l-2.965 1.066c-8 2.978-14.648 6.083-21.035 11.934-3.151-2.53-3.588-4.768-4.187-8.687-.16-.994-.318-1.988-.481-3.012L6084 550l1.793-.332c5.084-.996 5.084-.996 9.707-3.23 5.15-2.962 11.69-2.587 17.5-2.438"/><path fill="#FCDADD" d="M6161 544c8.564.223 15.436.599 23 5 3.316.778 3.316.778 6 1-.514 4.97-1.234 9.29-3 14-2.888-1.357-5.36-2.938-7.937-4.812-5.592-3.806-11.71-5.969-18.063-8.188z"/><path fill="#F24D5C" d="m6380.125 293.938 2.285.013q2.795.02 5.59.049v15h-18v-14c3.188-1.594 6.629-1.102 10.125-1.062"/><path fill="#F4707C" d="M6303 1193h14q1.755 4.185 3.5 8.375l1.012 2.406.957 2.305.888 2.126C6324 1210 6324 1210 6324 1212h-14q-1.755-4.185-3.5-8.375l-1.012-2.406-.957-2.305-.888-2.126C6303 1195 6303 1195 6303 1193M5954 1193h14c-2.082 6.456-4.435 12.72-7 19h-14c1.872-6.646 4.075-12.746 7-19"/><path fill="#F9B1B7" d="M6201 506c4.456 1.362 6.55 3.029 9 7 1.732 4.45 2.521 8.486 1.125 13.125-2.112 4.706-5.804 8.145-10.125 10.875-2.758.691-2.758.691-5 1-.615-7.256-.615-7.256 2.375-10.875L6201 525l2-2c-.353-3.442-1.046-5.069-3-8 .023-2.262.023-2.262.375-4.687l.336-2.45z"/><path fill="#F24D5C" d="m5887 294 7.375-.062 2.318-.028c5.085-.021 5.085-.021 7.307 1.09 1.176 4.82 1 8.897 1 14h-18z"/><path fill="#F8AFB5" d="M6070 437c2.405 3.607 3.53 7.335 4.82 11.43l.799 2.507q.833 2.625 1.659 5.25c.842 2.674 1.698 5.343 2.554 8.012q.808 2.553 1.613 5.106l.777 2.412c2.289 7.35 2.289 7.35 1.778 11.283-1.875 2.813-1.875 2.813-4 5h-2c-1.506-5.699-2.626-11.346-3.508-17.172l-.395-2.56q-.408-2.657-.811-5.314-.62-4.066-1.25-8.13-.398-2.591-.794-5.183l-.379-2.447c-.52-3.454-.863-6.692-.863-10.194"/><path fill="#F7D3D7" d="M5924 712c11.424-.796 21.589 2.402 31 9l2 3c-6.551-.63-12.877-1.698-19.312-3.062q-2.619-.555-5.239-1.098l-2.302-.489c-2.442-.459-2.442-.459-6.147-.351z"/><path fill="#FBD1D4" d="m6184 527 2.063 1.5c3.532 1.804 6.023 1.73 9.937 1.5l1 9c-9.514 1.761-9.514 1.761-14.125-.937L6180 536l2-1q.561-3.491 1-7z"/><path fill="#FCD5D8" d="M6044 576c2.836 2.836 3.774 6.304 5.125 10l.84 2.234C6052 593.728 6052 593.728 6052 596l-10 1q.212-4.125.438-8.25l.119-2.355.127-2.286.11-2.094c.213-2.081.651-4 1.206-6.015"/><path fill="#FCDEE1" d="m5923 732 21 5v2l-21 1z"/><path fill="#F5CACF" d="m6349 694 1 9-9-1-1 2-8-3c2.968-1.979 5.774-3.259 9.063-4.625l3.222-1.352C6347 694 6347 694 6349 694"/><path fill="#FDE1E3" d="m6091 577 2 1c.414 2.504.414 2.504.625 5.563l.227 3.066L6094 589l-8 1c.515-5.281 2.255-8.572 5-13"/><path fill="#FCD3D6" d="M6084 550h4l2 13h-3z"/><path fill="#F2606E" d="M6508 627v4c-3.215 1.607-6.436 1.057-10 1v-2c6.625-3 6.625-3 10-3"/><path fill="#F79EA6" d="M6070 437c4.127 6.191 4.167 10.905 3 18h-1z"/><path fill="#F8ACB3" d="M6124 1114h4l1 7a141 141 0 0 1-5-5z"/><path fill="#FCE0E2" d="m5927 523 2 1-8 8c0-3.936 1.429-5.126 4-8z"/><path fill="#FCDDDF" d="M5907 512c3.125-.187 3.125-.187 6 0l1 2-9 1z"/><path fill="#F36470" d="M5767 628c2.352.599 4.686 1.27 7 2l1 2c-5.75.125-5.75.125-8-1z"/></svg>