<svg width="13" height="12" viewBox="0 0 13 12" fill="none" xmlns="http://www.w3.org/2000/svg">
<path d="M6.79999 6C5.97499 6 5.26874 5.70625 4.68124 5.11875C4.09374 4.53125 3.79999 3.825 3.79999 3C3.79999 2.175 4.09374 1.46875 4.68124 0.88125C5.26874 0.29375 5.97499 0 6.79999 0C7.62499 0 8.33124 0.29375 8.91874 0.88125C9.50624 1.46875 9.79999 2.175 9.79999 3C9.79999 3.825 9.50624 4.53125 8.91874 5.11875C8.33124 5.70625 7.62499 6 6.79999 6ZM0.799988 12V9.9C0.799988 9.475 0.909363 9.08437 1.12811 8.72812C1.34686 8.37187 1.63749 8.1 1.99999 7.9125C2.77499 7.525 3.56249 7.23438 4.36249 7.04062C5.16249 6.84687 5.97499 6.75 6.79999 6.75C7.62499 6.75 8.43749 6.84687 9.23749 7.04062C10.0375 7.23438 10.825 7.525 11.6 7.9125C11.9625 8.1 12.2531 8.37187 12.4719 8.72812C12.6906 9.08437 12.8 9.475 12.8 9.9V12H0.799988ZM2.29999 10.5H11.3V9.9C11.3 9.7625 11.2656 9.6375 11.1969 9.525C11.1281 9.4125 11.0375 9.325 10.925 9.2625C10.25 8.925 9.56874 8.67188 8.88124 8.50313C8.19374 8.33438 7.49999 8.25 6.79999 8.25C6.09999 8.25 5.40624 8.33438 4.71874 8.50313C4.03124 8.67188 3.34999 8.925 2.67499 9.2625C2.56249 9.325 2.47186 9.4125 2.40311 9.525C2.33436 9.6375 2.29999 9.7625 2.29999 9.9V10.5ZM6.79999 4.5C7.21249 4.5 7.56561 4.35313 7.85936 4.05937C8.15311 3.76562 8.29999 3.4125 8.29999 3C8.29999 2.5875 8.15311 2.23438 7.85936 1.94063C7.56561 1.64688 7.21249 1.5 6.79999 1.5C6.38749 1.5 6.03436 1.64688 5.74061 1.94063C5.44686 2.23438 5.29999 2.5875 5.29999 3C5.29999 3.4125 5.44686 3.76562 5.74061 4.05937C6.03436 4.35313 6.38749 4.5 6.79999 4.5Z" fill="white"/>
</svg>
