<svg width="30" height="32" viewBox="0 0 30 32" fill="none" xmlns="http://www.w3.org/2000/svg">
<mask id="mask0_3953_87" style="mask-type:alpha" maskUnits="userSpaceOnUse" x="0" y="0" width="30" height="32">
<rect width="30" height="32" fill="#D9D9D9"/>
</mask>
<g mask="url(#mask0_3953_87)">
<path d="M5.5825 23.895C6.815 22.9525 8.1925 22.2094 9.715 21.6656C11.2375 21.1219 12.8325 20.85 14.5 20.85C16.1675 20.85 17.7625 21.1219 19.285 21.6656C20.8075 22.2094 22.185 22.9525 23.4175 23.895C24.2633 22.9042 24.9219 21.7804 25.3931 20.5238C25.8644 19.2671 26.1 17.9258 26.1 16.5C26.1 13.2858 24.9702 10.549 22.7106 8.28938C20.451 6.02979 17.7142 4.9 14.5 4.9C11.2858 4.9 8.54896 6.02979 6.28938 8.28938C4.02979 10.549 2.9 13.2858 2.9 16.5C2.9 17.9258 3.13562 19.2671 3.60687 20.5238C4.07812 21.7804 4.73667 22.9042 5.5825 23.895ZM14.5 17.95C13.0742 17.95 11.8719 17.4606 10.8931 16.4819C9.91438 15.5031 9.425 14.3008 9.425 12.875C9.425 11.4492 9.91438 10.2469 10.8931 9.26813C11.8719 8.28938 13.0742 7.8 14.5 7.8C15.9258 7.8 17.1281 8.28938 18.1069 9.26813C19.0856 10.2469 19.575 11.4492 19.575 12.875C19.575 14.3008 19.0856 15.5031 18.1069 16.4819C17.1281 17.4606 15.9258 17.95 14.5 17.95ZM14.5 31C12.4942 31 10.6092 30.6194 8.845 29.8581C7.08083 29.0969 5.54625 28.0638 4.24125 26.7588C2.93625 25.4538 1.90313 23.9192 1.14188 22.155C0.380625 20.3908 0 18.5058 0 16.5C0 14.4942 0.380625 12.6092 1.14188 10.845C1.90313 9.08083 2.93625 7.54625 4.24125 6.24125C5.54625 4.93625 7.08083 3.90313 8.845 3.14188C10.6092 2.38062 12.4942 2 14.5 2C16.5058 2 18.3908 2.38062 20.155 3.14188C21.9192 3.90313 23.4538 4.93625 24.7588 6.24125C26.0638 7.54625 27.0969 9.08083 27.8581 10.845C28.6194 12.6092 29 14.4942 29 16.5C29 18.5058 28.6194 20.3908 27.8581 22.155C27.0969 23.9192 26.0638 25.4538 24.7588 26.7588C23.4538 28.0638 21.9192 29.0969 20.155 29.8581C18.3908 30.6194 16.5058 31 14.5 31Z" fill="#313D53"/>
</g>
</svg>
