<svg width="33" height="32" viewBox="0 0 33 32" fill="none" xmlns="http://www.w3.org/2000/svg">
<rect x="1" y="0.5" width="31" height="31" rx="15.5" fill="#313D53"/>
<rect x="1" y="0.5" width="31" height="31" rx="15.5" stroke="#313D53"/>
<path d="M16.5 16C15.675 16 14.9688 15.7063 14.3813 15.1188C13.7938 14.5312 13.5 13.825 13.5 13C13.5 12.175 13.7938 11.4688 14.3813 10.8813C14.9688 10.2938 15.675 10 16.5 10C17.325 10 18.0312 10.2938 18.6187 10.8813C19.2063 11.4688 19.5 12.175 19.5 13C19.5 13.825 19.2063 14.5312 18.6187 15.1188C18.0312 15.7063 17.325 16 16.5 16ZM10.5 22V19.9C10.5 19.475 10.6094 19.0844 10.8281 18.7281C11.0469 18.3719 11.3375 18.1 11.7 17.9125C12.475 17.525 13.2625 17.2344 14.0625 17.0406C14.8625 16.8469 15.675 16.75 16.5 16.75C17.325 16.75 18.1375 16.8469 18.9375 17.0406C19.7375 17.2344 20.525 17.525 21.3 17.9125C21.6625 18.1 21.9531 18.3719 22.1719 18.7281C22.3906 19.0844 22.5 19.475 22.5 19.9V22H10.5ZM12 20.5H21V19.9C21 19.7625 20.9656 19.6375 20.8969 19.525C20.8281 19.4125 20.7375 19.325 20.625 19.2625C19.95 18.925 19.2688 18.6719 18.5813 18.5031C17.8938 18.3344 17.2 18.25 16.5 18.25C15.8 18.25 15.1062 18.3344 14.4187 18.5031C13.7312 18.6719 13.05 18.925 12.375 19.2625C12.2625 19.325 12.1719 19.4125 12.1031 19.525C12.0344 19.6375 12 19.7625 12 19.9V20.5ZM16.5 14.5C16.9125 14.5 17.2656 14.3531 17.5594 14.0594C17.8531 13.7656 18 13.4125 18 13C18 12.5875 17.8531 12.2344 17.5594 11.9406C17.2656 11.6469 16.9125 11.5 16.5 11.5C16.0875 11.5 15.7344 11.6469 15.4406 11.9406C15.1469 12.2344 15 12.5875 15 13C15 13.4125 15.1469 13.7656 15.4406 14.0594C15.7344 14.3531 16.0875 14.5 16.5 14.5Z" fill="white"/>
</svg>
