<svg width="44" height="44" viewBox="0 0 44 44" fill="none" xmlns="http://www.w3.org/2000/svg">
<rect x="1" y="1" width="42" height="42" rx="21" stroke="white" stroke-width="2"/>
<mask id="mask0_4121_515" style="mask-type:alpha" maskUnits="userSpaceOnUse" x="10" y="10" width="24" height="24">
<rect x="10" y="10" width="24" height="24" fill="#D9D9D9"/>
</mask>
<g mask="url(#mask0_4121_515)">
<path d="M31.025 21.05V29C31.025 29.55 30.8292 30.0208 30.4375 30.4125C30.0458 30.8042 29.575 31 29.025 31H15.025C14.475 31 14.0042 30.8042 13.6125 30.4125C13.2208 30.0208 13.025 29.55 13.025 29V21.05C12.6417 20.7 12.3458 20.25 12.1375 19.7C11.9292 19.15 11.925 18.55 12.125 17.9L13.175 14.5C13.3083 14.0667 13.5458 13.7083 13.8875 13.425C14.2292 13.1417 14.625 13 15.075 13H28.975C29.425 13 29.8167 13.1375 30.15 13.4125C30.4833 13.6875 30.725 14.05 30.875 14.5L31.925 17.9C32.125 18.55 32.1208 19.1417 31.9125 19.675C31.7042 20.2083 31.4083 20.6667 31.025 21.05ZM24.225 20C24.675 20 25.0167 19.8458 25.25 19.5375C25.4833 19.2292 25.575 18.8833 25.525 18.5L24.975 15H23.025V18.7C23.025 19.05 23.1417 19.3542 23.375 19.6125C23.6083 19.8708 23.8917 20 24.225 20ZM19.725 20C20.1083 20 20.4208 19.8708 20.6625 19.6125C20.9042 19.3542 21.025 19.05 21.025 18.7V15H19.075L18.525 18.5C18.4583 18.9 18.5458 19.25 18.7875 19.55C19.0292 19.85 19.3417 20 19.725 20ZM15.275 20C15.575 20 15.8375 19.8917 16.0625 19.675C16.2875 19.4583 16.425 19.1833 16.475 18.85L17.025 15H15.075L14.075 18.35C13.975 18.6833 14.0292 19.0417 14.2375 19.425C14.4458 19.8083 14.7917 20 15.275 20ZM28.775 20C29.2583 20 29.6083 19.8083 29.825 19.425C30.0417 19.0417 30.0917 18.6833 29.975 18.35L28.925 15H27.025L27.575 18.85C27.625 19.1833 27.7625 19.4583 27.9875 19.675C28.2125 19.8917 28.475 20 28.775 20ZM15.025 29H29.025V21.95C28.9417 21.9833 28.8875 22 28.8625 22H28.775C28.325 22 27.9292 21.925 27.5875 21.775C27.2458 21.625 26.9083 21.3833 26.575 21.05C26.275 21.35 25.9333 21.5833 25.55 21.75C25.1667 21.9167 24.7583 22 24.325 22C23.875 22 23.4542 21.9167 23.0625 21.75C22.6708 21.5833 22.325 21.35 22.025 21.05C21.7417 21.35 21.4125 21.5833 21.0375 21.75C20.6625 21.9167 20.2583 22 19.825 22C19.3417 22 18.9042 21.9167 18.5125 21.75C18.1208 21.5833 17.775 21.35 17.475 21.05C17.125 21.4 16.7792 21.6458 16.4375 21.7875C16.0958 21.9292 15.7083 22 15.275 22H15.1625C15.1208 22 15.075 21.9833 15.025 21.95V29Z" fill="white"/>
</g>
</svg>
