<?xml version="1.0" encoding="UTF-8"?>
<svg id="Layer_1" data-name="Layer 1" xmlns="http://www.w3.org/2000/svg" viewBox="0 0 1601.44 384.64">
  <defs>
    <style>
      .cls-1 {
        fill: #343f55;
      }

      .cls-1, .cls-2, .cls-3, .cls-4, .cls-5, .cls-6, .cls-7, .cls-8, .cls-9, .cls-10, .cls-11 {
        stroke-width: 0px;
      }

      .cls-2 {
        fill: #313d53;
      }

      .cls-3 {
        fill: #344056;
      }

      .cls-4 {
        fill: #333e54;
      }

      .cls-5 {
        fill: #354156;
      }

      .cls-6 {
        fill: #333f55;
      }

      .cls-7 {
        fill: #ea6d47;
      }

      .cls-8 {
        fill: #fdfdfd;
      }

      .cls-9 {
        fill: #323e54;
      }

      .cls-10 {
        fill: #333f54;
      }

      .cls-11 {
        fill: #fefefe;
      }
    </style>
  </defs>
  <path class="cls-7" d="M1524.67,11.98c-26.91-9.35-55.84-2.71-69.26,29.59-7.52,18.1-6.92,37.41-7.15,56.53-.03,2.19,1.29,2.34,2.93,2.33,24.14-.14,48.29.26,72.43-.53,16.31-.53,32.59-1.48,48.77-3.6,4.16-.55,3.73,1.87,3.73,4.44-.02,27.61-.01,55.23-.01,82.84,0,25.45-.02,50.9.03,76.36,0,3.48.14,7,.66,10.44,1.89,12.38,6.23,16.46,18.78,18.01,3.05.38,6.37,0,5.79,5.03-.33,2.89-1.2,3.58-3.94,3.48-12.81-.46-25.64-.51-38.44-1.13-20.99-1.01-41.92.46-62.88.82-1.66.03-3.32.23-4.98.2-2.09-.04-4.86,1.24-4.86-2.85,0-3.1.12-5.02,4.15-5.53,10.87-1.38,14.32-4.86,16.29-15.62.62-3.41.75-6.94.75-10.42.05-40.76.03-81.51.03-122.27,0-5.67-.45-11.27-2.11-16.75-2.91-9.64-8.72-14.6-18.8-14.9-11.65-.34-23.32-.01-34.97-.23-3.76-.07-3.37,2.12-3.37,4.5.02,23.12,0,46.25,0,69.37,0,26.45-.02,52.9.03,79.35,0,2.98.12,6.01.69,8.92,2.11,10.94,8.07,16.33,19.23,17.75,1.32.17,2.65.48,3.97.43,3.73-.16,5.28,1.19,4.99,5.21-.35,4.72-3.63,3.07-5.85,2.99-21.12-.73-42.25-1.5-63.39-1.24-16.14.2-32.27.95-48.41,1.33-1.96.05-4.98,1.53-5.11-2.58-.1-3.17-.36-6.22,4.33-5.69.64.07,1.32-.15,1.98-.22,12.09-1.36,17.36-6.67,18.56-18.87.28-2.81.31-5.65.31-8.47.02-49.07-.04-98.15.11-147.22.01-4.22-.79-5.94-5.4-5.59-5.8.44-11.66-.08-17.48.17-3.52.15-3.54-1.72-3.64-4.32-.11-2.86.92-3.73,3.72-3.66,6.32.17,12.66-.05,18.99.1,2.68.07,3.69-.59,3.81-3.53.73-17.37,4.79-33.84,14-48.81,14.68-23.87,35.85-38.3,63.32-43.69,28.96-5.69,57.87-6.88,86.34,2.28,11.08,3.57,21.56,8.53,29.11,18.31,11.91,15.44,9.47,44.13-18.18,49.66-14.59,2.92-29.19,3.37-43.26-2.15-21.43-8.41-25.34-35.79-7.5-50.31,6.08-4.95,13.24-7.52,21.16-10.26Z"/>
  <path class="cls-2" d="M610.69,122.04c4.48-5.58,8.09-10.06,12.68-13.63,14.63-11.33,31.73-13.85,49.49-13.81,7.84.02,15.62,1.01,23.12,3.43,18.54,5.99,25.63,20.3,27.78,38.23.77,6.46,1.11,12.92,1.11,19.41,0,34.27-.03,68.53.04,102.8,0,4.48.32,8.98.87,13.42,1.32,10.83,5.65,15.22,16.49,16.58,2.9.37,4.41.88,4.29,4.34-.12,3.28-.98,4.21-4.34,4.04-32.93-1.7-65.87-1.66-98.81-.09-2.13.1-4.57.76-4.37-2.84.14-2.55-.75-5.27,3.56-5.53,7.37-.46,11.22-5.1,12.57-12.06.93-4.74,1.34-9.55,1.34-14.38.02-40.92.01-81.84,0-122.76,0-1.99-.12-3.99-.36-5.96-2.12-17.44-16.11-24.25-31.46-15.22-8.82,5.18-13.92,12.89-13.95,23.25-.1,41.09-.06,82.17.03,123.26,0,3.97.54,7.98,1.29,11.88,1.28,6.63,4.88,11.44,12.12,11.91,4.18.27,4.02,2.63,4.05,5.64.03,4.15-2.87,2.87-4.88,2.76-32.61-1.74-65.21-1.3-97.82.04-2.18.09-4.79,1.08-4.67-2.97.09-3.05.02-4.98,4.16-5.4,10.47-1.05,14.17-4.87,16.22-15.1.76-3.78.88-7.59.88-11.42,0-72.36,0-144.72,0-217.08,0-6.51-.47-12.95-2.41-19.22-2.35-7.63-7.46-12.29-15.43-12.78-4.6-.28-3.06-3.13-3.36-5.44-.43-3.33,1.8-2.83,3.8-2.69,27.68,1.85,55.23.85,82.58-3.94,4.62-.81,3.34,2.43,3.34,4.58.05,36.59.03,73.19.03,109.79v6.94Z"/>
  <path class="cls-7" d="M1084.32,120.33c8.18-10.27,18.1-17.53,30.33-21.35,17.71-5.54,35.72-6.22,53.64-1.23,17.04,4.74,25.37,17.13,28.2,33.92,1.64,9.72,2,19.5,2,29.32,0,33.93.02,67.86-.02,101.78,0,3.84.27,7.64,1.02,11.4,1.77,8.89,5.99,12.75,15,14.21,2.08.34,5.18-.68,5.18,3.55,0,3.71-.65,5.21-4.91,4.99-18.61-.99-37.23-1.74-55.87-1.43-13.97.23-27.94.9-41.91,1.3-1.93.06-4.61,1.2-4.57-2.58.03-2.82-.54-5.3,3.77-5.89,7.73-1.06,10.73-4.49,12.41-12.16,1.26-5.74,1.25-11.57,1.26-17.38.05-39.08.04-78.17,0-117.25,0-4.64.05-9.31-1.17-13.87-2.3-8.59-7.13-12.62-15.92-13.12-15.23-.87-28.37,11.19-28.4,26.43-.09,41.41-.04,82.82-.02,124.24,0,3.83.27,7.63,1.14,11.39,1.54,6.65,5.1,11.28,12.3,11.79,4.39.31,3.82,3.1,3.77,5.92-.06,3.74-2.84,2.55-4.72,2.47-17.79-.7-35.58-1.61-53.39-1.29-14.8.27-29.6.88-44.4,1.34-2.28.07-4.78.79-4.74-3.09.03-2.94.15-4.71,3.95-5.25,11.4-1.62,14.66-5.08,16.58-16.49.49-2.93.74-5.95.74-8.92.02-42.24-.02-84.49-.05-126.73,0-4.85-.8-9.62-2.11-14.27-2.17-7.73-6.89-13.06-15.28-13.54-4.24-.24-3.68-2.61-3.79-5.3-.15-3.6,2.24-2.96,4.36-2.83,27.34,1.71,54.54.53,81.57-3.95,3.01-.5,4.22.16,4.11,3.46-.22,6.8-.07,13.62-.07,20.43Z"/>
  <path class="cls-7" d="M889.97,276.09c-13.57,18.04-31.94,24.73-52.98,25.91-9.32.52-18.63.31-27.81-1.9-16.22-3.9-26.72-13.56-30.5-30-2.13-9.27-2.95-18.7-2.95-28.21,0-33.27.02-66.54-.02-99.8,0-7.15-.41-14.29-2.64-21.18-2.38-7.38-7.24-12.01-15.11-12.42-4.46-.23-3.33-3.02-3.5-5.5-.22-3.32,2.07-2.74,4.01-2.62,27.34,1.76,54.55.59,81.58-3.94,4.6-.77,4.32,1.7,4.32,4.74-.04,52.23-.03,104.46-.02,156.69,0,4.83.24,9.58,1.96,14.23,2.3,6.19,6.75,9.31,13.07,9.97,17,1.78,30.38-10.24,30.53-27.74.19-21.29.07-42.58.04-63.87-.03-18.3-.11-36.59-.2-54.89-.03-5.02-.9-9.92-2.42-14.7-2.35-7.37-7.19-12.08-15.1-12.37-4.44-.16-3.4-2.84-3.6-5.35-.3-3.71,2.2-2.9,4.27-2.77,27.34,1.73,54.55.58,81.58-3.97,5.01-.84,4.06,2.31,4.06,5,.01,51.73.02,103.46,0,155.2,0,5.84.5,11.6,1.95,17.29,2.09,8.22,6.68,13.8,15.55,14.48,4.55.35,3.61,3.29,3.6,5.95-.02,3.97-2.83,2.2-4.67,2.11-27.01-1.37-53.93-.64-80.63,3.9-4.07.69-4.48-.7-4.41-3.98.14-6.76.04-13.52.04-20.28Z"/>
  <path class="cls-2" d="M463.92,110.13c-12.24-8.44-31.78-4.11-41.32,8.77-7.84,10.59-11.02,23.07-13.35,35.63-3.98,21.36-4.99,42.89-1.31,64.49,3.67,21.53,17.54,37.62,36.35,40.85,21.64,3.72,38.72-4.62,52.13-21.3,1.74-2.16,3.02-3.53,6.07-2.18,2.32,1.03,3.06,2.04,2.16,4.44-8.21,21.92-20.55,40.75-41.38,52.58-17.97,10.22-37.63,10.54-57.33,7.11-40.42-7.03-64.98-34.01-69.78-76.07-2.55-22.28-2.77-44.49,3.58-66.28,10.28-35.26,34.61-54.92,69.98-61.57,21.3-4.01,42.44-2.62,62.96,4.82,25.46,9.22,38.46,33.91,30.37,57.53-4.77,13.93-17.55,23.08-32.72,23.44-17.08.4-29.26-6.19-34.15-19.79-7.39-20.52,1.11-40.76,22.17-50.21,1.65-.74,3.36-1.37,5.57-2.26Z"/>
  <path class="cls-2" d="M264.32,179.74c-14.82,0-29.63,0-44.45,0-2.1,0-4.49-.57-4.59,2.87-.43,15.83-.33,31.63,4.56,46.91,9.72,30.37,39.56,39.91,67.1,23.02,6.45-3.96,11.79-9.23,16.16-15.38,2.13-3,4.04-.67,6.05-.2,2.23.52,1.67,1.96,1.11,3.48-9.1,24.7-23.01,45.62-48.2,56.19-35.56,14.92-81.63,1.63-101.81-28.66-8.49-12.74-12.55-27.08-14.46-42.05-3.06-23.94-3.23-47.83,4.39-71.07,11.04-33.66,35.31-52.03,69.43-58.36,13.17-2.44,26.42-2.67,39.7-.34,28.4,4.98,43.97,22.86,50.62,49.79,2.4,9.72,3.24,19.64,3.51,29.64.09,3.23-.87,4.26-4.17,4.22-14.98-.16-29.97-.07-44.95-.07Z"/>
  <path class="cls-2" d="M97.3,39.46c0,18.57.13,37.02-.1,55.46-.05,4.16,1.14,5.35,5.27,5.22,9.48-.3,18.98.05,28.47-.17,3.41-.08,3.64,1.49,3.72,4.19.09,2.98-1.12,3.58-3.8,3.55-9.82-.13-19.65.08-29.47-.12-3.32-.07-4.16.98-4.16,4.23.1,50.89.02,101.78.11,152.68.02,12.41,6.56,16.76,18.31,12.7,4.35-1.5,8.31-3.68,11.21-7.18,2.23-2.69,3.61-1.53,5.69-.04,2.29,1.64,2.3,2.95.79,5.22-8.67,13.03-20.23,21.88-35.7,25.25-12.42,2.7-24.84,2.5-37.11-.68-17.57-4.55-28.14-17.53-30.25-36.66-.95-8.6-1.34-17.24-1.35-25.89-.02-41.41-.09-82.82.11-124.24.02-4.54-1.3-5.68-5.61-5.43-6.31.37-12.65-.02-18.98.15-2.97.08-4.39-.37-4.45-3.96-.07-3.99,2.06-3.74,4.69-3.72,6.49.05,13-.18,19.48.09,3.64.15,4.94-.8,4.85-4.67-.26-11.14-.09-22.28-.09-33.43q0-6.75,6.54-6.94c19.02-.52,37.34-4.02,54.49-12.6,2.08-1.04,4.14-2.13,6.21-3.18.12-.06.32.04,1.14.16Z"/>
  <path class="cls-7" d="M1321.38,184.02c0,25.44,0,50.87,0,76.31,0,4.32.12,8.62.91,12.91,1.81,9.79,5.73,13.59,15.71,15.19,2.05.33,4.69-.28,4.7,3.53.02,3.78-.78,5.18-4.97,4.96-18.93-.99-37.89-1.73-56.85-1.43-14.96.24-29.92.88-44.88,1.32-2.04.06-4.5.93-4.49-2.74.01-2.98-.13-5.1,4.03-5.64,11.54-1.5,15.77-6.28,16.87-17.91.23-2.48.34-4.98.34-7.47.02-41.39.02-82.79,0-124.18,0-6.51-.68-12.89-2.93-19.1-2.48-6.85-7.25-10.87-14.36-11.22-4.56-.23-3.87-2.82-3.91-5.61-.06-3.8,2.66-2.62,4.56-2.51,27.16,1.68,54.19.51,81.04-3.97,4.02-.67,4.29,1.08,4.28,4.27-.09,27.76-.05,55.53-.05,83.29Z"/>
  <path class="cls-7" d="M1285.1.4c8.68-.3,17.57.87,25.71,5.15,11.64,6.1,15.92,16.34,15.51,28.98-.4,12.44-5.85,21.88-17.5,26.64-15.56,6.37-31.6,6.47-47.21.38-13.45-5.25-19.29-16.46-18.13-32.18.98-13.27,9.23-23.04,22.44-26.75,6.15-1.73,12.4-2.36,19.18-2.22Z"/>
  <path class="cls-9" d="M131.53,337.89c-3.58,8.27-6.99,16.1-10.37,23.93-2.37,5.49-4.59,11.04-7.14,16.44-.76,1.62-.5,4.55-3.18,4.45-2.25-.09-2.1-2.7-2.79-4.26-5.46-12.29-10.8-24.63-16.24-36.93-.56-1.27-.72-2.88-2.71-3.84,0,13.85.02,27.4-.04,40.94,0,1.37.84,3.37-.89,4.01-1.84.67-3.97.9-3.95-2.42.08-15.95.05-31.91.02-47.87,0-1.76.4-2.97,2.43-2.86,2.35.12,4.8-.76,6.18,2.57,5.08,12.27,10.46,24.42,15.74,36.6.64,1.47,1.35,2.91,2.49,5.37,3.33-7.63,6.28-14.38,9.22-21.14,2.91-6.7,6.02-13.33,8.58-20.16,1.28-3.4,3.53-3.47,6.27-3.24,3.73.31,2.14,3.24,2.15,4.98.13,14.62.12,29.25.01,43.88-.01,1.73,1.47,4.71-2.48,4.56-3.86-.14-2.28-3.08-2.3-4.81-.14-11.63-.05-23.27-.1-34.9,0-1.54.52-3.21-.91-5.31Z"/>
  <path class="cls-10" d="M1498.63,337.77v27.67c0,4.49.05,8.98-.02,13.47-.03,1.8.85,4.17-2.6,4.04-3.1-.11-2.3-2.26-2.3-3.89-.05-11.97-.03-23.94-.03-35.91,0-2.83-.17-5.67.06-8.47.15-1.76-1.34-4.4,1.53-5.07,2.64-.62,4.96-.14,6.82,2.63,8.69,12.98,17.63,25.79,26.49,38.66.92,1.34,1.88,2.64,2.91,4.08,1.73-1.55.97-3.3.98-4.8.07-12.14.02-24.27.07-36.41,0-1.8-.87-4.26,2.47-4.3,3.52-.05,2.36,2.58,2.37,4.27.07,14.96.08,29.93-.01,44.89,0,1.41,1.19,3.74-1.25,4.14-2.32.38-4.75.75-6.59-2-7.21-10.77-14.67-21.37-22.04-32.04-2.6-3.76-5.23-7.5-7.84-11.25-.34.1-.67.2-1.01.3Z"/>
  <path class="cls-9" d="M671.81,375.05c0-12.72,0-25.27,0-37.81,0-1.5.05-2.99-.01-4.49-.07-1.82.05-3.23,2.5-3.32,2.57-.09,2.49,1.43,2.48,3.2-.03,9.31-.01,18.61-.01,27.92,0,5.82.16,11.64-.11,17.44-.07,1.58,1.78,4.35-1.52,4.84-2.62.39-4.88.2-6.75-2.69-6.14-9.47-12.71-18.67-19.15-27.95-3.39-4.89-6.83-9.75-10.27-14.66-1.74,1.11-1,2.57-1,3.74-.07,12.13.05,24.26-.14,36.39-.03,1.78,1.99,5.07-2.26,5.23-4.3.16-2.53-3.16-2.55-4.99-.14-14.46-.13-28.91,0-43.37.01-1.69-1.42-4.34,1.62-4.96,2.71-.55,4.96-.02,6.79,2.72,8.97,13.38,18.16,26.61,27.3,39.88.7,1.02,1.06,2.44,3.08,2.88Z"/>
  <path class="cls-9" d="M702.22,356.79c-.09-16.24,11.29-27.96,27.26-28.09,16.07-.13,27.54,11.23,27.8,27.53.26,16.32-11.42,28.38-27.5,28.38-15.98,0-27.48-11.61-27.56-27.82Z"/>
  <path class="cls-9" d="M1128.29,356.68c-.03-16.37,11.22-27.92,27.27-27.98,16.06-.06,27.54,11.39,27.69,27.64.15,16.39-11.5,28.32-27.62,28.27-16.02-.05-27.31-11.58-27.35-27.93Z"/>
  <path class="cls-9" d="M1468.45,356.39c.06,16.59-11.37,28.29-27.57,28.22-15.91-.07-27.41-11.8-27.41-27.99,0-16.2,11.45-27.87,27.44-27.91,16.1-.05,27.49,11.4,27.55,27.69Z"/>
  <path class="cls-9" d="M885.89,356.62c-.03,16.32-11.35,27.9-27.34,27.98-16.07.08-27.82-11.88-27.72-28.22.1-16.15,11.67-27.72,27.7-27.68,16.01.03,27.39,11.64,27.36,27.92Z"/>
  <path class="cls-9" d="M954.9,367.05c0,1.66,0,3.32,0,4.99q0,8.81-8.89,11.15c-15.49,4.07-28.62-.61-35.03-12.5-6.18-11.45-3.72-27.07,5.56-35.31,8.96-7.97,24.23-9.06,33.88-2.26,1.44,1.01,4.65,1.59,2.46,4.72-2.05,2.93-3.56.69-5.26-.47-7.83-5.32-18.74-5.14-26.22.38-7.73,5.71-10.81,16.67-7.6,27.03,2.69,8.68,10.73,14.65,20.26,15.06,14.32.61,19.05-5.16,15.85-19.08-.45-1.95-1.58-1.78-2.88-1.79-2.33-.03-4.66-.08-6.99.01-1.77.07-2.84-.3-2.7-2.42.1-1.6.57-2.46,2.32-2.44,4.33.05,8.65.06,12.98,0,2.22-.03,2.28,1.38,2.27,2.97-.02,3.32,0,6.65,0,9.97Z"/>
  <path class="cls-9" d="M265.43,382.41c-3.83,1.23-5.78.11-7.43-2.87-3.54-6.38-7.45-12.55-11.25-18.78-1.38-2.27-7.5-3.78-9.71-2.46-1.47.87-.98,2.34-.99,3.59-.05,5.81-.02,11.62-.02,17.44,0,1.82.35,3.64-2.6,3.63-3.13-.01-2.37-2.1-2.38-3.75-.03-15.28.06-30.55-.09-45.83-.03-3.02.75-4.16,3.88-3.98,5.63.33,11.3-.36,16.91.62,7.2,1.26,11.58,5.77,12.1,12.5.57,7.39-2.56,12.55-9.82,14.72-3.5,1.05-3.16,2.18-1.59,4.6,4.32,6.67,8.49,13.42,12.98,20.55Z"/>
  <path class="cls-6" d="M564.98,356.05c0-7.48-.03-14.97.02-22.45.01-1.84-.78-4.24,2.59-4.14,3.42.1,2.35,2.61,2.39,4.35.11,5.32.18,10.65-.01,15.96-.1,2.88.97,3.74,3.75,3.69,7.49-.14,14.99-.16,22.47,0,2.95.07,3.68-1.1,3.6-3.82-.16-5.65-.01-11.31-.07-16.96-.02-1.86.16-3.25,2.58-3.24,2.5.01,2.46,1.56,2.46,3.33-.02,15.63-.02,31.26,0,46.89,0,1.71.19,3.24-2.41,3.3-2.98.07-2.6-1.78-2.6-3.6,0-5.65-.22-11.32.08-16.96.2-3.66-1.18-4.48-4.56-4.36-6.82.24-13.67.36-20.47-.03-4.23-.24-5.02,1.4-4.84,5.11.27,5.47.08,10.97.06,16.46,0,1.61.42,3.31-2.3,3.38-2.84.08-2.76-1.5-2.75-3.47.04-7.82.02-15.63.02-23.45Z"/>
  <path class="cls-6" d="M438.82,356.29c0-7.65.14-15.3-.07-22.94-.09-3.11.92-4.01,3.96-3.95,8.32.18,16.65.05,24.97.08,1.6,0,3.46-.36,3.59,2.24.15,3.08-2.05,2.42-3.74,2.43-6.49.04-12.99.16-19.48-.04-3.14-.09-4.66.67-4.29,4.12.53,4.9-2.03,11.15,1.12,14.38,2.72,2.79,8.88.6,13.51.8,1.99.09,4.03-.21,5.98.08,1.92.28,5.27-1.64,5.21,2.46-.05,3.81-3.21,2.02-4.93,2.09-5.65.24-11.32.25-16.97.03-3.11-.12-4.1.97-3.93,3.99.3,5.11-1.61,11.79.95,14.94,2.71,3.33,9.67.81,14.76,1.06,3.32.16,6.66.07,9.99.01,1.87-.03,3.22.18,3.23,2.6,0,2.28-1.34,2.26-2.93,2.26-9.32-.02-18.65-.09-27.97.04-2.53.04-3.03-.96-3-3.22.11-7.81.04-15.63.04-23.44Z"/>
  <path class="cls-10" d="M1259.36,349.86c0-6.5,0-11.82,0-17.14,0-1.69-.24-3.36,2.4-3.29,2.38.06,2.6,1.36,2.59,3.24-.05,9.14-.02,18.28-.02,27.42,0,2.83.1,5.63.78,8.41,1.84,7.45,6.48,11.35,13.67,11.34,7.16-.01,11.82-3.9,13.57-11.43,1.68-7.22.7-14.57.89-21.86.12-4.65.07-9.3,0-13.96-.03-1.93.3-3.23,2.67-3.13,2.16.1,2.28,1.45,2.24,3.06-.31,11.95.81,23.94-.63,35.85-1.2,9.91-7.79,15.73-17.72,16.24-10.22.52-17.2-4.69-19.59-14.58-1.71-7.06-.4-14.24-.86-20.17Z"/>
  <path class="cls-9" d="M494.55,356.49c.07-19.48,17.09-32.26,35.34-26.59,3.09.96,5.76,2.58,8.07,4.79,1.15,1.1,2.88,2.13.73,3.94-1.42,1.19-2.31,1.57-4.12.06-12.29-10.32-30.28-4.5-34.23,11.08-2.26,8.93-.95,17.4,5.93,23.98,5.92,5.66,13.2,7.43,21.26,5.12,3.11-.89,5.87-2.48,8-4.86,1.61-1.81,2.88-2.59,4.77-.49,2.06,2.29-.39,3.21-1.42,4.25-12.13,12.18-34.96,7.44-41.88-8.64-1.73-4.03-2.52-8.25-2.45-12.64Z"/>
  <path class="cls-4" d="M40.98,384.61c-4.31-.29-9.19-1.31-13.01-4.9-1.11-1.04-4.26-1.98-1.67-4.52,1.9-1.88,3.32-1.46,5.28.54,4.38,4.47,9.87,5.22,15.63,2.87,3.85-1.57,6.07-4.54,6.27-8.81.19-4.18-1.84-7-5.58-8.55-3.06-1.26-6.21-2.33-9.35-3.39-6.51-2.21-11.85-5.45-12.36-13.23-.43-6.47,2.48-11.51,8.14-14.12,6.79-3.13,15.97-2.18,20.68,2.34.91.87,3.56,1.65,1.26,3.74-1.42,1.29-2.72,2.26-4.59.26-3.45-3.69-7.95-3.82-12.52-2.88-4.3.88-7.21,3.45-7.93,7.89-.75,4.63,1.03,8.26,5.35,10.19,3.32,1.48,6.85,2.51,10.29,3.71,9.46,3.29,12.84,8.4,11.33,17.1-1.19,6.82-8.1,11.76-17.2,11.76Z"/>
  <path class="cls-9" d="M1582.52,328.7c3.49.12,7.85,1.02,11.24,4.4.86.86,3.01,1.72,1.04,3.45-1.34,1.17-2.62,2.47-4.58.38-3.58-3.81-8.25-3.95-12.98-2.88-4.29.97-7.08,3.7-7.72,8.11-.65,4.44,1.28,7.67,5.21,9.84,3.54,1.96,7.52,2.59,11.26,3.95,8.09,2.96,11.62,7.85,10.92,15.15-.66,6.92-5.62,11.9-13.48,13.16-6.56,1.06-12.56-.46-17.54-5.01-.97-.88-3.57-1.75-1.52-3.76,1.52-1.49,3.11-2.59,5.33-.09,4.19,4.71,9.67,5.5,15.49,3.37,4.13-1.5,6.48-4.58,6.73-9,.23-4.15-1.9-7-5.6-8.55-3.2-1.34-6.54-2.37-9.83-3.51-9.13-3.17-13.18-9.03-11.75-17.03,1.3-7.29,7.79-11.94,17.8-11.97Z"/>
  <path class="cls-9" d="M1087.83,384.6c-4.82-.32-10.06-1.67-14.09-5.92-.9-.95-2.78-2.03-.55-3.46,1.4-.9,2.65-2.54,4.6-.27,4.11,4.78,9.38,5.97,15.35,3.99,4.38-1.46,6.96-4.43,7.3-9.09.32-4.47-2.16-7.22-6.01-8.8-4.14-1.7-8.49-2.93-12.59-4.72-6.72-2.93-9.23-7.46-8.59-14.67.54-6.06,4.3-10.37,10.86-12.11,6.44-1.71,12.59-1.16,17.85,3.33.92.78,3.57,1.63,1.27,3.71-1.4,1.27-2.72,2.29-4.61.29-3.45-3.66-7.95-3.88-12.53-2.88-4.22.92-7.23,3.3-7.9,7.86-.68,4.65.94,8.28,5.3,10.2,3.33,1.47,6.84,2.51,10.29,3.7,9.22,3.18,12.85,8.46,11.4,16.62-1.31,7.35-7.98,12.28-17.35,12.23Z"/>
  <path class="cls-10" d="M976.47,329.96c3.94-1.21,6.01-.1,7.84,3.02,4.19,7.13,8.82,14,13.78,21.78,3.41-5.26,6.1-10.34,9.69-14.68,3.23-3.89,3.52-11.38,12.16-10.46-5.26,8.22-10.01,16.1-15.24,23.65-3.06,4.43-4.69,8.9-4.2,14.32.37,4.11-.01,8.29.11,12.44.06,2.07-.49,2.97-2.76,2.93-2.25-.04-2.53-1.32-2.22-2.89,3.25-16.74-4.91-29.63-14.13-42.21-1.75-2.39-3.19-5-5.03-7.89Z"/>
  <path class="cls-5" d="M1337.57,358.45c0-6.97-.09-13.94.05-20.91.05-2.57-.77-3.54-3.4-3.42-3.98.18-7.97.03-11.96.05-1.6.01-2.89-.02-2.87-2.28.02-2.12,1.1-2.45,2.81-2.45,11.96.02,23.92.02,35.89,0,1.69,0,2.86.37,2.9,2.45.04,2.27-1.39,2.26-2.96,2.26-3.66,0-7.34.28-10.96-.07-3.92-.38-4.67,1.19-4.61,4.79.21,13.27.12,26.55.03,39.82-.01,1.62,1.3,4.19-2.3,4.25-3.44.06-2.57-2.3-2.59-4.1-.06-6.8-.02-13.61-.02-20.41Z"/>
  <path class="cls-1" d="M392.97,357.94c0-6.81-.1-13.62.05-20.43.06-2.6-.76-3.53-3.4-3.4-3.98.19-7.98.02-11.97.06-1.67.02-2.86-.18-2.82-2.36.04-2.18,1.33-2.35,2.95-2.35,11.81,0,23.61,0,35.42,0,1.61,0,2.91.16,2.98,2.34.08,2.65-1.67,2.36-3.32,2.36-3.49,0-7,.23-10.47-.06-3.48-.29-4.52.83-4.46,4.37.21,13.45.12,26.91.04,40.36,0,1.68,1.13,4.13-2.44,4.14-3.49.01-2.52-2.34-2.54-4.1-.07-6.98-.03-13.95-.03-20.93Z"/>
  <path class="cls-3" d="M301.95,358.7c0-6.97-.12-13.95.06-20.92.07-2.8-.74-3.83-3.63-3.67-3.98.22-7.98.05-11.97.05-1.42,0-2.61-.05-2.63-2.04-.01-1.94.78-2.67,2.65-2.66,11.97.02,23.94.02,35.91,0,1.76,0,2.77.45,2.79,2.51.02,2.32-1.43,2.2-2.97,2.2-3.66,0-7.34.24-10.97-.07-3.65-.31-4.39,1.18-4.34,4.53.17,13.45.08,26.9.06,40.35,0,1.87.69,4.08-2.7,4-3.24-.08-2.21-2.29-2.23-3.84-.09-6.81-.04-13.62-.04-20.42Z"/>
  <path class="cls-3" d="M1208.42,356.28c0-7.48-.06-14.96.05-22.43.03-1.68-1.21-4.32,2.27-4.38,3.74-.07,2.6,2.74,2.61,4.62.07,13.13.19,26.26-.05,39.38-.07,3.76.96,4.9,4.71,4.68,5.47-.32,10.98-.08,16.47-.08,1.83,0,3.75-.32,3.73,2.57-.02,3.17-2.32,2.22-3.9,2.23-7.32.08-14.65-.17-21.96.12-3.51.14-4.06-1.23-3.99-4.28.19-7.47.06-14.95.06-22.43Z"/>
  <path class="cls-5" d="M782.49,356.28c0-7.31-.09-14.63.07-21.94.04-1.78-1.46-4.75,2.31-4.85,3.74-.1,2.55,2.8,2.56,4.66.08,12.96.24,25.93-.07,38.89-.1,4.3,1.27,5.37,5.32,5.1,5.3-.34,10.64-.07,15.97-.09,1.88,0,3.7-.23,3.69,2.62,0,2.77-1.89,2.21-3.44,2.21-7.65.03-15.31-.12-22.96.08-3.02.08-3.55-1.09-3.5-3.76.15-7.64.05-15.29.05-22.93Z"/>
  <path class="cls-5" d="M1382.49,355.95c0-7.65.03-15.3-.02-22.96-.01-1.97-.04-3.61,2.74-3.58,2.67.03,2.34,1.77,2.34,3.41,0,15.64,0,31.27,0,46.91,0,1.7.21,3.21-2.42,3.25-2.93.04-2.66-1.69-2.66-3.57.02-7.82,0-15.64,0-23.46Z"/>
  <path class="cls-11" d="M236.06,172.35c-6.32,0-12.63-.03-18.95.02-1.87.02-3.25-.11-3.03-2.6,1.59-17.68,2.67-35.46,9.4-52.2,1.49-3.7,3.46-7.19,6.37-10.02,6.12-5.96,13.46-5.34,18.18,1.75,4.83,7.24,6.29,15.67,7.52,24.03,1.72,11.66,2.45,23.42,2.45,35.23,0,3.16-1.01,3.95-3.99,3.85-5.98-.21-11.97-.06-17.95-.06Z"/>
  <path class="cls-11" d="M729.94,333.53c13.28.11,22.69,9.95,22.38,23.4-.32,13.62-9.86,23.1-23.04,22.9-12.99-.2-22.01-9.76-21.98-23.3.03-13.83,9.15-23.11,22.63-23Z"/>
  <path class="cls-11" d="M1133.21,356.57c.02-13.77,9.23-23.15,22.65-23.04,13.12.11,22.33,9.49,22.44,22.87.11,13.45-9.41,23.36-22.52,23.43-13.19.07-22.58-9.6-22.56-23.25Z"/>
  <path class="cls-11" d="M1463.46,356.56c.02,13.62-9.37,23.31-22.56,23.27-13.1-.04-22.6-9.92-22.5-23.41.09-13.4,9.33-22.83,22.41-22.89,13.45-.06,22.62,9.27,22.65,23.03Z"/>
  <path class="cls-11" d="M880.85,357c-.17,13.59-9.71,23.06-22.99,22.83-12.85-.23-22.07-10.01-22.01-23.36.07-13.69,9.41-23.08,22.81-22.94,13.4.15,22.36,9.62,22.19,23.47Z"/>
  <path class="cls-8" d="M236.03,343.61q0-9.53,9.72-9.44c1.16.01,2.33-.01,3.47.15,6.22.92,10.01,4.79,9.77,9.9-.24,4.99-4.01,8.41-10.08,9.09-.98.11-1.98.09-2.98.1q-9.9.11-9.9-9.8Z"/>
  <path class="cls-9" d="M188.51,333.39c-.81-1.94-1.21-4.02-4.23-4.02-3.04,0-3.41,2.17-4.23,4.06-5.74,13.23-11.45,26.47-17.16,39.71-1.34,3.09-2.68,6.19-4.12,9.53,2.74.2,5.36,1.13,5.9-1.93,1.98-11.21,9.63-12.55,18.97-11.3,1.47.2,2.99.03,4.48.03,9.82,0,9.98-.06,13.67,9.2,1.4,3.51,3.1,5.27,7.23,3.75-6.84-16.34-13.67-32.68-20.51-49.02ZM193.15,364.66c-6.29-.08-12.58-.05-18.88-.02-1.88,0-2.29-.65-1.54-2.4,3.63-8.45,7.18-16.94,11.33-26.75,4,9.65,7.38,17.87,10.82,26.08.78,1.87.99,3.13-1.74,3.09Z"/>
</svg>