<svg width="44" height="44" viewBox="0 0 44 44" fill="none" xmlns="http://www.w3.org/2000/svg">
<rect x="1" y="1" width="42" height="42" rx="21" stroke="white" stroke-width="2"/>
<path d="M22 32C20.2333 32 18.7917 31.7208 17.675 31.1625C16.5583 30.6042 16 29.8833 16 29C16 28.6 16.1208 28.2292 16.3625 27.8875C16.6042 27.5458 16.9417 27.25 17.375 27L18.95 28.475C18.8 28.5417 18.6375 28.6167 18.4625 28.7C18.2875 28.7833 18.15 28.8833 18.05 29C18.2667 29.2667 18.7667 29.5 19.55 29.7C20.3333 29.9 21.15 30 22 30C22.85 30 23.6708 29.9 24.4625 29.7C25.2542 29.5 25.7583 29.2667 25.975 29C25.8583 28.8667 25.7083 28.7583 25.525 28.675C25.3417 28.5917 25.1667 28.5167 25 28.45L26.55 26.95C27.0167 27.2167 27.375 27.5208 27.625 27.8625C27.875 28.2042 28 28.5833 28 29C28 29.8833 27.4417 30.6042 26.325 31.1625C25.2083 31.7208 23.7667 32 22 32ZM22.025 26.5C23.675 25.2833 24.9167 24.0625 25.75 22.8375C26.5833 21.6125 27 20.3833 27 19.15C27 17.45 26.4583 16.1667 25.375 15.3C24.2917 14.4333 23.1667 14 22 14C20.8333 14 19.7083 14.4333 18.625 15.3C17.5417 16.1667 17 17.45 17 19.15C17 20.2667 17.4083 21.4292 18.225 22.6375C19.0417 23.8458 20.3083 25.1333 22.025 26.5ZM22 29C19.65 27.2667 17.8958 25.5833 16.7375 23.95C15.5792 22.3167 15 20.7167 15 19.15C15 17.9667 15.2125 16.9292 15.6375 16.0375C16.0625 15.1458 16.6083 14.4 17.275 13.8C17.9417 13.2 18.6917 12.75 19.525 12.45C20.3583 12.15 21.1833 12 22 12C22.8167 12 23.6417 12.15 24.475 12.45C25.3083 12.75 26.0583 13.2 26.725 13.8C27.3917 14.4 27.9375 15.1458 28.3625 16.0375C28.7875 16.9292 29 17.9667 29 19.15C29 20.7167 28.4208 22.3167 27.2625 23.95C26.1042 25.5833 24.35 27.2667 22 29ZM22 21C22.55 21 23.0208 20.8042 23.4125 20.4125C23.8042 20.0208 24 19.55 24 19C24 18.45 23.8042 17.9792 23.4125 17.5875C23.0208 17.1958 22.55 17 22 17C21.45 17 20.9792 17.1958 20.5875 17.5875C20.1958 17.9792 20 18.45 20 19C20 19.55 20.1958 20.0208 20.5875 20.4125C20.9792 20.8042 21.45 21 22 21Z" fill="white"/>
</svg>
