<svg width="12" height="12" viewBox="0 0 12 12" fill="none" xmlns="http://www.w3.org/2000/svg">
<path d="M4.43812 8.87624C3.19772 8.87624 2.14794 8.44666 1.28876 7.58748C0.429587 6.72831 0 5.67852 0 4.43812C0 3.19772 0.429587 2.14794 1.28876 1.28876C2.14794 0.429587 3.19772 0 4.43812 0C5.67852 0 6.72831 0.429587 7.58748 1.28876C8.44666 2.14794 8.87624 3.19772 8.87624 4.43812C8.87624 4.93883 8.79659 5.41109 8.63727 5.85491C8.47795 6.29872 8.26173 6.69132 7.98862 7.03272L11.8122 10.8563C11.9374 10.9815 12 11.1408 12 11.3343C12 11.5277 11.9374 11.6871 11.8122 11.8122C11.6871 11.9374 11.5277 12 11.3343 12C11.1408 12 10.9815 11.9374 10.8563 11.8122L7.03272 7.98862C6.69132 8.26173 6.29872 8.47795 5.85491 8.63727C5.41109 8.79659 4.93883 8.87624 4.43812 8.87624ZM4.43812 7.51067C5.29161 7.51067 6.01707 7.21195 6.61451 6.61451C7.21195 6.01707 7.51067 5.29161 7.51067 4.43812C7.51067 3.58464 7.21195 2.85917 6.61451 2.26174C6.01707 1.6643 5.29161 1.36558 4.43812 1.36558C3.58464 1.36558 2.85917 1.6643 2.26174 2.26174C1.6643 2.85917 1.36558 3.58464 1.36558 4.43812C1.36558 5.29161 1.6643 6.01707 2.26174 6.61451C2.85917 7.21195 3.58464 7.51067 4.43812 7.51067Z" fill="white"/>
</svg>
