<svg width="32" height="32" viewBox="0 0 32 32" fill="none" xmlns="http://www.w3.org/2000/svg">
<rect width="32" height="32" rx="16" fill="#EB6D47"/>
<path d="M14.4381 18.8762C13.1977 18.8762 12.1479 18.4467 11.2888 17.5875C10.4296 16.7283 10 15.6785 10 14.4381C10 13.1977 10.4296 12.1479 11.2888 11.2888C12.1479 10.4296 13.1977 10 14.4381 10C15.6785 10 16.7283 10.4296 17.5875 11.2888C18.4467 12.1479 18.8762 13.1977 18.8762 14.4381C18.8762 14.9388 18.7966 15.4111 18.6373 15.8549C18.478 16.2987 18.2617 16.6913 17.9886 17.0327L21.8122 20.8563C21.9374 20.9815 22 21.1408 22 21.3343C22 21.5277 21.9374 21.6871 21.8122 21.8122C21.6871 21.9374 21.5277 22 21.3343 22C21.1408 22 20.9815 21.9374 20.8563 21.8122L17.0327 17.9886C16.6913 18.2617 16.2987 18.478 15.8549 18.6373C15.4111 18.7966 14.9388 18.8762 14.4381 18.8762ZM14.4381 17.5107C15.2916 17.5107 16.0171 17.2119 16.6145 16.6145C17.2119 16.0171 17.5107 15.2916 17.5107 14.4381C17.5107 13.5846 17.2119 12.8592 16.6145 12.2617C16.0171 11.6643 15.2916 11.3656 14.4381 11.3656C13.5846 11.3656 12.8592 11.6643 12.2617 12.2617C11.6643 12.8592 11.3656 13.5846 11.3656 14.4381C11.3656 15.2916 11.6643 16.0171 12.2617 16.6145C12.8592 17.2119 13.5846 17.5107 14.4381 17.5107Z" fill="white"/>
</svg>
