<svg width="33" height="32" viewBox="0 0 33 32" fill="none" xmlns="http://www.w3.org/2000/svg">
<rect x="1" y="0.5" width="31" height="31" rx="15.5" fill="#313D53"/>
<rect x="1" y="0.5" width="31" height="31" rx="15.5" stroke="#313D53"/>
<path d="M14.9381 18.8762C13.6977 18.8762 12.6479 18.4467 11.7888 17.5875C10.9296 16.7283 10.5 15.6785 10.5 14.4381C10.5 13.1977 10.9296 12.1479 11.7888 11.2888C12.6479 10.4296 13.6977 10 14.9381 10C16.1785 10 17.2283 10.4296 18.0875 11.2888C18.9467 12.1479 19.3762 13.1977 19.3762 14.4381C19.3762 14.9388 19.2966 15.4111 19.1373 15.8549C18.978 16.2987 18.7617 16.6913 18.4886 17.0327L22.3122 20.8563C22.4374 20.9815 22.5 21.1408 22.5 21.3343C22.5 21.5277 22.4374 21.6871 22.3122 21.8122C22.1871 21.9374 22.0277 22 21.8343 22C21.6408 22 21.4815 21.9374 21.3563 21.8122L17.5327 17.9886C17.1913 18.2617 16.7987 18.478 16.3549 18.6373C15.9111 18.7966 15.4388 18.8762 14.9381 18.8762ZM14.9381 17.5107C15.7916 17.5107 16.5171 17.2119 17.1145 16.6145C17.7119 16.0171 18.0107 15.2916 18.0107 14.4381C18.0107 13.5846 17.7119 12.8592 17.1145 12.2617C16.5171 11.6643 15.7916 11.3656 14.9381 11.3656C14.0846 11.3656 13.3592 11.6643 12.7617 12.2617C12.1643 12.8592 11.8656 13.5846 11.8656 14.4381C11.8656 15.2916 12.1643 16.0171 12.7617 16.6145C13.3592 17.2119 14.0846 17.5107 14.9381 17.5107Z" fill="white"/>
</svg>
