<svg width="35" height="34" viewBox="0 0 35 34" fill="none" xmlns="http://www.w3.org/2000/svg">
<rect x="2" y="1.5" width="31" height="31" rx="15.5" stroke="#313D53" stroke-width="3"/>
<mask id="path-2-inside-1_3964_97" fill="white">
<path d="M25.1 26L18.8 19.7C18.3 20.1 17.725 20.4167 17.075 20.65C16.425 20.8833 15.7333 21 15 21C13.1833 21 11.6458 20.3708 10.3875 19.1125C9.12917 17.8542 8.5 16.3167 8.5 14.5C8.5 12.6833 9.12917 11.1458 10.3875 9.8875C11.6458 8.62917 13.1833 8 15 8C16.8167 8 18.3542 8.62917 19.6125 9.8875C20.8708 11.1458 21.5 12.6833 21.5 14.5C21.5 15.2333 21.3833 15.925 21.15 16.575C20.9167 17.225 20.6 17.8 20.2 18.3L26.5 24.6L25.1 26ZM15 19C16.25 19 17.3125 18.5625 18.1875 17.6875C19.0625 16.8125 19.5 15.75 19.5 14.5C19.5 13.25 19.0625 12.1875 18.1875 11.3125C17.3125 10.4375 16.25 10 15 10C13.75 10 12.6875 10.4375 11.8125 11.3125C10.9375 12.1875 10.5 13.25 10.5 14.5C10.5 15.75 10.9375 16.8125 11.8125 17.6875C12.6875 18.5625 13.75 19 15 19Z"/>
</mask>
<path d="M25.1 26L18.8 19.7C18.3 20.1 17.725 20.4167 17.075 20.65C16.425 20.8833 15.7333 21 15 21C13.1833 21 11.6458 20.3708 10.3875 19.1125C9.12917 17.8542 8.5 16.3167 8.5 14.5C8.5 12.6833 9.12917 11.1458 10.3875 9.8875C11.6458 8.62917 13.1833 8 15 8C16.8167 8 18.3542 8.62917 19.6125 9.8875C20.8708 11.1458 21.5 12.6833 21.5 14.5C21.5 15.2333 21.3833 15.925 21.15 16.575C20.9167 17.225 20.6 17.8 20.2 18.3L26.5 24.6L25.1 26ZM15 19C16.25 19 17.3125 18.5625 18.1875 17.6875C19.0625 16.8125 19.5 15.75 19.5 14.5C19.5 13.25 19.0625 12.1875 18.1875 11.3125C17.3125 10.4375 16.25 10 15 10C13.75 10 12.6875 10.4375 11.8125 11.3125C10.9375 12.1875 10.5 13.25 10.5 14.5C10.5 15.75 10.9375 16.8125 11.8125 17.6875C12.6875 18.5625 13.75 19 15 19Z" fill="#313D53"/>
<path d="M25.1 26L7.42233 43.6777L25.1 61.3553L42.7777 43.6777L25.1 26ZM18.8 19.7L36.4777 2.02233L20.6554 -13.7999L3.18262 0.17828L18.8 19.7ZM20.2 18.3L0.67828 2.68262L-13.2999 20.1554L2.52233 35.9777L20.2 18.3ZM26.5 24.6L44.1777 42.2777L61.8553 24.6L44.1777 6.92233L26.5 24.6ZM42.7777 8.32233L36.4777 2.02233L1.12233 37.3777L7.42233 43.6777L42.7777 8.32233ZM3.18262 0.17828C4.99847 -1.27439 6.88744 -2.25491 8.62838 -2.87987L25.5216 44.1799C28.5626 43.0882 31.6015 41.4744 34.4174 39.2217L3.18262 0.17828ZM8.62838 -2.87987C10.8521 -3.67811 13.0335 -4 15 -4V46C18.4332 46 21.9979 45.4448 25.5216 44.1799L8.62838 -2.87987ZM15 -4C17.0335 -4 19.446 -3.63529 21.9526 -2.60955C24.4695 -1.5796 26.5166 -0.11379 28.0652 1.43483L-7.29017 36.7902C-1.23493 42.8454 6.70795 46 15 46V-4ZM28.0652 1.43483C29.6138 2.98345 31.0796 5.03047 32.1096 7.54736C33.1353 10.054 33.5 12.4665 33.5 14.5H-16.5C-16.5 22.792 -13.3454 30.7349 -7.29017 36.7902L28.0652 1.43483ZM33.5 14.5C33.5 16.5335 33.1353 18.946 32.1096 21.4526C31.0796 23.9695 29.6138 26.0166 28.0652 27.5652L-7.29017 -7.79017C-13.3454 -1.73493 -16.5 6.20795 -16.5 14.5H33.5ZM28.0652 27.5652C26.5166 29.1138 24.4695 30.5796 21.9526 31.6096C19.446 32.6353 17.0335 33 15 33V-17C6.70795 -17 -1.23493 -13.8454 -7.29017 -7.79017L28.0652 27.5652ZM15 33C12.9665 33 10.554 32.6353 8.04736 31.6096C5.53047 30.5796 3.48345 29.1138 1.93483 27.5652L37.2902 -7.79017C31.2349 -13.8454 23.292 -17 15 -17V33ZM1.93483 27.5652C0.38621 26.0166 -1.0796 23.9695 -2.10955 21.4526C-3.13529 18.946 -3.5 16.5335 -3.5 14.5H46.5C46.5 6.20795 43.3454 -1.73493 37.2902 -7.79017L1.93483 27.5652ZM-3.5 14.5C-3.5 12.5335 -3.17811 10.3521 -2.37987 8.12838L44.6799 25.0216C45.9448 21.4979 46.5 17.9332 46.5 14.5H-3.5ZM-2.37987 8.12838C-1.75491 6.38744 -0.774393 4.49847 0.67828 2.68262L39.7217 33.9174C41.9744 31.1015 43.5882 28.0626 44.6799 25.0216L-2.37987 8.12838ZM2.52233 35.9777L8.82233 42.2777L44.1777 6.92233L37.8777 0.622331L2.52233 35.9777ZM8.82233 6.92233L7.42233 8.32233L42.7777 43.6777L44.1777 42.2777L8.82233 6.92233ZM15 44C22.8047 44 30.2485 40.9818 35.8652 35.3652L0.50983 0.00983047C2.2249 -1.70524 4.46632 -3.31301 7.21563 -4.44508C9.95991 -5.57507 12.6484 -6 15 -6V44ZM35.8652 35.3652C41.4818 29.7485 44.5 22.3047 44.5 14.5H-5.5C-5.5 12.1484 -5.07507 9.45991 -3.94508 6.71563C-2.81301 3.96632 -1.20524 1.7249 0.50983 0.00983047L35.8652 35.3652ZM44.5 14.5C44.5 6.69526 41.4818 -0.748523 35.8652 -6.36517L0.50983 28.9902C-1.20524 27.2751 -2.81301 25.0337 -3.94508 22.2844C-5.07507 19.5401 -5.5 16.8516 -5.5 14.5H44.5ZM35.8652 -6.36517C30.2485 -11.9818 22.8047 -15 15 -15V35C12.6484 35 9.95991 34.5751 7.21563 33.4451C4.46632 32.313 2.2249 30.7052 0.50983 28.9902L35.8652 -6.36517ZM15 -15C7.19526 -15 -0.248523 -11.9818 -5.86517 -6.36517L29.4902 28.9902C27.7751 30.7052 25.5337 32.313 22.7844 33.4451C20.0401 34.5751 17.3516 35 15 35V-15ZM-5.86517 -6.36517C-11.4818 -0.748523 -14.5 6.69526 -14.5 14.5H35.5C35.5 16.8516 35.0751 19.5401 33.9451 22.2844C32.813 25.0337 31.2052 27.2751 29.4902 28.9902L-5.86517 -6.36517ZM-14.5 14.5C-14.5 22.3047 -11.4818 29.7485 -5.86517 35.3652L29.4902 0.00983047C31.2052 1.7249 32.813 3.96632 33.9451 6.71563C35.0751 9.45991 35.5 12.1484 35.5 14.5H-14.5ZM-5.86517 35.3652C-0.248523 40.9818 7.19526 44 15 44V-6C17.3516 -6 20.0401 -5.57507 22.7844 -4.44508C25.5337 -3.31301 27.7751 -1.70524 29.4902 0.00983047L-5.86517 35.3652Z" fill="#313D53" mask="url(#path-2-inside-1_3964_97)"/>
</svg>
