<svg width="12" height="10" viewBox="0 0 12 10" fill="none" xmlns="http://www.w3.org/2000/svg">
<path d="M6 8.0002C6.17 8.0002 6.3125 7.9427 6.4275 7.8277C6.5425 7.7127 6.6 7.5702 6.6 7.4002C6.6 7.2302 6.5425 7.0877 6.4275 6.9727C6.3125 6.8577 6.17 6.8002 6 6.8002C5.83 6.8002 5.6875 6.8577 5.5725 6.9727C5.4575 7.0877 5.4 7.2302 5.4 7.4002C5.4 7.5702 5.4575 7.7127 5.5725 7.8277C5.6875 7.9427 5.83 8.0002 6 8.0002ZM6 5.6002C6.17 5.6002 6.3125 5.5427 6.4275 5.4277C6.5425 5.3127 6.6 5.1702 6.6 5.0002C6.6 4.8302 6.5425 4.6877 6.4275 4.5727C6.3125 4.4577 6.17 4.4002 6 4.4002C5.83 4.4002 5.6875 4.4577 5.5725 4.5727C5.4575 4.6877 5.4 4.8302 5.4 5.0002C5.4 5.1702 5.4575 5.3127 5.5725 5.4277C5.6875 5.5427 5.83 5.6002 6 5.6002ZM6 3.2002C6.17 3.2002 6.3125 3.1427 6.4275 3.0277C6.5425 2.9127 6.6 2.7702 6.6 2.6002C6.6 2.4302 6.5425 2.2877 6.4275 2.1727C6.3125 2.0577 6.17 2.0002 6 2.0002C5.83 2.0002 5.6875 2.0577 5.5725 2.1727C5.4575 2.2877 5.4 2.4302 5.4 2.6002C5.4 2.7702 5.4575 2.9127 5.5725 3.0277C5.6875 3.1427 5.83 3.2002 6 3.2002ZM10.8 9.8002H1.2C0.87 9.8002 0.5875 9.6827 0.3525 9.4477C0.1175 9.2127 0 8.9302 0 8.6002V6.2002C0.33 6.2002 0.6125 6.0827 0.8475 5.8477C1.0825 5.6127 1.2 5.3302 1.2 5.0002C1.2 4.6702 1.0825 4.3877 0.8475 4.1527C0.6125 3.9177 0.33 3.8002 0 3.8002V1.4002C0 1.0702 0.1175 0.787695 0.3525 0.552695C0.5875 0.317695 0.87 0.200195 1.2 0.200195H10.8C11.13 0.200195 11.4125 0.317695 11.6475 0.552695C11.8825 0.787695 12 1.0702 12 1.4002V3.8002C11.67 3.8002 11.3875 3.9177 11.1525 4.1527C10.9175 4.3877 10.8 4.6702 10.8 5.0002C10.8 5.3302 10.9175 5.6127 11.1525 5.8477C11.3875 6.0827 11.67 6.2002 12 6.2002V8.6002C12 8.9302 11.8825 9.2127 11.6475 9.4477C11.4125 9.6827 11.13 9.8002 10.8 9.8002ZM10.8 8.6002V7.0702C10.43 6.8502 10.1375 6.5577 9.9225 6.1927C9.7075 5.8277 9.6 5.4302 9.6 5.0002C9.6 4.5702 9.7075 4.1727 9.9225 3.8077C10.1375 3.4427 10.43 3.1502 10.8 2.9302V1.4002H1.2V2.9302C1.57 3.1502 1.8625 3.4427 2.0775 3.8077C2.2925 4.1727 2.4 4.5702 2.4 5.0002C2.4 5.4302 2.2925 5.8277 2.0775 6.1927C1.8625 6.5577 1.57 6.8502 1.2 7.0702V8.6002H10.8Z" fill="white"/>
</svg>
