<svg width="33" height="32" viewBox="0 0 33 32" fill="none" xmlns="http://www.w3.org/2000/svg">
<rect x="1.30005" y="0.5" width="31" height="31" rx="15.5" fill="#313D53"/>
<rect x="1.30005" y="0.5" width="31" height="31" rx="15.5" stroke="#313D53"/>
<path d="M16.8 19C16.97 19 17.1125 18.9425 17.2275 18.8275C17.3425 18.7125 17.4 18.57 17.4 18.4C17.4 18.23 17.3425 18.0875 17.2275 17.9725C17.1125 17.8575 16.97 17.8 16.8 17.8C16.63 17.8 16.4875 17.8575 16.3725 17.9725C16.2575 18.0875 16.2 18.23 16.2 18.4C16.2 18.57 16.2575 18.7125 16.3725 18.8275C16.4875 18.9425 16.63 19 16.8 19ZM16.8 16.6C16.97 16.6 17.1125 16.5425 17.2275 16.4275C17.3425 16.3125 17.4 16.17 17.4 16C17.4 15.83 17.3425 15.6875 17.2275 15.5725C17.1125 15.4575 16.97 15.4 16.8 15.4C16.63 15.4 16.4875 15.4575 16.3725 15.5725C16.2575 15.6875 16.2 15.83 16.2 16C16.2 16.17 16.2575 16.3125 16.3725 16.4275C16.4875 16.5425 16.63 16.6 16.8 16.6ZM16.8 14.2C16.97 14.2 17.1125 14.1425 17.2275 14.0275C17.3425 13.9125 17.4 13.77 17.4 13.6C17.4 13.43 17.3425 13.2875 17.2275 13.1725C17.1125 13.0575 16.97 13 16.8 13C16.63 13 16.4875 13.0575 16.3725 13.1725C16.2575 13.2875 16.2 13.43 16.2 13.6C16.2 13.77 16.2575 13.9125 16.3725 14.0275C16.4875 14.1425 16.63 14.2 16.8 14.2ZM21.6 20.8H12C11.67 20.8 11.3875 20.6825 11.1525 20.4475C10.9175 20.2125 10.8 19.93 10.8 19.6V17.2C11.13 17.2 11.4125 17.0825 11.6475 16.8475C11.8825 16.6125 12 16.33 12 16C12 15.67 11.8825 15.3875 11.6475 15.1525C11.4125 14.9175 11.13 14.8 10.8 14.8V12.4C10.8 12.07 10.9175 11.7875 11.1525 11.5525C11.3875 11.3175 11.67 11.2 12 11.2H21.6C21.93 11.2 22.2125 11.3175 22.4475 11.5525C22.6825 11.7875 22.8 12.07 22.8 12.4V14.8C22.47 14.8 22.1875 14.9175 21.9525 15.1525C21.7175 15.3875 21.6 15.67 21.6 16C21.6 16.33 21.7175 16.6125 21.9525 16.8475C22.1875 17.0825 22.47 17.2 22.8 17.2V19.6C22.8 19.93 22.6825 20.2125 22.4475 20.4475C22.2125 20.6825 21.93 20.8 21.6 20.8ZM21.6 19.6V18.07C21.23 17.85 20.9375 17.5575 20.7225 17.1925C20.5075 16.8275 20.4 16.43 20.4 16C20.4 15.57 20.5075 15.1725 20.7225 14.8075C20.9375 14.4425 21.23 14.15 21.6 13.93V12.4H12V13.93C12.37 14.15 12.6625 14.4425 12.8775 14.8075C13.0925 15.1725 13.2 15.57 13.2 16C13.2 16.43 13.0925 16.8275 12.8775 17.1925C12.6625 17.5575 12.37 17.85 12 18.07V19.6H21.6Z" fill="white"/>
</svg>
