<svg width="32" height="32" viewBox="0 0 32 32" fill="none" xmlns="http://www.w3.org/2000/svg">
<rect width="32" height="32" rx="16" fill="#EB6D47"/>
<path d="M16 19C16.17 19 16.3125 18.9425 16.4275 18.8275C16.5425 18.7125 16.6 18.57 16.6 18.4C16.6 18.23 16.5425 18.0875 16.4275 17.9725C16.3125 17.8575 16.17 17.8 16 17.8C15.83 17.8 15.6875 17.8575 15.5725 17.9725C15.4575 18.0875 15.4 18.23 15.4 18.4C15.4 18.57 15.4575 18.7125 15.5725 18.8275C15.6875 18.9425 15.83 19 16 19ZM16 16.6C16.17 16.6 16.3125 16.5425 16.4275 16.4275C16.5425 16.3125 16.6 16.17 16.6 16C16.6 15.83 16.5425 15.6875 16.4275 15.5725C16.3125 15.4575 16.17 15.4 16 15.4C15.83 15.4 15.6875 15.4575 15.5725 15.5725C15.4575 15.6875 15.4 15.83 15.4 16C15.4 16.17 15.4575 16.3125 15.5725 16.4275C15.6875 16.5425 15.83 16.6 16 16.6ZM16 14.2C16.17 14.2 16.3125 14.1425 16.4275 14.0275C16.5425 13.9125 16.6 13.77 16.6 13.6C16.6 13.43 16.5425 13.2875 16.4275 13.1725C16.3125 13.0575 16.17 13 16 13C15.83 13 15.6875 13.0575 15.5725 13.1725C15.4575 13.2875 15.4 13.43 15.4 13.6C15.4 13.77 15.4575 13.9125 15.5725 14.0275C15.6875 14.1425 15.83 14.2 16 14.2ZM20.8 20.8H11.2C10.87 20.8 10.5875 20.6825 10.3525 20.4475C10.1175 20.2125 10 19.93 10 19.6V17.2C10.33 17.2 10.6125 17.0825 10.8475 16.8475C11.0825 16.6125 11.2 16.33 11.2 16C11.2 15.67 11.0825 15.3875 10.8475 15.1525C10.6125 14.9175 10.33 14.8 10 14.8V12.4C10 12.07 10.1175 11.7875 10.3525 11.5525C10.5875 11.3175 10.87 11.2 11.2 11.2H20.8C21.13 11.2 21.4125 11.3175 21.6475 11.5525C21.8825 11.7875 22 12.07 22 12.4V14.8C21.67 14.8 21.3875 14.9175 21.1525 15.1525C20.9175 15.3875 20.8 15.67 20.8 16C20.8 16.33 20.9175 16.6125 21.1525 16.8475C21.3875 17.0825 21.67 17.2 22 17.2V19.6C22 19.93 21.8825 20.2125 21.6475 20.4475C21.4125 20.6825 21.13 20.8 20.8 20.8ZM20.8 19.6V18.07C20.43 17.85 20.1375 17.5575 19.9225 17.1925C19.7075 16.8275 19.6 16.43 19.6 16C19.6 15.57 19.7075 15.1725 19.9225 14.8075C20.1375 14.4425 20.43 14.15 20.8 13.93V12.4H11.2V13.93C11.57 14.15 11.8625 14.4425 12.0775 14.8075C12.2925 15.1725 12.4 15.57 12.4 16C12.4 16.43 12.2925 16.8275 12.0775 17.1925C11.8625 17.5575 11.57 17.85 11.2 18.07V19.6H20.8Z" fill="white"/>
</svg>
